<svg width="32" height="31" viewBox="0 0 32 31" fill="none" xmlns="http://www.w3.org/2000/svg">
<rect y="0.97998" width="31.2" height="29.38" rx="5" fill="white"/>
<path d="M24.29 15.67C24.29 17.9747 23.3745 20.185 21.7448 21.8147C20.1151 23.4444 17.9047 24.36 15.6 24.36C13.2953 24.36 11.0849 23.4444 9.45525 21.8147C7.82555 20.185 6.91 17.9747 6.91 15.67C6.91 13.3652 7.82555 11.1549 9.45525 9.52522C11.0849 7.89553 13.2953 6.97998 15.6 6.97998C17.9047 6.97998 20.1151 7.89553 21.7448 9.52522C23.3745 11.1549 24.29 13.3652 24.29 15.67ZM15.6 10.7819C15.6 10.6378 15.5428 10.4997 15.4409 10.3978C15.3391 10.296 15.2009 10.2387 15.0569 10.2387C14.9128 10.2387 14.7747 10.296 14.6728 10.3978C14.571 10.4997 14.5138 10.6378 14.5138 10.7819V16.7562C14.5138 16.852 14.5391 16.946 14.5872 17.0288C14.6353 17.1116 14.7044 17.1802 14.7875 17.2277L18.5894 19.4002C18.7141 19.4676 18.8603 19.4835 18.9967 19.4446C19.1331 19.4057 19.2488 19.315 19.3192 19.1918C19.3895 19.0687 19.4089 18.9229 19.3732 18.7857C19.3375 18.6484 19.2496 18.5306 19.1281 18.4573L15.6 16.4412V10.7819Z" fill="#1E222B"/>
</svg>
