<svg width="32" height="30" viewBox="0 0 32 30" fill="none" xmlns="http://www.w3.org/2000/svg">
<rect y="0.600098" width="31.2" height="29.38" rx="5" fill="#1E222B"/>
<path d="M24.29 15.2901C24.29 17.5948 23.3745 19.8052 21.7448 21.4349C20.1151 23.0645 17.9047 23.9801 15.6 23.9801C13.2953 23.9801 11.0849 23.0645 9.45525 21.4349C7.82555 19.8052 6.91 17.5948 6.91 15.2901C6.91 12.9854 7.82555 10.775 9.45525 9.14534C11.0849 7.51565 13.2953 6.6001 15.6 6.6001C17.9047 6.6001 20.1151 7.51565 21.7448 9.14534C23.3745 10.775 24.29 12.9854 24.29 15.2901ZM15.6 10.402C15.6 10.2579 15.5428 10.1198 15.4409 10.0179C15.3391 9.91607 15.2009 9.85885 15.0569 9.85885C14.9128 9.85885 14.7747 9.91607 14.6728 10.0179C14.571 10.1198 14.5138 10.2579 14.5138 10.402V16.3763C14.5138 16.4721 14.5391 16.5661 14.5872 16.6489C14.6353 16.7317 14.7044 16.8003 14.7875 16.8478L18.5894 19.0203C18.7141 19.0877 18.8603 19.1037 18.9967 19.0647C19.1331 19.0258 19.2488 18.9351 19.3192 18.8119C19.3895 18.6888 19.4089 18.543 19.3732 18.4058C19.3375 18.2685 19.2496 18.1507 19.1281 18.0774L15.6 16.0613V10.402Z" fill="white"/>
</svg>
