<svg width="32" height="31" viewBox="0 0 32 31" fill="none" xmlns="http://www.w3.org/2000/svg">
<rect y="0.799805" width="31.2" height="29.38" rx="5" fill="#1E222B"/>
<path d="M15.6 24.1798C14.4124 24.1798 13.2899 23.9515 12.2326 23.495C11.1753 23.0385 10.2522 22.4157 9.46313 21.6267C8.67407 20.8376 8.05129 19.9145 7.59478 18.8572C7.13826 17.7999 6.91 16.6774 6.91 15.4898C6.91 14.2877 7.1455 13.158 7.6165 12.1007C8.0875 11.0434 8.72477 10.1237 9.5283 9.34163C10.3318 8.55953 11.2695 7.94051 12.3413 7.48458C13.413 7.02864 14.5572 6.80038 15.7738 6.7998C16.9325 6.7998 18.026 6.9991 19.0543 7.39768C20.0826 7.79626 20.9843 8.34662 21.7595 9.04878C22.5346 9.75093 23.1502 10.5837 23.6061 11.5472C24.062 12.5106 24.29 13.5496 24.29 14.6643C24.29 16.3298 23.7831 17.6081 22.7693 18.4992C21.7554 19.3902 20.5243 19.8354 19.076 19.8348H17.4684C17.338 19.8348 17.2476 19.871 17.1972 19.9434C17.1468 20.0158 17.1213 20.0955 17.1208 20.1824C17.1208 20.3562 17.2294 20.6062 17.4466 20.9324C17.6639 21.2585 17.7725 21.6313 17.7725 22.0508C17.7725 22.7749 17.5735 23.3108 17.1755 23.6584C16.7775 24.006 16.2523 24.1798 15.6 24.1798ZM10.8205 16.3588C11.1971 16.3588 11.5085 16.2357 11.7547 15.9895C12.0009 15.7433 12.124 15.4319 12.124 15.0553C12.124 14.6787 12.0009 14.3673 11.7547 14.1211C11.5085 13.8749 11.1971 13.7518 10.8205 13.7518C10.4439 13.7518 10.1325 13.8749 9.88633 14.1211C9.64011 14.3673 9.517 14.6787 9.517 15.0553C9.517 15.4319 9.64011 15.7433 9.88633 15.9895C10.1325 16.2357 10.4439 16.3588 10.8205 16.3588ZM13.4275 12.8828C13.8041 12.8828 14.1155 12.7597 14.3617 12.5135C14.6079 12.2673 14.731 11.9559 14.731 11.5793C14.731 11.2027 14.6079 10.8913 14.3617 10.6451C14.1155 10.3989 13.8041 10.2758 13.4275 10.2758C13.0509 10.2758 12.7395 10.3989 12.4933 10.6451C12.2471 10.8913 12.124 11.2027 12.124 11.5793C12.124 11.9559 12.2471 12.2673 12.4933 12.5135C12.7395 12.7597 13.0509 12.8828 13.4275 12.8828ZM17.7725 12.8828C18.1491 12.8828 18.4605 12.7597 18.7067 12.5135C18.9529 12.2673 19.076 11.9559 19.076 11.5793C19.076 11.2027 18.9529 10.8913 18.7067 10.6451C18.4605 10.3989 18.1491 10.2758 17.7725 10.2758C17.3959 10.2758 17.0845 10.3989 16.8383 10.6451C16.5921 10.8913 16.469 11.2027 16.469 11.5793C16.469 11.9559 16.5921 12.2673 16.8383 12.5135C17.0845 12.7597 17.3959 12.8828 17.7725 12.8828ZM20.3795 16.3588C20.7561 16.3588 21.0675 16.2357 21.3137 15.9895C21.5599 15.7433 21.683 15.4319 21.683 15.0553C21.683 14.6787 21.5599 14.3673 21.3137 14.1211C21.0675 13.8749 20.7561 13.7518 20.3795 13.7518C20.0029 13.7518 19.6915 13.8749 19.4453 14.1211C19.1991 14.3673 19.076 14.6787 19.076 15.0553C19.076 15.4319 19.1991 15.7433 19.4453 15.9895C19.6915 16.2357 20.0029 16.3588 20.3795 16.3588Z" fill="white"/>
</svg>
