<svg width="32" height="30" viewBox="0 0 32 30" fill="none" xmlns="http://www.w3.org/2000/svg">
<rect y="0.179688" width="31.2" height="29.38" rx="5" fill="white"/>
<path d="M15.6 23.5597C14.4124 23.5597 13.2899 23.3314 12.2326 22.8749C11.1753 22.4184 10.2522 21.7956 9.46313 21.0066C8.67407 20.2175 8.05129 19.2943 7.59478 18.2371C7.13826 17.1798 6.91 16.0573 6.91 14.8697C6.91 13.6676 7.1455 12.5379 7.6165 11.4806C8.0875 10.4233 8.72477 9.50361 9.5283 8.72151C10.3318 7.93941 11.2695 7.32039 12.3413 6.86446C13.413 6.40852 14.5572 6.18027 15.7738 6.17969C16.9325 6.17969 18.026 6.37898 19.0543 6.77756C20.0826 7.17614 20.9843 7.72651 21.7595 8.42866C22.5346 9.13081 23.1502 9.9636 23.6061 10.927C24.062 11.8905 24.29 12.9295 24.29 14.0441C24.29 15.7097 23.7831 16.988 22.7693 17.879C21.7554 18.77 20.5243 19.2153 19.076 19.2147H17.4684C17.338 19.2147 17.2476 19.2509 17.1972 19.3233C17.1468 19.3957 17.1213 19.4754 17.1208 19.5623C17.1208 19.7361 17.2294 19.9861 17.4466 20.3122C17.6639 20.6384 17.7725 21.0112 17.7725 21.4306C17.7725 22.1548 17.5735 22.6907 17.1755 23.0383C16.7775 23.3859 16.2523 23.5597 15.6 23.5597ZM10.8205 15.7387C11.1971 15.7387 11.5085 15.6156 11.7547 15.3694C12.0009 15.1231 12.124 14.8118 12.124 14.4352C12.124 14.0586 12.0009 13.7472 11.7547 13.501C11.5085 13.2548 11.1971 13.1317 10.8205 13.1317C10.4439 13.1317 10.1325 13.2548 9.88633 13.501C9.64011 13.7472 9.517 14.0586 9.517 14.4352C9.517 14.8118 9.64011 15.1231 9.88633 15.3694C10.1325 15.6156 10.4439 15.7387 10.8205 15.7387ZM13.4275 12.2627C13.8041 12.2627 14.1155 12.1396 14.3617 11.8934C14.6079 11.6471 14.731 11.3358 14.731 10.9592C14.731 10.5826 14.6079 10.2712 14.3617 10.025C14.1155 9.7788 13.8041 9.65569 13.4275 9.65569C13.0509 9.65569 12.7395 9.7788 12.4933 10.025C12.2471 10.2712 12.124 10.5826 12.124 10.9592C12.124 11.3358 12.2471 11.6471 12.4933 11.8934C12.7395 12.1396 13.0509 12.2627 13.4275 12.2627ZM17.7725 12.2627C18.1491 12.2627 18.4605 12.1396 18.7067 11.8934C18.9529 11.6471 19.076 11.3358 19.076 10.9592C19.076 10.5826 18.9529 10.2712 18.7067 10.025C18.4605 9.7788 18.1491 9.65569 17.7725 9.65569C17.3959 9.65569 17.0845 9.7788 16.8383 10.025C16.5921 10.2712 16.469 10.5826 16.469 10.9592C16.469 11.3358 16.5921 11.6471 16.8383 11.8934C17.0845 12.1396 17.3959 12.2627 17.7725 12.2627ZM20.3795 15.7387C20.7561 15.7387 21.0675 15.6156 21.3137 15.3694C21.5599 15.1231 21.683 14.8118 21.683 14.4352C21.683 14.0586 21.5599 13.7472 21.3137 13.501C21.0675 13.2548 20.7561 13.1317 20.3795 13.1317C20.0029 13.1317 19.6915 13.2548 19.4453 13.501C19.1991 13.7472 19.076 14.0586 19.076 14.4352C19.076 14.8118 19.1991 15.1231 19.4453 15.3694C19.6915 15.6156 20.0029 15.7387 20.3795 15.7387Z" fill="#1E222B"/>
</svg>
