<svg width="32" height="31" viewBox="0 0 32 31" fill="none" xmlns="http://www.w3.org/2000/svg">
<rect y="0.819824" width="31.2" height="29.38" rx="5" fill="white"/>
<path fill-rule="evenodd" clip-rule="evenodd" d="M21.3654 6.88258L21.6022 6.91229C22.228 6.99864 23.0562 7.11471 23.5251 7.58453C23.9095 7.96801 24.0572 8.59197 24.1454 9.14908L24.1974 9.50748C24.3144 10.3524 24.345 11.4592 24.1454 12.6886C23.7517 15.1148 22.4601 18.0099 19.2168 20.2513C19.1992 20.4259 19.1983 20.6023 19.202 20.7787L19.2113 21.0424C19.2261 21.4482 19.241 21.8539 19.1277 22.2476C18.9513 22.8604 18.3227 23.2643 17.7349 23.554L17.4471 23.6905L17.0757 23.8539C16.3812 24.1492 15.4434 24.4519 14.8556 23.8632C14.5028 23.5113 14.3579 22.9951 14.24 22.4816L14.1964 22.2894C14.1465 22.0469 14.0845 21.807 14.0107 21.5707C13.9642 21.4345 13.9141 21.2968 13.8602 21.1575C13.801 21.2303 13.7381 21.3 13.6718 21.3664C13.3514 21.6868 12.8732 21.9106 12.4795 22.0675C12.0496 22.2374 11.5631 22.3859 11.1128 22.5085L10.8816 22.5698L10.4387 22.6803L10.0376 22.7731L9.55752 22.8753L9.25761 22.9338C9.10803 22.9615 8.95397 22.9524 8.8087 22.9072C8.66343 22.8621 8.53131 22.7823 8.42375 22.6748C8.31619 22.5672 8.2364 22.4351 8.19128 22.2898C8.14616 22.1446 8.13705 21.9905 8.16475 21.8409L8.2446 21.4407L8.38759 20.7926L8.50273 20.3191L8.59001 19.9848C8.71257 19.5354 8.86113 19.0489 9.03198 18.6199C9.18797 18.2253 9.41174 17.7471 9.73208 17.4268L9.80636 17.3553L9.74693 17.3311C9.58823 17.2709 9.4275 17.216 9.26504 17.1668L9.00784 17.0879C8.36345 16.8929 7.67449 16.683 7.24645 16.2541C6.72648 15.735 6.90197 14.9449 7.15267 14.2875L7.25481 14.0331L7.41915 13.6616L7.55564 13.3738C7.84534 12.787 8.24924 12.1584 8.86206 11.982C9.18704 11.8891 9.52502 11.8835 9.86485 11.8928L10.0691 11.8993C10.3347 11.9086 10.5993 11.9188 10.8584 11.8938C13.0998 8.64954 15.9949 7.35798 18.4211 6.96429C19.3944 6.80465 20.3848 6.77717 21.3654 6.88258ZM12.2548 18.6515C12.1088 18.5432 11.9341 18.4802 11.7525 18.4703C11.571 18.4604 11.3905 18.504 11.2335 18.5958L11.1313 18.6645L11.045 18.7415L10.9289 18.8882C10.6875 19.2374 10.5501 19.7202 10.4433 20.1714L10.343 20.606L10.2957 20.8038L10.473 20.7611L10.8611 20.6719C11.3978 20.5466 11.993 20.3841 12.3588 20.0545C12.5179 19.8955 12.6139 19.6842 12.6289 19.4598C12.6439 19.2354 12.577 19.0132 12.4405 18.8344L12.3644 18.7471L12.3421 18.7258L12.2548 18.6515ZM18.9243 12.176C18.7519 12.0036 18.5472 11.8667 18.3219 11.7734C18.0966 11.68 17.8552 11.6319 17.6113 11.6319C17.3674 11.6318 17.1259 11.6798 16.9006 11.7731C16.6753 11.8664 16.4705 12.0031 16.2981 12.1756C16.1256 12.348 15.9887 12.5527 15.8954 12.778C15.802 13.0033 15.7539 13.2447 15.7539 13.4886C15.7539 13.7325 15.8018 13.974 15.8951 14.1993C15.9884 14.4246 16.1252 14.6294 16.2976 14.8019C16.6458 15.1502 17.1181 15.3459 17.6106 15.346C18.1032 15.3461 18.5756 15.1505 18.9239 14.8023C19.2722 14.4541 19.468 13.9818 19.468 13.4893C19.4681 12.9967 19.2726 12.5244 18.9243 12.176Z" fill="#1E222B"/>
</svg>
