<svg width="32" height="30" viewBox="0 0 32 30" fill="none" xmlns="http://www.w3.org/2000/svg">
<rect y="0.439941" width="31.2" height="29.38" rx="5" fill="#1E222B"/>
<path fill-rule="evenodd" clip-rule="evenodd" d="M21.3654 6.5027L21.6022 6.53241C22.228 6.61876 23.0562 6.73482 23.5251 7.20465C23.9095 7.58813 24.0572 8.21209 24.1454 8.76919L24.1974 9.1276C24.3144 9.97255 24.345 11.0793 24.1454 12.3087C23.7517 14.7349 22.4601 17.63 19.2168 19.8714C19.1992 20.046 19.1983 20.2224 19.202 20.3988L19.2113 20.6625C19.2261 21.0683 19.241 21.474 19.1277 21.8677C18.9513 22.4805 18.3227 22.8844 17.7349 23.1741L17.4471 23.3106L17.0757 23.474C16.3812 23.7693 15.4434 24.072 14.8556 23.4833C14.5028 23.1314 14.3579 22.6152 14.24 22.1017L14.1964 21.9095C14.1465 21.667 14.0845 21.4271 14.0107 21.1908C13.9642 21.0547 13.9141 20.9169 13.8602 20.7776C13.801 20.8504 13.7381 20.9201 13.6718 20.9866C13.3514 21.3069 12.8732 21.5307 12.4795 21.6876C12.0496 21.8575 11.5631 22.0061 11.1128 22.1286L10.8816 22.1899L10.4387 22.3004L10.0376 22.3933L9.55752 22.4954L9.25761 22.5539C9.10803 22.5816 8.95397 22.5725 8.8087 22.5274C8.66343 22.4822 8.53131 22.4024 8.42375 22.2949C8.31619 22.1873 8.2364 22.0552 8.19128 21.9099C8.14616 21.7647 8.13705 21.6106 8.16475 21.461L8.2446 21.0608L8.38759 20.4127L8.50273 19.9392L8.59001 19.6049C8.71257 19.1555 8.86113 18.669 9.03198 18.24C9.18797 17.8454 9.41174 17.3672 9.73208 17.0469L9.80636 16.9754L9.74693 16.9512C9.58823 16.891 9.4275 16.8362 9.26504 16.7869L9.00784 16.708C8.36345 16.513 7.67449 16.3031 7.24645 15.8742C6.72648 15.3551 6.90197 14.565 7.15267 13.9076L7.25481 13.6532L7.41915 13.2818L7.55564 12.9939C7.84534 12.4071 8.24924 11.7785 8.86206 11.6021C9.18704 11.5092 9.52502 11.5037 9.86485 11.5129L10.0691 11.5194C10.3347 11.5287 10.5993 11.5389 10.8584 11.5139C13.0998 8.26965 15.9949 6.97809 18.4211 6.5844C19.3944 6.42477 20.3848 6.39729 21.3654 6.5027ZM12.2548 18.2716C12.1088 18.1633 11.9341 18.1003 11.7525 18.0904C11.571 18.0805 11.3905 18.1241 11.2335 18.2159L11.1313 18.2846L11.045 18.3617L10.9289 18.5084C10.6875 18.8575 10.5501 19.3403 10.4433 19.7916L10.343 20.2261L10.2957 20.4239L10.473 20.3812L10.8611 20.292C11.3978 20.1667 11.993 20.0042 12.3588 19.6746C12.5179 19.5156 12.6139 19.3043 12.6289 19.0799C12.6439 18.8555 12.577 18.6333 12.4405 18.4545L12.3644 18.3672L12.3421 18.3459L12.2548 18.2716ZM18.9243 11.7961C18.7519 11.6237 18.5472 11.4868 18.3219 11.3935C18.0966 11.3001 17.8552 11.252 17.6113 11.252C17.3674 11.2519 17.1259 11.2999 16.9006 11.3932C16.6753 11.4865 16.4705 11.6233 16.2981 11.7957C16.1256 11.9681 15.9887 12.1728 15.8954 12.3981C15.802 12.6234 15.7539 12.8649 15.7539 13.1087C15.7539 13.3526 15.8018 13.5941 15.8951 13.8194C15.9884 14.0448 16.1252 14.2495 16.2976 14.422C16.6458 14.7703 17.1181 14.966 17.6106 14.9661C18.1032 14.9662 18.5756 14.7706 18.9239 14.4224C19.2722 14.0742 19.468 13.6019 19.468 13.1094C19.4681 12.6169 19.2726 12.1445 18.9243 11.7961Z" fill="white"/>
</svg>
