<svg width="32" height="30" viewBox="0 0 32 30" fill="none" xmlns="http://www.w3.org/2000/svg">
<rect y="0.299805" width="31.2" height="29.38" rx="5" fill="white"/>
<path d="M15.8556 10.3892H7.67676C7.13447 10.3892 6.61439 10.6046 6.23093 10.9881C5.84747 11.3716 5.63205 11.8916 5.63205 12.4339V16.5233C5.63205 17.0656 5.84747 17.5857 6.23093 17.9692C6.61439 18.3526 7.13447 18.568 7.67676 18.568H8.69911V22.6575C8.69911 22.9286 8.80682 23.1886 8.99855 23.3804C9.19028 23.5721 9.45032 23.6798 9.72146 23.6798H11.7662C12.0373 23.6798 12.2974 23.5721 12.4891 23.3804C12.6808 23.1886 12.7885 22.9286 12.7885 22.6575V18.568H15.8556L20.9673 22.6575V6.2998L15.8556 10.3892ZM25.5679 14.4786C25.5679 16.2269 24.5865 17.8115 23.012 18.568V10.3892C24.5763 11.156 25.5679 12.7406 25.5679 14.4786Z" fill="#1E222B"/>
</svg>
