<svg width="32" height="31" viewBox="0 0 32 31" fill="none" xmlns="http://www.w3.org/2000/svg">
<rect y="0.919922" width="31.2" height="29.38" rx="5" fill="#1E222B"/>
<path d="M15.8556 11.0093H7.67676C7.13447 11.0093 6.61439 11.2248 6.23093 11.6082C5.84747 11.9917 5.63205 12.5117 5.63205 13.054V17.1435C5.63205 17.6857 5.84747 18.2058 6.23093 18.5893C6.61439 18.9727 7.13447 19.1882 7.67676 19.1882H8.69911V23.2776C8.69911 23.5487 8.80682 23.8088 8.99855 24.0005C9.19028 24.1922 9.45032 24.2999 9.72146 24.2999H11.7662C12.0373 24.2999 12.2974 24.1922 12.4891 24.0005C12.6808 23.8088 12.7885 23.5487 12.7885 23.2776V19.1882H15.8556L20.9673 23.2776V6.91992L15.8556 11.0093ZM25.5679 15.0987C25.5679 16.847 24.5865 18.4316 23.012 19.1882V11.0093C24.5763 11.7761 25.5679 13.3607 25.5679 15.0987Z" fill="white"/>
</svg>
