<svg width="32" height="30" viewBox="0 0 32 30" fill="none" xmlns="http://www.w3.org/2000/svg">
<rect y="0.179932" width="31.2" height="29.38" rx="5" fill="white"/>
<path fill-rule="evenodd" clip-rule="evenodd" d="M17.5188 8.6392C17.9127 8.76086 18.2893 8.91728 18.6485 9.10846L20.2413 8.15256C20.4074 8.05294 20.602 8.01166 20.7943 8.03528C20.9865 8.05889 21.1653 8.14605 21.3024 8.28291L22.187 9.16755C22.3239 9.3046 22.411 9.48343 22.4347 9.67566C22.4583 9.8679 22.417 10.0625 22.3174 10.2286L21.3615 11.8215C21.5527 12.1807 21.7091 12.5572 21.8307 12.9512L23.6322 13.4022C23.8201 13.4493 23.9869 13.5578 24.1061 13.7105C24.2253 13.8632 24.29 14.0514 24.29 14.2451V15.4947C24.29 15.6885 24.2253 15.8766 24.1061 16.0294C23.9869 16.1821 23.8201 16.2906 23.6322 16.3377L21.8307 16.7887C21.7091 17.1826 21.5527 17.5592 21.3615 17.9184L22.3174 19.5113C22.417 19.6774 22.4583 19.872 22.4347 20.0642C22.411 20.2564 22.3239 20.4353 22.187 20.5723L21.3024 21.457C21.1653 21.5938 20.9865 21.681 20.7943 21.7046C20.602 21.7282 20.4074 21.6869 20.2413 21.5873L18.6485 20.6314C18.2893 20.8226 17.9127 20.979 17.5188 21.1007L17.0677 22.9021C17.0207 23.09 16.9122 23.2568 16.7594 23.376C16.6067 23.4952 16.4185 23.5599 16.2248 23.5599H14.9752C14.7815 23.5599 14.5933 23.4952 14.4406 23.376C14.2879 23.2568 14.1793 23.09 14.1323 22.9021L13.6813 21.1007C13.2908 20.98 12.9126 20.8229 12.5516 20.6314L10.9587 21.5873C10.7926 21.6869 10.598 21.7282 10.4057 21.7046C10.2135 21.681 10.0347 21.5938 9.89763 21.457L9.01298 20.5723C8.87612 20.4353 8.78897 20.2564 8.76535 20.0642C8.74173 19.872 8.78301 19.6774 8.88263 19.5113L9.83853 17.9184C9.64704 17.5574 9.48993 17.1791 9.36927 16.7887L7.56784 16.3377C7.38006 16.2906 7.21337 16.1822 7.0942 16.0297C6.97503 15.8772 6.9102 15.6892 6.91 15.4956V14.246C6.91001 14.0523 6.97475 13.8641 7.09393 13.7114C7.21312 13.5587 7.37992 13.4501 7.56784 13.4031L9.36927 12.952C9.49093 12.5581 9.64735 12.1815 9.83853 11.8223L8.88263 10.2295C8.78301 10.0634 8.74173 9.86877 8.76535 9.67653C8.78897 9.4843 8.87612 9.30546 9.01298 9.16842L9.89763 8.28291C10.0347 8.14605 10.2135 8.05889 10.4057 8.03528C10.598 8.01166 10.7926 8.05294 10.9587 8.15256L12.5516 9.10846C12.9107 8.91728 13.2873 8.76086 13.6813 8.6392L14.1323 6.83776C14.1793 6.64999 14.2877 6.4833 14.4402 6.36413C14.5928 6.24496 14.7807 6.18013 14.9743 6.17993H16.2239C16.4177 6.17994 16.6058 6.24467 16.7586 6.36386C16.9113 6.48305 17.0198 6.64985 17.0669 6.83776L17.5188 8.6392ZM15.6 18.3459C16.5219 18.3459 17.406 17.9797 18.0579 17.3278C18.7098 16.676 19.076 15.7918 19.076 14.8699C19.076 13.948 18.7098 13.0639 18.0579 12.412C17.406 11.7602 16.5219 11.3939 15.6 11.3939C14.6781 11.3939 13.794 11.7602 13.1421 12.412C12.4902 13.0639 12.124 13.948 12.124 14.8699C12.124 15.7918 12.4902 16.676 13.1421 17.3278C13.794 17.9797 14.6781 18.3459 15.6 18.3459Z" fill="#1E222B"/>
</svg>
