<svg width="32" height="31" viewBox="0 0 32 31" fill="none" xmlns="http://www.w3.org/2000/svg">
<rect y="0.800049" width="31.2" height="29.38" rx="5" fill="#1E222B"/>
<path fill-rule="evenodd" clip-rule="evenodd" d="M17.5188 9.25932C17.9127 9.38098 18.2893 9.5374 18.6485 9.72858L20.2413 8.77268C20.4074 8.67306 20.602 8.63178 20.7943 8.65539C20.9865 8.67901 21.1653 8.76617 21.3024 8.90303L22.187 9.78767C22.3239 9.92471 22.411 10.1035 22.4347 10.2958C22.4583 10.488 22.417 10.6826 22.3174 10.8487L21.3615 12.4416C21.5527 12.8008 21.7091 13.1773 21.8307 13.5713L23.6322 14.0223C23.8201 14.0694 23.9869 14.1779 24.1061 14.3306C24.2253 14.4833 24.29 14.6715 24.29 14.8652V16.1149C24.29 16.3086 24.2253 16.4968 24.1061 16.6495C23.9869 16.8022 23.8201 16.9107 23.6322 16.9578L21.8307 17.4088C21.7091 17.8027 21.5527 18.1793 21.3615 18.5385L22.3174 20.1314C22.417 20.2975 22.4583 20.4921 22.4347 20.6843C22.411 20.8766 22.3239 21.0554 22.187 21.1924L21.3024 22.0771C21.1653 22.2139 20.9865 22.3011 20.7943 22.3247C20.602 22.3483 20.4074 22.307 20.2413 22.2074L18.6485 21.2515C18.2893 21.4427 17.9127 21.5991 17.5188 21.7208L17.0677 23.5222C17.0207 23.7101 16.9122 23.8769 16.7594 23.9961C16.6067 24.1153 16.4185 24.18 16.2248 24.18H14.9752C14.7815 24.18 14.5933 24.1153 14.4406 23.9961C14.2879 23.8769 14.1793 23.7101 14.1323 23.5222L13.6813 21.7208C13.2908 21.6001 12.9126 21.443 12.5516 21.2515L10.9587 22.2074C10.7926 22.307 10.598 22.3483 10.4057 22.3247C10.2135 22.3011 10.0347 22.2139 9.89763 22.0771L9.01298 21.1924C8.87612 21.0554 8.78897 20.8766 8.76535 20.6843C8.74173 20.4921 8.78301 20.2975 8.88263 20.1314L9.83853 18.5385C9.64704 18.1775 9.48993 17.7992 9.36927 17.4088L7.56784 16.9578C7.38006 16.9108 7.21337 16.8024 7.0942 16.6498C6.97503 16.4973 6.9102 16.3093 6.91 16.1157V14.8661C6.91001 14.6724 6.97475 14.4842 7.09393 14.3315C7.21312 14.1788 7.37992 14.0703 7.56784 14.0232L9.36927 13.5722C9.49093 13.1782 9.64735 12.8017 9.83853 12.4425L8.88263 10.8496C8.78301 10.6835 8.74173 10.4889 8.76535 10.2966C8.78897 10.1044 8.87612 9.92558 9.01298 9.78854L9.89763 8.90303C10.0347 8.76617 10.2135 8.67901 10.4057 8.65539C10.598 8.63178 10.7926 8.67306 10.9587 8.77268L12.5516 9.72858C12.9107 9.5374 13.2873 9.38098 13.6813 9.25932L14.1323 7.45788C14.1793 7.27011 14.2877 7.10342 14.4402 6.98424C14.5928 6.86507 14.7807 6.80025 14.9743 6.80005H16.2239C16.4177 6.80005 16.6058 6.86479 16.7586 6.98398C16.9113 7.10316 17.0198 7.26996 17.0669 7.45788L17.5188 9.25932ZM15.6 18.966C16.5219 18.966 17.406 18.5998 18.0579 17.948C18.7098 17.2961 19.076 16.4119 19.076 15.49C19.076 14.5682 18.7098 13.684 18.0579 13.0321C17.406 12.3803 16.5219 12.014 15.6 12.014C14.6781 12.014 13.794 12.3803 13.1421 13.0321C12.4902 13.684 12.124 14.5682 12.124 15.49C12.124 16.4119 12.4902 17.2961 13.1421 17.948C13.794 18.5998 14.6781 18.966 15.6 18.966Z" fill="white"/>
</svg>
