<svg width="32" height="30" viewBox="0 0 32 30" fill="none" xmlns="http://www.w3.org/2000/svg">
<rect y="0.160156" width="31.2" height="29.38" rx="5" fill="#1E222B"/>
<path d="M15.6 18.3262C17.517 18.3262 19.076 16.7663 19.076 14.8502V9.63616C19.076 7.71914 17.517 6.16016 15.6 6.16016C13.683 6.16016 12.124 7.71914 12.124 9.63616V14.8502C12.124 16.7663 13.683 18.3262 15.6 18.3262ZM21.683 14.8502V13.1122C21.683 12.8817 21.5914 12.6606 21.4285 12.4977C21.2655 12.3347 21.0445 12.2432 20.814 12.2432C20.5835 12.2432 20.3625 12.3347 20.1995 12.4977C20.0366 12.6606 19.945 12.8817 19.945 13.1122V14.8502C19.945 17.246 17.9958 19.1952 15.6 19.1952C13.2042 19.1952 11.255 17.246 11.255 14.8502V13.1122C11.255 12.8817 11.1634 12.6606 11.0005 12.4977C10.8375 12.3347 10.6165 12.2432 10.386 12.2432C10.1555 12.2432 9.93449 12.3347 9.77152 12.4977C9.60855 12.6606 9.517 12.8817 9.517 13.1122V14.8502C9.517 17.909 11.7877 20.4396 14.731 20.8636V21.8022H12.124C11.8935 21.8022 11.6725 21.8937 11.5095 22.0567C11.3466 22.2196 11.255 22.4407 11.255 22.6712C11.255 22.9016 11.3466 23.1227 11.5095 23.2856C11.6725 23.4486 11.8935 23.5402 12.124 23.5402H19.076C19.3065 23.5402 19.5275 23.4486 19.6905 23.2856C19.8534 23.1227 19.945 22.9016 19.945 22.6712C19.945 22.4407 19.8534 22.2196 19.6905 22.0567C19.5275 21.8937 19.3065 21.8022 19.076 21.8022H16.469V20.8636C19.4123 20.4396 21.683 17.909 21.683 14.8502Z" fill="white"/>
</svg>
