<svg width="32" height="30" viewBox="0 0 32 30" fill="none" xmlns="http://www.w3.org/2000/svg">
<rect y="0.540039" width="31.2" height="29.38" rx="5" fill="white"/>
<path d="M15.6 18.706C17.517 18.706 19.076 17.1462 19.076 15.23V10.016C19.076 8.09902 17.517 6.54004 15.6 6.54004C13.683 6.54004 12.124 8.09902 12.124 10.016V15.23C12.124 17.1462 13.683 18.706 15.6 18.706ZM21.683 15.23V13.492C21.683 13.2616 21.5914 13.0405 21.4285 12.8776C21.2655 12.7146 21.0445 12.623 20.814 12.623C20.5835 12.623 20.3625 12.7146 20.1995 12.8776C20.0366 13.0405 19.945 13.2616 19.945 13.492V15.23C19.945 17.6259 17.9958 19.575 15.6 19.575C13.2042 19.575 11.255 17.6259 11.255 15.23V13.492C11.255 13.2616 11.1634 13.0405 11.0005 12.8776C10.8375 12.7146 10.6165 12.623 10.386 12.623C10.1555 12.623 9.93449 12.7146 9.77152 12.8776C9.60855 13.0405 9.517 13.2616 9.517 13.492V15.23C9.517 18.2889 11.7877 20.8194 14.731 21.2435V22.182H12.124C11.8935 22.182 11.6725 22.2736 11.5095 22.4366C11.3466 22.5995 11.255 22.8206 11.255 23.051C11.255 23.2815 11.3466 23.5025 11.5095 23.6655C11.6725 23.8285 11.8935 23.92 12.124 23.92H19.076C19.3065 23.92 19.5275 23.8285 19.6905 23.6655C19.8534 23.5025 19.945 23.2815 19.945 23.051C19.945 22.8206 19.8534 22.5995 19.6905 22.4366C19.5275 22.2736 19.3065 22.182 19.076 22.182H16.469V21.2435C19.4123 20.8194 21.683 18.2889 21.683 15.23Z" fill="#1E222B"/>
</svg>
