<svg width="32" height="31" viewBox="0 0 32 31" fill="none" xmlns="http://www.w3.org/2000/svg">
<rect y="0.859863" width="31.2" height="29.38" rx="5" fill="white"/>
<path d="M20.4706 8.98346L18.7243 8.06661C17.1909 7.2624 16.4243 6.85986 15.6 6.85986C14.7757 6.85986 14.009 7.26153 12.4757 8.06661L12.1954 8.21418L19.9869 12.6666L23.4936 10.9115C22.9296 10.2723 22.0197 9.79466 20.4706 8.98172M24.1119 12.0676L20.6208 13.814V16.465C20.6208 16.6387 20.5518 16.8052 20.429 16.928C20.3062 17.0509 20.1396 17.1199 19.9659 17.1199C19.7923 17.1199 19.6257 17.0509 19.5029 16.928C19.38 16.8052 19.311 16.6387 19.311 16.465V14.4689L16.2549 15.9969V24.2399C16.8818 24.0836 17.5952 23.7098 18.7243 23.1169L20.4706 22.2001C22.3489 21.2143 23.2884 20.7218 23.8106 19.8355C24.3319 18.9501 24.3319 17.8472 24.3319 15.6442V15.542C24.3319 13.8891 24.3319 12.8552 24.1119 12.0676ZM14.9451 24.2399V15.9969L7.08812 12.0676C6.86807 12.8552 6.86807 13.8891 6.86807 15.5403V15.6424C6.86807 17.8472 6.86807 18.9501 7.38937 19.8355C7.91154 20.7218 8.85109 21.2151 10.7293 22.201L12.4757 23.1169C13.6047 23.7098 14.3181 24.0836 14.9451 24.2399ZM7.70634 10.9123L15.6 14.8592L18.5784 13.3704L10.8193 8.93631L10.7293 8.98346C9.18116 9.79553 8.27042 10.2732 7.70634 10.9132" fill="#1E222B"/>
</svg>
