<svg width="32" height="30" viewBox="0 0 32 30" fill="none" xmlns="http://www.w3.org/2000/svg">
<rect y="0.47998" width="31.2" height="29.38" rx="5" fill="#1E222B"/>
<path d="M20.4706 8.60358L18.7243 7.68673C17.1909 6.88252 16.4243 6.47998 15.6 6.47998C14.7757 6.47998 14.009 6.88165 12.4757 7.68673L12.1954 7.8343L19.9869 12.2867L23.4936 10.5316C22.9296 9.89241 22.0197 9.41478 20.4706 8.60184M24.1119 11.6877L20.6208 13.4341V16.0851C20.6208 16.2588 20.5518 16.4253 20.429 16.5482C20.3062 16.671 20.1396 16.74 19.9659 16.74C19.7923 16.74 19.6257 16.671 19.5029 16.5482C19.38 16.4253 19.311 16.2588 19.311 16.0851V14.089L16.2549 15.6171V23.86C16.8818 23.7037 17.5952 23.33 18.7243 22.7371L20.4706 21.8202C22.3489 20.8344 23.2884 20.3419 23.8106 19.4556C24.3319 18.5702 24.3319 17.4673 24.3319 15.2643V15.1621C24.3319 13.5092 24.3319 12.4753 24.1119 11.6877ZM14.9451 23.86V15.6171L7.08812 11.6877C6.86807 12.4753 6.86807 13.5092 6.86807 15.1604V15.2625C6.86807 17.4673 6.86807 18.5702 7.38937 19.4556C7.91154 20.3419 8.85109 20.8352 10.7293 21.8211L12.4757 22.7371C13.6047 23.33 14.3181 23.7037 14.9451 23.86ZM7.70634 10.5325L15.6 14.4793L18.5784 12.9905L10.8193 8.55643L10.7293 8.60358C9.18116 9.41565 8.27042 9.89329 7.70634 10.5333" fill="white"/>
</svg>
