<svg width="32" height="31" viewBox="0 0 32 31" fill="none" xmlns="http://www.w3.org/2000/svg">
<rect y="0.899902" width="31.2" height="29.38" rx="5" fill="white"/>
<path d="M24.0377 22.7933L22.8037 24.0272C22.6409 24.1891 22.4207 24.2799 22.1911 24.2799C21.9615 24.2799 21.7413 24.1891 21.5785 24.0272L11.2552 13.7213C10.9726 13.8032 10.6804 13.8471 10.3862 13.8516C9.83295 13.8512 9.28777 13.7188 8.796 13.4653C8.30424 13.2117 7.88009 12.8445 7.55883 12.394C7.23757 11.9436 7.02848 11.423 6.94894 10.8755C6.86941 10.3279 6.92172 9.76934 7.10153 9.24611L9.3087 11.4533L9.76925 10.9927L11.0032 9.7588L11.4637 9.29825L9.25656 7.09107C9.7798 6.91126 10.3384 6.85895 10.8859 6.93849C11.4334 7.01803 11.9541 7.22712 12.4045 7.54838C12.8549 7.86964 13.2222 8.29378 13.4757 8.78555C13.7292 9.27732 13.8617 9.8225 13.8621 10.3758C13.8575 10.6699 13.8137 10.9622 13.7317 11.2447L24.0377 21.568C24.1995 21.7309 24.2904 21.9511 24.2904 22.1807C24.2904 22.4102 24.1995 22.6305 24.0377 22.7933ZM7.16236 21.568C7.00051 21.7309 6.90967 21.9511 6.90967 22.1807C6.90967 22.4102 7.00051 22.6305 7.16236 22.7933L8.39629 24.0272C8.5591 24.1891 8.77934 24.2799 9.00891 24.2799C9.23848 24.2799 9.45872 24.1891 9.62153 24.0272L14.3748 19.2827L11.9156 16.8235M22.5517 6.8999L19.0759 8.63783V10.3758L17.1902 12.2614L18.9281 13.9994L20.8138 12.1137H22.5517L24.2897 8.63783L22.5517 6.8999Z" fill="#1E222B"/>
</svg>
