<svg width="32" height="30" viewBox="0 0 32 30" fill="none" xmlns="http://www.w3.org/2000/svg">
<rect y="0.52002" width="31.2" height="29.38" rx="5" fill="#1E222B"/>
<path d="M24.0377 22.4134L22.8037 23.6473C22.6409 23.8092 22.4207 23.9 22.1911 23.9C21.9615 23.9 21.7413 23.8092 21.5785 23.6473L11.2552 13.3414C10.9726 13.4234 10.6804 13.4672 10.3862 13.4717C9.83295 13.4713 9.28777 13.3389 8.796 13.0854C8.30424 12.8319 7.88009 12.4646 7.55883 12.0142C7.23757 11.5637 7.02848 11.0431 6.94894 10.4956C6.86941 9.94806 6.92172 9.38946 7.10153 8.86623L9.3087 11.0734L9.76925 10.6128L11.0032 9.37892L11.4637 8.91836L9.25656 6.71119C9.7798 6.53138 10.3384 6.47907 10.8859 6.55861C11.4334 6.63815 11.9541 6.84724 12.4045 7.1685C12.8549 7.48975 13.2222 7.9139 13.4757 8.40567C13.7292 8.89743 13.8617 9.44261 13.8621 9.99588C13.8575 10.2901 13.8137 10.5823 13.7317 10.8648L24.0377 21.1882C24.1995 21.351 24.2904 21.5712 24.2904 21.8008C24.2904 22.0303 24.1995 22.2506 24.0377 22.4134ZM7.16236 21.1882C7.00051 21.351 6.90967 21.5712 6.90967 21.8008C6.90967 22.0303 7.00051 22.2506 7.16236 22.4134L8.39629 23.6473C8.5591 23.8092 8.77934 23.9 9.00891 23.9C9.23848 23.9 9.45872 23.8092 9.62153 23.6473L14.3748 18.9028L11.9156 16.4436M22.5517 6.52002L19.0759 8.25795V9.99588L17.1902 11.8815L18.9281 13.6195L20.8138 11.7338H22.5517L24.2897 8.25795L22.5517 6.52002Z" fill="white"/>
</svg>
