<svg width="32" height="30" viewBox="0 0 32 30" fill="none" xmlns="http://www.w3.org/2000/svg">
<rect y="0.0200195" width="31.2" height="29.38" rx="5" fill="white"/>
<path d="M7.99185 17.656C7.51447 17.656 7.09677 17.477 6.73874 17.119C6.38071 16.761 6.20169 16.3432 6.20169 15.8659V14.0757C6.20169 13.9713 6.21273 13.8594 6.23481 13.7401C6.25689 13.6207 6.2906 13.5088 6.33595 13.4044L9.02119 7.09411C9.15545 6.79575 9.37922 6.54215 9.69249 6.3333C10.0058 6.12445 10.334 6.02002 10.6771 6.02002H17.8377C18.33 6.02002 18.7516 6.19516 19.1024 6.54543C19.4533 6.8957 19.6285 7.31729 19.6279 7.81018V16.9176C19.6279 17.1563 19.5795 17.3839 19.4829 17.6005C19.3862 17.8171 19.2555 18.0072 19.0908 18.1707L14.235 23.0041C14.0112 23.213 13.7466 23.3398 13.4411 23.3845C13.1356 23.4293 12.8408 23.3771 12.5567 23.2279C12.2727 23.0787 12.0677 22.8699 11.9418 22.6013C11.8159 22.3328 11.7897 22.0568 11.8631 21.7734L12.87 17.656H7.99185ZM23.2082 6.02002C23.7005 6.02002 24.122 6.19545 24.4729 6.54633C24.8238 6.8972 24.9989 7.31848 24.9983 7.81018V15.8659C24.9983 16.3582 24.8232 16.7797 24.4729 17.1306C24.1226 17.4815 23.7011 17.6566 23.2082 17.656C22.7153 17.6554 22.294 17.4803 21.9443 17.1306C21.5946 16.7809 21.4192 16.3594 21.418 15.8659V7.81018C21.418 7.31788 21.5934 6.8966 21.9443 6.54633C22.2952 6.19605 22.7165 6.02062 23.2082 6.02002Z" fill="#1E222B"/>
</svg>
