<svg width="32" height="31" viewBox="0 0 32 31" fill="none" xmlns="http://www.w3.org/2000/svg">
<rect y="0.640137" width="31.2" height="29.38" rx="5" fill="#1E222B"/>
<path d="M7.99185 18.2761C7.51447 18.2761 7.09677 18.0971 6.73874 17.7391C6.38071 17.3811 6.20169 16.9634 6.20169 16.486V14.6958C6.20169 14.5914 6.21273 14.4795 6.23481 14.3602C6.25689 14.2408 6.2906 14.129 6.33595 14.0245L9.02119 7.71423C9.15545 7.41587 9.37922 7.16227 9.69249 6.95341C10.0058 6.74456 10.334 6.64014 10.6771 6.64014H17.8377C18.33 6.64014 18.7516 6.81527 19.1024 7.16555C19.4533 7.51582 19.6285 7.9374 19.6279 8.43029V17.5377C19.6279 17.7764 19.5795 18.004 19.4829 18.2207C19.3862 18.4373 19.2555 18.6273 19.0908 18.7908L14.235 23.6242C14.0112 23.8331 13.7466 23.9599 13.4411 24.0046C13.1356 24.0494 12.8408 23.9972 12.5567 23.848C12.2727 23.6988 12.0677 23.49 11.9418 23.2215C11.8159 22.9529 11.7897 22.6769 11.8631 22.3935L12.87 18.2761H7.99185ZM23.2082 6.64014C23.7005 6.64014 24.122 6.81557 24.4729 7.16644C24.8238 7.51731 24.9989 7.9386 24.9983 8.43029V16.486C24.9983 16.9783 24.8232 17.3999 24.4729 17.7507C24.1226 18.1016 23.7011 18.2767 23.2082 18.2761C22.7153 18.2756 22.294 18.1004 21.9443 17.7507C21.5946 17.4011 21.4192 16.9795 21.418 16.486V8.43029C21.418 7.938 21.5934 7.51672 21.9443 7.16644C22.2952 6.81617 22.7165 6.64073 23.2082 6.64014Z" fill="white"/>
</svg>
