<svg width="32" height="30" viewBox="0 0 32 30" fill="none" xmlns="http://www.w3.org/2000/svg">
<rect y="0.579834" width="31.2" height="29.38" rx="5" fill="white"/>
<path d="M26.2211 6.57983H7.55371C7.02044 6.57983 6.58815 7.06616 6.58815 7.66608V8.02817H4.97889C4.44562 8.02817 4.01334 8.51449 4.01334 9.11442V21.4253C4.01334 22.8251 5.02202 23.9598 6.2663 23.9598H25.2556C26.3221 23.9598 27.1867 22.9872 27.1867 21.7873V7.66608C27.1867 7.06616 26.7544 6.57983 26.2211 6.57983ZM6.2663 21.7873C6.18094 21.7873 6.09907 21.7492 6.03872 21.6813C5.97836 21.6134 5.94445 21.5213 5.94445 21.4253V10.2007H6.58815V21.4253C6.58815 21.5213 6.55424 21.6134 6.49388 21.6813C6.43352 21.7492 6.35166 21.7873 6.2663 21.7873ZM15.7609 21.0632H9.64574C9.37913 21.0632 9.16297 20.82 9.16297 20.52V20.158C9.16297 19.858 9.37913 19.6148 9.64574 19.6148H15.7609C16.0275 19.6148 16.2437 19.858 16.2437 20.158V20.52C16.2437 20.82 16.0275 21.0632 15.7609 21.0632ZM24.1291 21.0632H18.0139C17.7473 21.0632 17.5311 20.82 17.5311 20.52V20.158C17.5311 19.858 17.7473 19.6148 18.0139 19.6148H24.1291C24.3957 19.6148 24.6119 19.858 24.6119 20.158V20.52C24.6119 20.82 24.3957 21.0632 24.1291 21.0632ZM15.7609 16.7182H9.64574C9.37913 16.7182 9.16297 16.475 9.16297 16.175V15.813C9.16297 15.513 9.37913 15.2698 9.64574 15.2698H15.7609C16.0275 15.2698 16.2437 15.513 16.2437 15.813V16.175C16.2437 16.475 16.0275 16.7182 15.7609 16.7182ZM24.1291 16.7182H18.0139C17.7473 16.7182 17.5311 16.475 17.5311 16.175V15.813C17.5311 15.513 17.7473 15.2698 18.0139 15.2698H24.1291C24.3957 15.2698 24.6119 15.513 24.6119 15.813V16.175C24.6119 16.475 24.3957 16.7182 24.1291 16.7182ZM24.1291 12.3732H9.64574C9.37913 12.3732 9.16297 12.13 9.16297 11.83V10.0196C9.16297 9.71968 9.37913 9.4765 9.64574 9.4765H24.1291C24.3957 9.4765 24.6119 9.71968 24.6119 10.0196V11.83C24.6119 12.13 24.3957 12.3732 24.1291 12.3732Z" fill="#1E222B"/>
</svg>
