<svg width="32" height="30" viewBox="0 0 32 30" fill="none" xmlns="http://www.w3.org/2000/svg">
<rect y="0.199951" width="31.2" height="29.38" rx="5" fill="#1E222B"/>
<path d="M26.2211 6.19995H7.55371C7.02044 6.19995 6.58815 6.68627 6.58815 7.2862V7.64828H4.97889C4.44562 7.64828 4.01334 8.13461 4.01334 8.73453V21.0454C4.01334 22.4452 5.02202 23.58 6.2663 23.58H25.2556C26.3221 23.58 27.1867 22.6073 27.1867 21.4075V7.2862C27.1867 6.68627 26.7544 6.19995 26.2211 6.19995ZM6.2663 21.4075C6.18094 21.4075 6.09907 21.3693 6.03872 21.3014C5.97836 21.2335 5.94445 21.1414 5.94445 21.0454V9.82078H6.58815V21.0454C6.58815 21.1414 6.55424 21.2335 6.49388 21.3014C6.43352 21.3693 6.35166 21.4075 6.2663 21.4075ZM15.7609 20.6833H9.64574C9.37913 20.6833 9.16297 20.4401 9.16297 20.1402V19.7781C9.16297 19.4781 9.37913 19.235 9.64574 19.235H15.7609C16.0275 19.235 16.2437 19.4781 16.2437 19.7781V20.1402C16.2437 20.4401 16.0275 20.6833 15.7609 20.6833ZM24.1291 20.6833H18.0139C17.7473 20.6833 17.5311 20.4401 17.5311 20.1402V19.7781C17.5311 19.4781 17.7473 19.235 18.0139 19.235H24.1291C24.3957 19.235 24.6119 19.4781 24.6119 19.7781V20.1402C24.6119 20.4401 24.3957 20.6833 24.1291 20.6833ZM15.7609 16.3383H9.64574C9.37913 16.3383 9.16297 16.0951 9.16297 15.7952V15.4331C9.16297 15.1331 9.37913 14.89 9.64574 14.89H15.7609C16.0275 14.89 16.2437 15.1331 16.2437 15.4331V15.7952C16.2437 16.0951 16.0275 16.3383 15.7609 16.3383ZM24.1291 16.3383H18.0139C17.7473 16.3383 17.5311 16.0951 17.5311 15.7952V15.4331C17.5311 15.1331 17.7473 14.89 18.0139 14.89H24.1291C24.3957 14.89 24.6119 15.1331 24.6119 15.4331V15.7952C24.6119 16.0951 24.3957 16.3383 24.1291 16.3383ZM24.1291 11.9933H9.64574C9.37913 11.9933 9.16297 11.7501 9.16297 11.4502V9.63974C9.16297 9.3398 9.37913 9.09662 9.64574 9.09662H24.1291C24.3957 9.09662 24.6119 9.3398 24.6119 9.63974V11.4502C24.6119 11.7501 24.3957 11.9933 24.1291 11.9933Z" fill="white"/>
</svg>
