<svg width="32" height="31" viewBox="0 0 32 31" fill="none" xmlns="http://www.w3.org/2000/svg">
<rect y="0.759766" width="31.2" height="29.38" rx="5" fill="#1E222B"/>
<path d="M24.4903 8.33582L23.1966 7.04215C22.8394 6.66564 22.2119 6.66564 21.8354 7.04215L13.1852 15.6923L15.8401 18.3472L24.4903 9.69706C24.8668 9.32055 24.8668 8.69302 24.4903 8.33582ZM11.2544 17.3818C10.4862 17.3818 9.74957 17.687 9.20642 18.2301C8.66326 18.7733 8.35812 19.5099 8.35812 20.2781C8.35812 21.5428 7.23823 22.2089 6.42728 22.2089C7.31546 23.3867 8.84083 24.1398 10.289 24.1398C11.3131 24.1398 12.2954 23.7329 13.0196 23.0087C13.7438 22.2845 14.1506 21.3023 14.1506 20.2781C14.1506 19.5099 13.8455 18.7733 13.3024 18.2301C12.7592 17.687 12.0225 17.3818 11.2544 17.3818Z" fill="white"/>
</svg>
