<svg width="32" height="30" viewBox="0 0 32 30" fill="none" xmlns="http://www.w3.org/2000/svg">
<rect y="0.139648" width="31.2" height="29.38" rx="5" fill="white"/>
<path d="M24.4903 7.7157L23.1966 6.42203C22.8394 6.04552 22.2119 6.04552 21.8354 6.42203L13.1852 15.0722L15.8401 17.7271L24.4903 9.07694C24.8668 8.70043 24.8668 8.0729 24.4903 7.7157ZM11.2544 16.7617C10.4862 16.7617 9.74957 17.0668 9.20642 17.61C8.66326 18.1531 8.35812 18.8898 8.35812 19.658C8.35812 20.9227 7.23823 21.5888 6.42728 21.5888C7.31546 22.7666 8.84083 23.5196 10.289 23.5196C11.3131 23.5196 12.2954 23.1128 13.0196 22.3886C13.7438 21.6644 14.1506 20.6821 14.1506 19.658C14.1506 18.8898 13.8455 18.1531 13.3024 17.61C12.7592 17.0668 12.0225 16.7617 11.2544 16.7617Z" fill="#1E222B"/>
</svg>
