<svg width="32" height="30" viewBox="0 0 32 30" fill="none" xmlns="http://www.w3.org/2000/svg">
<rect y="0.280029" width="31.2" height="29.38" rx="5" fill="#1E222B"/>
<path d="M15.6 23.66C14.3979 23.66 13.2682 23.4318 12.2109 22.9753C11.1536 22.5187 10.2339 21.8997 9.45183 21.1182C8.66973 20.3367 8.05071 19.417 7.59478 18.3591C7.13884 17.3013 6.91058 16.1716 6.91 14.97C6.90943 13.7685 7.13768 12.6388 7.59478 11.5809C8.05187 10.5231 8.67089 9.60337 9.45183 8.82185C10.2328 8.04033 11.1525 7.42132 12.2109 6.9648C13.2693 6.50829 14.399 6.28003 15.6 6.28003C16.801 6.28003 17.9307 6.50829 18.9891 6.9648C20.0475 7.42132 20.9672 8.04033 21.7482 8.82185C22.5291 9.60337 23.1484 10.5231 23.6061 11.5809C24.0638 12.6388 24.2917 13.7685 24.29 14.97C24.2883 16.1716 24.06 17.3013 23.6052 18.3591C23.1505 19.417 22.5314 20.3367 21.7482 21.1182C20.9649 21.8997 20.0452 22.519 18.9891 22.9761C17.933 23.4332 16.8033 23.6612 15.6 23.66ZM13.4275 16.2735C14.2675 16.2735 14.9845 15.9766 15.5783 15.3828C16.1721 14.789 16.469 14.0721 16.469 13.232C16.469 12.392 16.1721 11.6751 15.5783 11.0813C14.9845 10.4874 14.2675 10.1905 13.4275 10.1905C12.5875 10.1905 11.8705 10.4874 11.2767 11.0813C10.6829 11.6751 10.386 12.392 10.386 13.232C10.386 14.0721 10.6829 14.789 11.2767 15.3828C11.8705 15.9766 12.5875 16.2735 13.4275 16.2735ZM19.5105 17.1425C20.1188 17.1425 20.633 16.9325 21.053 16.5125C21.473 16.0925 21.683 15.5783 21.683 14.97C21.683 14.3617 21.473 13.8476 21.053 13.4276C20.633 13.0075 20.1188 12.7975 19.5105 12.7975C18.9022 12.7975 18.388 13.0075 17.968 13.4276C17.548 13.8476 17.338 14.3617 17.338 14.97C17.338 15.5783 17.548 16.0925 17.968 16.5125C18.388 16.9325 18.9022 17.1425 19.5105 17.1425ZM15.6 21.922C16.8311 21.922 17.9535 21.6324 18.9674 21.053C19.9812 20.4737 20.7995 19.7061 21.4223 18.7502C21.1182 18.6633 20.8068 18.5909 20.4881 18.5329C20.1695 18.475 19.8436 18.446 19.5105 18.446C18.7429 18.446 17.816 18.6705 16.7297 19.1195C15.6435 19.5685 14.7745 20.452 14.1227 21.7699C14.3689 21.8279 14.6151 21.8679 14.8614 21.8899C15.1076 21.9119 15.3538 21.9226 15.6 21.922ZM12.8409 21.3572C13.3478 20.3144 13.9237 19.5395 14.5685 19.0326C15.2133 18.5257 15.702 18.1853 16.0345 18.0115C15.6145 17.8812 15.1907 17.7763 14.7632 17.6969C14.3356 17.6176 13.8904 17.5776 13.4275 17.577C12.7758 17.577 12.1312 17.6567 11.494 17.816C10.8567 17.9753 10.2412 18.1998 9.64735 18.4895C10.0239 19.1123 10.4839 19.6736 11.0273 20.1736C11.5707 20.6736 12.1753 21.0681 12.8409 21.3572Z" fill="white"/>
</svg>
