<svg width="32" height="31" viewBox="0 0 32 31" fill="none" xmlns="http://www.w3.org/2000/svg">
<rect y="0.660034" width="31.2" height="29.38" rx="5" fill="white"/>
<path d="M15.6 24.04C14.3979 24.04 13.2682 23.8118 12.2109 23.3553C11.1536 22.8987 10.2339 22.2797 9.45183 21.4982C8.66973 20.7167 8.05071 19.797 7.59478 18.7391C7.13884 17.6813 6.91058 16.5516 6.91 15.35C6.90943 14.1485 7.13768 13.0188 7.59478 11.9609C8.05187 10.9031 8.67089 9.98338 9.45183 9.20186C10.2328 8.42034 11.1525 7.80132 12.2109 7.34481C13.2693 6.88829 14.399 6.66003 15.6 6.66003C16.801 6.66003 17.9307 6.88829 18.9891 7.34481C20.0475 7.80132 20.9672 8.42034 21.7482 9.20186C22.5291 9.98338 23.1484 10.9031 23.6061 11.9609C24.0638 13.0188 24.2917 14.1485 24.29 15.35C24.2883 16.5516 24.06 17.6813 23.6052 18.7391C23.1505 19.797 22.5314 20.7167 21.7482 21.4982C20.9649 22.2797 20.0452 22.899 18.9891 23.3561C17.933 23.8132 16.8033 24.0412 15.6 24.04ZM13.4275 16.6535C14.2675 16.6535 14.9845 16.3566 15.5783 15.7628C16.1721 15.169 16.469 14.4521 16.469 13.612C16.469 12.772 16.1721 12.0551 15.5783 11.4613C14.9845 10.8674 14.2675 10.5705 13.4275 10.5705C12.5875 10.5705 11.8705 10.8674 11.2767 11.4613C10.6829 12.0551 10.386 12.772 10.386 13.612C10.386 14.4521 10.6829 15.169 11.2767 15.7628C11.8705 16.3566 12.5875 16.6535 13.4275 16.6535ZM19.5105 17.5225C20.1188 17.5225 20.633 17.3125 21.053 16.8925C21.473 16.4725 21.683 15.9583 21.683 15.35C21.683 14.7417 21.473 14.2276 21.053 13.8076C20.633 13.3875 20.1188 13.1775 19.5105 13.1775C18.9022 13.1775 18.388 13.3875 17.968 13.8076C17.548 14.2276 17.338 14.7417 17.338 15.35C17.338 15.9583 17.548 16.4725 17.968 16.8925C18.388 17.3125 18.9022 17.5225 19.5105 17.5225ZM15.6 22.302C16.8311 22.302 17.9535 22.0124 18.9674 21.433C19.9812 20.8537 20.7995 20.0861 21.4223 19.1302C21.1182 19.0433 20.8068 18.9709 20.4881 18.9129C20.1695 18.855 19.8436 18.826 19.5105 18.826C18.7429 18.826 17.816 19.0505 16.7297 19.4995C15.6435 19.9485 14.7745 20.832 14.1227 22.15C14.3689 22.2079 14.6151 22.2479 14.8614 22.2699C15.1076 22.2919 15.3538 22.3026 15.6 22.302ZM12.8409 21.7372C13.3478 20.6944 13.9237 19.9195 14.5685 19.4126C15.2133 18.9057 15.702 18.5653 16.0345 18.3915C15.6145 18.2612 15.1907 18.1563 14.7632 18.077C14.3356 17.9976 13.8904 17.9576 13.4275 17.957C12.7758 17.957 12.1312 18.0367 11.494 18.196C10.8567 18.3553 10.2412 18.5798 9.64735 18.8695C10.0239 19.4923 10.4839 20.0536 11.0273 20.5536C11.5707 21.0536 12.1753 21.4481 12.8409 21.7372Z" fill="#1E222B"/>
</svg>
