<svg width="32" height="31" viewBox="0 0 32 31" fill="none" xmlns="http://www.w3.org/2000/svg">
<rect y="0.900024" width="31.2" height="29.38" rx="5" fill="white"/>
<path d="M10.386 17.328H13.0582L17.3815 12.983C17.5118 12.8527 17.6097 12.7041 17.6752 12.5372C17.7406 12.3704 17.7731 12.2076 17.7725 12.0488C17.7719 11.8901 17.7395 11.7346 17.6752 11.5822C17.6109 11.4298 17.5202 11.2885 17.4032 11.1581L16.5994 10.3326C16.469 10.2022 16.3242 10.1046 16.1649 10.0397C16.0055 9.97484 15.839 9.9421 15.6652 9.94152C15.5059 9.94152 15.3465 9.97426 15.1872 10.0397C15.0279 10.1052 14.8831 10.2028 14.7527 10.3326L10.386 14.6558V17.328ZM15.6435 12.8961L14.8179 12.0923L15.6652 11.245L16.469 12.0706L15.6435 12.8961ZM14.9048 17.328H20.814V15.59H16.6428L14.9048 17.328ZM6.91 24.28V8.63802C6.91 8.16007 7.08033 7.75107 7.42098 7.411C7.76162 7.07093 8.17063 6.9006 8.648 6.90002H22.552C23.03 6.90002 23.4393 7.07035 23.7799 7.411C24.1205 7.75164 24.2906 8.16065 24.29 8.63802V19.066C24.29 19.544 24.12 19.9533 23.7799 20.2939C23.4398 20.6346 23.0305 20.8046 22.552 20.804H10.386L6.91 24.28Z" fill="#1E222B"/>
</svg>
