<svg width="32" height="30" viewBox="0 0 32 30" fill="none" xmlns="http://www.w3.org/2000/svg">
<rect y="0.52002" width="31.2" height="29.38" rx="5" fill="#1E222B"/>
<path d="M10.386 16.948H13.0582L17.3815 12.603C17.5118 12.4727 17.6097 12.3241 17.6752 12.1572C17.7406 11.9904 17.7731 11.8276 17.7725 11.6688C17.7719 11.5101 17.7395 11.3546 17.6752 11.2022C17.6109 11.0498 17.5202 10.9085 17.4032 10.7781L16.5994 9.95257C16.469 9.82222 16.3242 9.7246 16.1649 9.65972C16.0055 9.59483 15.839 9.5621 15.6652 9.56152C15.5059 9.56152 15.3465 9.59425 15.1872 9.65972C15.0279 9.72518 14.8831 9.8228 14.7527 9.95257L10.386 14.2758V16.948ZM15.6435 12.5161L14.8179 11.7123L15.6652 10.865L16.469 11.6906L15.6435 12.5161ZM14.9048 16.948H20.814V15.21H16.6428L14.9048 16.948ZM6.91 23.9V8.25802C6.91 7.78007 7.08033 7.37106 7.42098 7.03099C7.76162 6.69092 8.17063 6.5206 8.648 6.52002H22.552C23.03 6.52002 23.4393 6.69034 23.7799 7.03099C24.1205 7.37164 24.2906 7.78065 24.29 8.25802V18.686C24.29 19.164 24.12 19.5733 23.7799 19.9139C23.4398 20.2546 23.0305 20.4246 22.552 20.424H10.386L6.91 23.9Z" fill="white"/>
</svg>
