<svg width="32" height="30" viewBox="0 0 32 30" fill="none" xmlns="http://www.w3.org/2000/svg">
<rect y="0.359863" width="31.2" height="29.38" rx="5" fill="#1E222B"/>
<path d="M15.3791 23.7399C15.1324 23.7399 14.9156 23.6558 14.7286 23.4877C14.5417 23.321 14.4483 23.1011 14.4483 22.8282C14.4483 22.6977 14.4768 22.5532 14.534 22.3945C14.5911 22.2358 14.6765 22.0997 14.7902 21.986L18.5046 18.2726L17.9479 17.7159L14.2395 21.4293C14.1252 21.5436 13.9964 21.629 13.8532 21.6855C13.71 21.7426 13.5645 21.7712 13.4165 21.7712C13.157 21.7712 12.9368 21.6808 12.756 21.4999C12.5751 21.3191 12.485 21.0992 12.4857 20.8403C12.4857 20.685 12.5173 20.5334 12.5805 20.3855C12.6443 20.2376 12.7247 20.1149 12.8215 20.0174L16.5359 16.304L15.9843 15.7523L12.2708 19.4617C12.17 19.5625 12.0446 19.6449 11.8947 19.7088C11.7447 19.7726 11.5941 19.8042 11.4428 19.8036C11.1867 19.8036 10.9675 19.7125 10.7853 19.5303C10.6031 19.3481 10.512 19.1289 10.512 18.8727C10.512 18.7248 10.5402 18.5792 10.5967 18.436C10.6532 18.2928 10.7386 18.164 10.8529 18.0497L14.3343 14.5683L13.7776 14.0176L10.3022 17.4991C10.2054 17.5959 10.082 17.6762 9.93207 17.7401C9.78146 17.8033 9.62883 17.8349 9.47419 17.8349C9.20122 17.8349 8.97766 17.7478 8.80352 17.5737C8.63005 17.4002 8.54332 17.177 8.54332 16.904C8.54332 16.7561 8.57156 16.6106 8.62804 16.4674C8.68519 16.3241 8.77058 16.1954 8.8842 16.0811L13.8663 11.0989L16.0387 13.2774C16.2236 13.4623 16.4324 13.593 16.665 13.6697C16.8983 13.747 17.1343 13.7857 17.373 13.7857C17.8591 13.7857 18.2652 13.6257 18.5913 13.3056C18.9174 12.9856 19.0804 12.5764 19.0804 12.0782C19.0804 11.8429 19.0351 11.6056 18.9443 11.3662C18.8535 11.1275 18.712 10.9117 18.5197 10.7187L15.8491 8.04814L16.8375 7.05978C17.0593 6.84194 17.3273 6.6715 17.6413 6.54846C17.9553 6.42475 18.2692 6.36289 18.5832 6.36289C18.9174 6.36289 19.2435 6.42475 19.5615 6.54846C19.8795 6.6715 20.1508 6.84564 20.3754 7.07088L24.6959 11.3934C24.9077 11.6059 25.0755 11.8648 25.1992 12.17C25.3229 12.4746 25.3848 12.8124 25.3848 13.1836C25.3848 13.5198 25.3219 13.8374 25.1962 14.1366C25.0711 14.4358 24.9044 14.6896 24.6959 14.8981L16.2031 23.397C16.0942 23.5059 15.9664 23.5899 15.8199 23.6491C15.6746 23.7089 15.5281 23.7389 15.3801 23.7389M7.72137 16.1355L6.67754 15.0917C6.39179 14.81 6.17664 14.4715 6.03208 14.0761C5.88752 13.6801 5.81525 13.2935 5.81525 12.9163C5.81525 12.5183 5.87979 12.1569 6.00888 11.8321C6.13798 11.5074 6.3027 11.2448 6.50306 11.0445L10.4736 7.06886C10.6908 6.85169 10.9329 6.67923 11.1998 6.55148C11.4654 6.42374 11.7555 6.35986 12.0702 6.35986C12.4077 6.35986 12.717 6.42004 12.998 6.54039C13.2804 6.66007 13.5379 6.83623 13.7705 7.06886L17.9701 11.2674C18.0709 11.3682 18.1529 11.4936 18.2161 11.6436C18.2793 11.7935 18.3109 11.9357 18.3109 12.0702C18.3109 12.3391 18.2232 12.565 18.0477 12.7479C17.8716 12.9294 17.649 13.0202 17.3801 13.0202C17.2288 13.0202 17.0832 12.993 16.9434 12.9385C16.8042 12.8834 16.6758 12.797 16.5581 12.6793L13.8613 9.99561L7.72137 16.1355Z" fill="white"/>
</svg>
