<svg width="32" height="31" viewBox="0 0 32 31" fill="none" xmlns="http://www.w3.org/2000/svg">
<rect y="0.739746" width="31.2" height="29.38" rx="5" fill="white"/>
<path d="M15.3791 24.1197C15.1324 24.1197 14.9156 24.0357 14.7286 23.8676C14.5417 23.7009 14.4483 23.481 14.4483 23.208C14.4483 23.0776 14.4768 22.933 14.534 22.7744C14.5911 22.6157 14.6765 22.4795 14.7902 22.3659L18.5046 18.6525L17.9479 18.0958L14.2395 21.8092C14.1252 21.9235 13.9964 22.0089 13.8532 22.0654C13.71 22.1225 13.5645 22.1511 13.4165 22.1511C13.157 22.1511 12.9368 22.0607 12.756 21.8798C12.5751 21.6989 12.485 21.4791 12.4857 21.2202C12.4857 21.0649 12.5173 20.9133 12.5805 20.7654C12.6443 20.6175 12.7247 20.4948 12.8215 20.3973L16.5359 16.6839L15.9843 16.1322L12.2708 19.8416C12.17 19.9424 12.0446 20.0248 11.8947 20.0887C11.7447 20.1525 11.5941 20.1841 11.4428 20.1835C11.1867 20.1835 10.9675 20.0923 10.7853 19.9101C10.6031 19.7279 10.512 19.5087 10.512 19.2526C10.512 19.1047 10.5402 18.9591 10.5967 18.8159C10.6532 18.6727 10.7386 18.5439 10.8529 18.4296L14.3343 14.9482L13.7776 14.3975L10.3022 17.879C10.2054 17.9758 10.082 18.0561 9.93207 18.12C9.78146 18.1832 9.62883 18.2148 9.47419 18.2148C9.20122 18.2148 8.97766 18.1277 8.80352 17.9536C8.63005 17.7801 8.54332 17.5569 8.54332 17.2839C8.54332 17.136 8.57156 16.9904 8.62804 16.8472C8.68519 16.704 8.77058 16.5753 8.8842 16.461L13.8663 11.4788L16.0387 13.6573C16.2236 13.8422 16.4324 13.9729 16.665 14.0496C16.8983 14.1269 17.1343 14.1656 17.373 14.1656C17.8591 14.1656 18.2652 14.0055 18.5913 13.6855C18.9174 13.3655 19.0804 12.9563 19.0804 12.4581C19.0804 12.2228 19.0351 11.9854 18.9443 11.7461C18.8535 11.5074 18.712 11.2916 18.5197 11.0986L15.8491 8.42803L16.8375 7.43967C17.0593 7.22182 17.3273 7.05138 17.6413 6.92834C17.9553 6.80463 18.2692 6.74277 18.5832 6.74277C18.9174 6.74277 19.2435 6.80463 19.5615 6.92834C19.8795 7.05138 20.1508 7.22552 20.3754 7.45076L24.6959 11.7733C24.9077 11.9858 25.0755 12.2446 25.1992 12.5499C25.3229 12.8545 25.3848 13.1923 25.3848 13.5635C25.3848 13.8996 25.3219 14.2173 25.1962 14.5165C25.0711 14.8157 24.9044 15.0695 24.6959 15.278L16.2031 23.7768C16.0942 23.8858 15.9664 23.9698 15.8199 24.029C15.6746 24.0888 15.5281 24.1187 15.3801 24.1187M7.72137 16.5154L6.67754 15.4716C6.39179 15.1899 6.17664 14.8514 6.03208 14.456C5.88752 14.06 5.81525 13.6734 5.81525 13.2962C5.81525 12.8982 5.87979 12.5368 6.00888 12.212C6.13798 11.8873 6.3027 11.6247 6.50306 11.4244L10.4736 7.44874C10.6908 7.23157 10.9329 7.05911 11.1998 6.93137C11.4654 6.80362 11.7555 6.73975 12.0702 6.73975C12.4077 6.73975 12.717 6.79992 12.998 6.92027C13.2804 7.03995 13.5379 7.21611 13.7705 7.44874L17.9701 11.6473C18.0709 11.7481 18.1529 11.8735 18.2161 12.0234C18.2793 12.1734 18.3109 12.3156 18.3109 12.45C18.3109 12.719 18.2232 12.9449 18.0477 13.1278C17.8716 13.3093 17.649 13.4001 17.3801 13.4001C17.2288 13.4001 17.0832 13.3728 16.9434 13.3184C16.8042 13.2633 16.6758 13.1769 16.5581 13.0592L13.8613 10.3755L7.72137 16.5154Z" fill="#1E222B"/>
</svg>
