<svg width="32" height="31" viewBox="0 0 32 31" fill="none" xmlns="http://www.w3.org/2000/svg">
<rect y="0.879883" width="31.2" height="29.38" rx="5" fill="#1E222B"/>
<path d="M23.2082 12.6239C23.6855 12.6239 24.1032 12.8029 24.4613 13.1609C24.8193 13.5189 24.9983 13.9367 24.9983 14.414V16.2042C24.9983 16.3086 24.987 16.4205 24.9643 16.5398C24.9416 16.6592 24.9082 16.7711 24.8641 16.8755L22.1788 23.1858C22.0446 23.4841 21.8208 23.7378 21.5075 23.9466C21.1942 24.1555 20.866 24.2599 20.5229 24.2599H13.3623C12.87 24.2599 12.4487 24.0847 12.0985 23.7345C11.7482 23.3842 11.5728 22.9626 11.5722 22.4697V13.3623C11.5722 13.1236 11.6208 12.8963 11.7181 12.6803C11.8153 12.4642 11.9457 12.2739 12.1092 12.1092L16.965 7.27578C17.1888 7.06693 17.4537 6.94013 17.7598 6.89537C18.0659 6.85062 18.3604 6.90283 18.6433 7.05201C18.9261 7.20119 19.1314 7.41004 19.2591 7.67857C19.3868 7.94709 19.4127 8.22307 19.337 8.50651L18.33 12.6239H23.2082ZM7.99185 24.2599C7.49955 24.2599 7.07827 24.0847 6.728 23.7345C6.37772 23.3842 6.20229 22.9626 6.20169 22.4697V14.414C6.20169 13.9217 6.37713 13.5005 6.728 13.1502C7.07887 12.7999 7.50015 12.6245 7.99185 12.6239C8.48354 12.6233 8.90512 12.7987 9.25659 13.1502C9.60806 13.5016 9.78319 13.9229 9.782 14.414V22.4697C9.782 22.962 9.60686 23.3836 9.25659 23.7345C8.90632 24.0853 8.48474 24.2605 7.99185 24.2599Z" fill="white"/>
</svg>
