<svg width="32" height="30" viewBox="0 0 32 30" fill="none" xmlns="http://www.w3.org/2000/svg">
<rect y="0.259766" width="31.2" height="29.38" rx="5" fill="white"/>
<path d="M23.2082 12.0038C23.6855 12.0038 24.1032 12.1828 24.4613 12.5408C24.8193 12.8988 24.9983 13.3165 24.9983 13.7939V15.5841C24.9983 15.6885 24.987 15.8004 24.9643 15.9197C24.9416 16.0391 24.9082 16.1509 24.8641 16.2554L22.1788 22.5657C22.0446 22.864 21.8208 23.1176 21.5075 23.3265C21.1942 23.5353 20.866 23.6398 20.5229 23.6398H13.3623C12.87 23.6398 12.4487 23.4646 12.0985 23.1144C11.7482 22.7641 11.5728 22.3425 11.5722 21.8496V12.7422C11.5722 12.5035 11.6208 12.2762 11.7181 12.0601C11.8153 11.8441 11.9457 11.6538 12.1092 11.4891L16.965 6.65567C17.1888 6.44681 17.4537 6.32001 17.7598 6.27526C18.0659 6.2305 18.3604 6.28272 18.6433 6.4319C18.9261 6.58108 19.1314 6.78993 19.2591 7.05845C19.3868 7.32697 19.4127 7.60296 19.337 7.8864L18.33 12.0038H23.2082ZM7.99185 23.6398C7.49955 23.6398 7.07827 23.4646 6.728 23.1144C6.37772 22.7641 6.20229 22.3425 6.20169 21.8496V13.7939C6.20169 13.3016 6.37713 12.8803 6.728 12.5301C7.07887 12.1798 7.50015 12.0044 7.99185 12.0038C8.48354 12.0032 8.90512 12.1786 9.25659 12.5301C9.60806 12.8815 9.78319 13.3028 9.782 13.7939V21.8496C9.782 22.3419 9.60686 22.7635 9.25659 23.1144C8.90632 23.4652 8.48474 23.6404 7.99185 23.6398Z" fill="#1E222B"/>
</svg>
