<svg width="32" height="30" viewBox="0 0 32 30" fill="none" xmlns="http://www.w3.org/2000/svg">
<rect y="0.280273" width="31.2" height="29.38" rx="5" fill="#1E222B"/>
<path d="M24.29 21.7292H26.2211V23.6603H4.97888V21.7292H6.90999V7.24583C6.90999 6.98975 7.01172 6.74415 7.1928 6.56308C7.37387 6.382 7.61947 6.28027 7.87555 6.28027H17.5311C17.7872 6.28027 18.0328 6.382 18.2139 6.56308C18.3949 6.74415 18.4967 6.98975 18.4967 7.24583V21.7292H20.4278V12.0736H23.3244C23.5805 12.0736 23.8261 12.1753 24.0072 12.3564C24.1883 12.5375 24.29 12.7831 24.29 13.0392V21.7292ZM10.7722 14.0047V15.9358H14.6344V14.0047H10.7722ZM10.7722 10.1425V12.0736H14.6344V10.1425H10.7722Z" fill="white"/>
</svg>
