<svg width="32" height="31" viewBox="0 0 32 31" fill="none" xmlns="http://www.w3.org/2000/svg">
<rect y="0.660156" width="31.2" height="29.38" rx="5" fill="white"/>
<path d="M24.29 22.109H26.2211V24.0402H4.97888V22.109H6.90999V7.62571C6.90999 7.36963 7.01172 7.12404 7.1928 6.94296C7.37387 6.76188 7.61947 6.66016 7.87555 6.66016H17.5311C17.7872 6.66016 18.0328 6.76188 18.2139 6.94296C18.3949 7.12404 18.4967 7.36963 18.4967 7.62571V22.109H20.4278V12.4535H23.3244C23.5805 12.4535 23.8261 12.5552 24.0072 12.7363C24.1883 12.9174 24.29 13.163 24.29 13.419V22.109ZM10.7722 14.3846V16.3157H14.6344V14.3846H10.7722ZM10.7722 10.5224V12.4535H14.6344V10.5224H10.7722Z" fill="#1E222B"/>
</svg>
