<svg width="32" height="31" viewBox="0 0 32 31" fill="none" xmlns="http://www.w3.org/2000/svg">
<rect y="0.939941" width="31.2" height="29.38" rx="5" fill="white"/>
<path fill-rule="evenodd" clip-rule="evenodd" d="M7.87557 6.93994C7.36341 6.93994 6.87222 7.1434 6.51007 7.50555C6.14791 7.8677 5.94446 8.35889 5.94446 8.87105V22.3888C5.94446 22.901 6.14791 23.3922 6.51007 23.7543C6.87222 24.1165 7.36341 24.3199 7.87557 24.3199H23.3245C23.8366 24.3199 24.3278 24.1165 24.69 23.7543C25.0521 23.3922 25.2556 22.901 25.2556 22.3888V8.87105C25.2556 8.35889 25.0521 7.8677 24.69 7.50555C24.3278 7.1434 23.8366 6.93994 23.3245 6.93994H7.87557ZM12.3413 12.376C12.3627 12.1914 12.427 12.0144 12.529 11.859C12.631 11.7037 12.7678 11.5743 12.9287 11.4813C13.0896 11.3882 13.27 11.3341 13.4555 11.3231C13.641 11.3122 13.8265 11.3447 13.9972 11.4182C14.4838 11.6267 15.5112 12.096 16.8128 12.8472C17.7275 13.37 18.6109 13.9458 19.4584 14.5717C19.6074 14.6826 19.7284 14.8267 19.8118 14.9927C19.8952 15.1587 19.9386 15.3419 19.9386 15.5276C19.9386 15.7133 19.8952 15.8965 19.8118 16.0625C19.7284 16.2284 19.6074 16.3726 19.4584 16.4835C18.6108 17.1087 17.7274 17.6839 16.8128 18.206C15.9029 18.7375 14.9628 19.2153 13.9972 19.637C13.8265 19.7107 13.641 19.7434 13.4554 19.7325C13.2698 19.7217 13.0893 19.6675 12.9284 19.5745C12.7675 19.4814 12.6305 19.3519 12.5286 19.1965C12.4267 19.041 12.3625 18.8639 12.3413 18.6792C12.2254 17.6327 12.1687 16.5805 12.1713 15.5276C12.1713 14.03 12.2795 12.9022 12.3413 12.376Z" fill="#1E222B"/>
</svg>
