<svg width="32" height="30" viewBox="0 0 32 30" fill="none" xmlns="http://www.w3.org/2000/svg">
<rect y="0.560059" width="31.2" height="29.38" rx="5" fill="#1E222B"/>
<path fill-rule="evenodd" clip-rule="evenodd" d="M7.87557 6.56006C7.36341 6.56006 6.87222 6.76351 6.51007 7.12567C6.14791 7.48782 5.94446 7.97901 5.94446 8.49117V22.0089C5.94446 22.5211 6.14791 23.0123 6.51007 23.3744C6.87222 23.7366 7.36341 23.9401 7.87557 23.9401H23.3245C23.8366 23.9401 24.3278 23.7366 24.69 23.3744C25.0521 23.0123 25.2556 22.5211 25.2556 22.0089V8.49117C25.2556 7.97901 25.0521 7.48782 24.69 7.12567C24.3278 6.76351 23.8366 6.56006 23.3245 6.56006H7.87557ZM12.3413 11.9961C12.3627 11.8115 12.427 11.6345 12.529 11.4792C12.631 11.3238 12.7678 11.1945 12.9287 11.1014C13.0896 11.0084 13.27 10.9542 13.4555 10.9432C13.641 10.9323 13.8265 10.9648 13.9972 11.0383C14.4838 11.2469 15.5112 11.7161 16.8128 12.4673C17.7275 12.9901 18.6109 13.5659 19.4584 14.1918C19.6074 14.3027 19.7284 14.4469 19.8118 14.6128C19.8952 14.7788 19.9386 14.962 19.9386 15.1477C19.9386 15.3334 19.8952 15.5166 19.8118 15.6826C19.7284 15.8486 19.6074 15.9927 19.4584 16.1036C18.6108 16.7288 17.7274 17.304 16.8128 17.8262C15.9029 18.3576 14.9628 18.8354 13.9972 19.2571C13.8265 19.3308 13.641 19.3635 13.4554 19.3527C13.2698 19.3418 13.0893 19.2877 12.9284 19.1946C12.7675 19.1015 12.6305 18.972 12.5286 18.8166C12.4267 18.6611 12.3625 18.484 12.3413 18.2993C12.2254 17.2528 12.1687 16.2006 12.1713 15.1477C12.1713 13.6501 12.2795 12.5224 12.3413 11.9961Z" fill="white"/>
</svg>
