<svg width="48" height="48" viewBox="0 0 48 48" fill="none" xmlns="http://www.w3.org/2000/svg">
<path d="M38.512 9.536C34.7172 5.97299 29.7054 3.99288 24.5 4C13.178 4 4 13.178 4 24.5C4 35.822 13.178 45 24.5 45C29.8941 45.0076 35.0724 42.8817 38.905 39.086L24 24L38.512 9.536Z" stroke="white" stroke-width="4" stroke-linejoin="round"/>
<path d="M40 28C41.0609 28 42.0783 27.5786 42.8284 26.8284C43.5786 26.0783 44 25.0609 44 24C44 22.9391 43.5786 21.9217 42.8284 21.1716C42.0783 20.4214 41.0609 20 40 20C38.9391 20 37.9217 20.4214 37.1716 21.1716C36.4214 21.9217 36 22.9391 36 24C36 25.0609 36.4214 26.0783 37.1716 26.8284C37.9217 27.5786 38.9391 28 40 28Z" stroke="white" stroke-width="4" stroke-linejoin="round"/>
<path d="M17 13V21M13 17H21" stroke="white" stroke-width="4" stroke-linecap="round" stroke-linejoin="round"/>
</svg>
