<svg width="32" height="31" viewBox="0 0 32 31" fill="none" xmlns="http://www.w3.org/2000/svg">
<rect y="0.699951" width="31.2" height="29.38" rx="5" fill="white"/>
<path d="M16.504 15.582V12.3275C16.504 12.0714 16.4172 11.8568 16.2437 11.6839C16.0701 11.5109 15.8555 11.4241 15.6 11.4235C15.3445 11.4229 15.1299 11.5097 14.9563 11.6839C14.7828 11.858 14.696 12.0726 14.696 12.3275V15.9211C14.696 16.0416 14.7186 16.1585 14.7638 16.2718C14.809 16.3851 14.8768 16.4867 14.9672 16.5765L17.4985 19.1078C17.6642 19.2735 17.8751 19.3564 18.1313 19.3564C18.3874 19.3564 18.5984 19.2735 18.7641 19.1078C18.9298 18.942 19.0127 18.7311 19.0127 18.4749C19.0127 18.2188 18.9298 18.0079 18.7641 17.8421L16.504 15.582ZM15.6 24.0799C14.47 24.0799 13.4116 23.8654 12.425 23.4363C11.4384 23.0071 10.5796 22.4271 9.84856 21.696C9.1175 20.9649 8.53742 20.1061 8.1083 19.1195C7.67919 18.1329 7.46433 17.0743 7.46373 15.9437C7.46313 14.813 7.67799 13.7547 8.1083 12.7687C8.53862 11.7827 9.11841 10.9239 9.84766 10.1922C10.5769 9.46056 11.4357 8.88047 12.4241 8.45196C13.4126 8.02345 14.4712 7.80859 15.6 7.80739C16.7288 7.80618 17.7875 8.02104 18.7759 8.45196C19.7643 8.88288 20.6231 9.46297 21.3523 10.1922C22.0816 10.9215 22.6617 11.7803 23.0926 12.7687C23.5235 13.7571 23.7381 14.8154 23.7363 15.9437C23.7345 17.0719 23.5199 18.1305 23.0926 19.1195C22.6653 20.1085 22.0852 20.9674 21.3523 21.696C20.6195 22.4247 19.7607 23.0047 18.7759 23.4363C17.7911 23.8678 16.7325 24.0823 15.6 24.0799ZM6.6049 10.7907C6.43916 10.6249 6.35629 10.414 6.35629 10.1579C6.35629 9.90172 6.43916 9.69078 6.6049 9.52505L9.18139 6.94856C9.34713 6.78282 9.55807 6.69995 9.81421 6.69995C10.0704 6.69995 10.2813 6.78282 10.447 6.94856C10.6128 7.1143 10.6956 7.32524 10.6956 7.58138C10.6956 7.83752 10.6128 8.04846 10.447 8.2142L7.87054 10.7907C7.7048 10.9564 7.49386 11.0393 7.23772 11.0393C6.98158 11.0393 6.77064 10.9564 6.6049 10.7907ZM24.5951 10.7907C24.4294 10.9564 24.2184 11.0393 23.9623 11.0393C23.7061 11.0393 23.4952 10.9564 23.3295 10.7907L20.753 8.2142C20.5872 8.04846 20.5044 7.83752 20.5044 7.58138C20.5044 7.32524 20.5872 7.1143 20.753 6.94856C20.9187 6.78282 21.1297 6.69995 21.3858 6.69995C21.6419 6.69995 21.8529 6.78282 22.0186 6.94856L24.5951 9.52505C24.7608 9.69078 24.8437 9.90172 24.8437 10.1579C24.8437 10.414 24.7608 10.6249 24.5951 10.7907Z" fill="#1E222B"/>
</svg>
