<svg width="32" height="30" viewBox="0 0 32 30" fill="none" xmlns="http://www.w3.org/2000/svg">
<rect y="0.320068" width="31.2" height="29.38" rx="5" fill="#1E222B"/>
<path d="M16.504 15.2022V11.9477C16.504 11.6915 16.4172 11.477 16.2437 11.304C16.0701 11.131 15.8555 11.0442 15.6 11.0436C15.3445 11.043 15.1299 11.1298 14.9563 11.304C14.7828 11.4782 14.696 11.6927 14.696 11.9477V15.5412C14.696 15.6617 14.7186 15.7786 14.7638 15.8919C14.809 16.0052 14.8768 16.1068 14.9672 16.1966L17.4985 18.7279C17.6642 18.8936 17.8751 18.9765 18.1313 18.9765C18.3874 18.9765 18.5984 18.8936 18.7641 18.7279C18.9298 18.5621 19.0127 18.3512 19.0127 18.0951C19.0127 17.8389 18.9298 17.628 18.7641 17.4622L16.504 15.2022ZM15.6 23.7C14.47 23.7 13.4116 23.4855 12.425 23.0564C11.4384 22.6273 10.5796 22.0472 9.84856 21.3161C9.1175 20.5851 8.53742 19.7262 8.1083 18.7396C7.67919 17.753 7.46433 16.6944 7.46373 15.5638C7.46313 14.4331 7.67799 13.3748 8.1083 12.3888C8.53862 11.4028 9.11841 10.544 9.84766 9.81234C10.5769 9.08068 11.4357 8.50059 12.4241 8.07208C13.4126 7.64357 14.4712 7.42871 15.6 7.42751C16.7288 7.4263 17.7875 7.64116 18.7759 8.07208C19.7643 8.503 20.6231 9.08309 21.3523 9.81234C22.0816 10.5416 22.6617 11.4004 23.0926 12.3888C23.5235 13.3772 23.7381 14.4355 23.7363 15.5638C23.7345 16.692 23.5199 17.7506 23.0926 18.7396C22.6653 19.7286 22.0852 20.5875 21.3523 21.3161C20.6195 22.0448 19.7607 22.6249 18.7759 23.0564C17.7911 23.4879 16.7325 23.7025 15.6 23.7ZM6.6049 10.4108C6.43916 10.2451 6.35629 10.0341 6.35629 9.77798C6.35629 9.52184 6.43916 9.3109 6.6049 9.14516L9.18139 6.56868C9.34713 6.40294 9.55807 6.32007 9.81421 6.32007C10.0704 6.32007 10.2813 6.40294 10.447 6.56868C10.6128 6.73442 10.6956 6.94536 10.6956 7.2015C10.6956 7.45764 10.6128 7.66858 10.447 7.83432L7.87054 10.4108C7.7048 10.5765 7.49386 10.6594 7.23772 10.6594C6.98158 10.6594 6.77064 10.5765 6.6049 10.4108ZM24.5951 10.4108C24.4294 10.5765 24.2184 10.6594 23.9623 10.6594C23.7061 10.6594 23.4952 10.5765 23.3295 10.4108L20.753 7.83432C20.5872 7.66858 20.5044 7.45764 20.5044 7.2015C20.5044 6.94536 20.5872 6.73442 20.753 6.56868C20.9187 6.40294 21.1297 6.32007 21.3858 6.32007C21.6419 6.32007 21.8529 6.40294 22.0186 6.56868L24.5951 9.14516C24.7608 9.3109 24.8437 9.52184 24.8437 9.77798C24.8437 10.0341 24.7608 10.2451 24.5951 10.4108Z" fill="white"/>
</svg>
