<svg width="21" height="23" viewBox="0 0 21 23" fill="none" xmlns="http://www.w3.org/2000/svg">
<path d="M4.53256 2.18668C6.30329 0.767705 8.50564 -0.00378252 10.7748 1.3945e-05C13.1359 1.3945e-05 15.3059 0.817791 17.017 2.18668L18.6314 0.572236L20.2025 2.14335L18.5881 3.75779C20.0071 5.52852 20.7786 7.73087 20.7748 10V11.1111H0.77478V10C0.77478 7.6389 1.59256 5.4689 2.96145 3.75779L1.347 2.14446L2.91811 0.573347L4.53256 2.18668ZM0.77478 13.3333H20.7748V21.1111C20.7748 21.4058 20.6577 21.6884 20.4493 21.8968C20.241 22.1052 19.9583 22.2222 19.6637 22.2222H1.88589C1.59121 22.2222 1.30859 22.1052 1.10022 21.8968C0.891843 21.6884 0.77478 21.4058 0.77478 21.1111V13.3333ZM7.44144 7.77779C7.73613 7.77779 8.01874 7.66072 8.22712 7.45235C8.43549 7.24398 8.55255 6.96136 8.55255 6.66668C8.55255 6.37199 8.43549 6.08938 8.22712 5.881C8.01874 5.67263 7.73613 5.55557 7.44144 5.55557C7.14676 5.55557 6.86414 5.67263 6.65577 5.881C6.4474 6.08938 6.33033 6.37199 6.33033 6.66668C6.33033 6.96136 6.4474 7.24398 6.65577 7.45235C6.86414 7.66072 7.14676 7.77779 7.44144 7.77779ZM14.1081 7.77779C14.4028 7.77779 14.6854 7.66072 14.8938 7.45235C15.1022 7.24398 15.2192 6.96136 15.2192 6.66668C15.2192 6.37199 15.1022 6.08938 14.8938 5.881C14.6854 5.67263 14.4028 5.55557 14.1081 5.55557C13.8134 5.55557 13.5308 5.67263 13.3224 5.881C13.1141 6.08938 12.997 6.37199 12.997 6.66668C12.997 6.96136 13.1141 7.24398 13.3224 7.45235C13.5308 7.66072 13.8134 7.77779 14.1081 7.77779Z" fill="white"/>
</svg>
