<svg width="23" height="21" viewBox="0 0 23 21" fill="none" xmlns="http://www.w3.org/2000/svg">
<g clip-path="url(#clip0_306_6208)">
<path d="M2.88592 0.324951H20.6637C21.2531 0.324951 21.8183 0.559077 22.235 0.975825C22.6518 1.39257 22.8859 1.9578 22.8859 2.54717V18.1027C22.8859 18.6921 22.6518 19.2573 22.235 19.6741C21.8183 20.0908 21.2531 20.325 20.6637 20.325H2.88592C2.29655 20.325 1.73132 20.0908 1.31457 19.6741C0.897822 19.2573 0.663696 18.6921 0.663696 18.1027V2.54717C0.663696 1.9578 0.897822 1.39257 1.31457 0.975825C1.73132 0.559077 2.29655 0.324951 2.88592 0.324951ZM10.0637 3.14717C9.49703 3.14717 9.04147 3.60273 9.04147 4.1694V7.59162C9.04147 7.86273 9.14917 8.12274 9.34088 8.31444C9.53258 8.50614 9.79259 8.61384 10.0637 8.61384H13.4859C13.757 8.61384 14.017 8.50614 14.2087 8.31444C14.4004 8.12274 14.5081 7.86273 14.5081 7.59162V4.1694C14.5081 3.60273 14.0526 3.14717 13.4859 3.14717H10.0637ZM10.7526 4.51384H12.797C12.8884 4.51384 12.976 4.55013 13.0406 4.61473C13.1052 4.67932 13.1415 4.76693 13.1415 4.85828V6.90273C13.1415 6.99408 13.1052 7.08169 13.0406 7.14629C12.976 7.21088 12.8884 7.24717 12.797 7.24717H10.7526C10.6612 7.24717 10.5736 7.21088 10.509 7.14629C10.4444 7.08169 10.4081 6.99408 10.4081 6.90273V4.85828C10.4081 4.76693 10.4444 4.67932 10.509 4.61473C10.5736 4.55013 10.6612 4.51384 10.7526 4.51384ZM3.90814 3.14717C3.63703 3.14717 3.37702 3.25487 3.18532 3.44658C2.99362 3.63828 2.88592 3.89829 2.88592 4.1694V7.59162C2.88592 8.15828 3.34147 8.61384 3.90814 8.61384H6.30814V7.24717H4.59703C4.40814 7.24717 4.25258 7.09162 4.25258 6.90273V4.85828C4.25258 4.6694 4.40814 4.51384 4.59703 4.51384H6.64147C6.73283 4.51384 6.82044 4.55013 6.88503 4.61473C6.94963 4.67932 6.98592 4.76693 6.98592 4.85828V8.95829C6.98592 9.04964 6.94963 9.13725 6.88503 9.20184C6.82044 9.26644 6.73283 9.30273 6.64147 9.30273H2.88592V10.6694H7.33036C7.88592 10.6694 8.35258 10.2027 8.35258 9.63606V4.1694C8.35258 3.89829 8.24489 3.63828 8.05318 3.44658C7.86148 3.25487 7.60147 3.14717 7.33036 3.14717H3.90814ZM16.2193 3.14717C15.6637 3.14717 15.197 3.60273 15.197 4.1694V7.59162C15.197 8.15828 15.6637 8.61384 16.2193 8.61384H18.6081V7.24717H16.9081C16.7193 7.24717 16.5637 7.09162 16.5637 6.90273V4.85828C16.5637 4.6694 16.7193 4.51384 16.9081 4.51384H18.9526C19.1415 4.51384 19.297 4.6694 19.297 4.85828V8.95829C19.297 9.14717 19.1415 9.30273 18.9526 9.30273H15.197V10.6694H19.6415C20.2081 10.6694 20.6637 10.2027 20.6637 9.63606V4.1694C20.6637 3.60273 20.2081 3.14717 19.6415 3.14717H16.2193ZM9.38592 12.0361C8.81925 12.0361 8.35258 12.4916 8.35258 13.0583V16.4805C8.35258 17.0472 8.81925 17.5027 9.38592 17.5027H12.797C13.3637 17.5027 13.8304 17.0472 13.8304 16.4805V13.0583C13.8304 12.4916 13.3637 12.0361 12.797 12.0361H9.38592ZM10.0637 13.4027H12.1193C12.1649 13.4012 12.2104 13.409 12.2529 13.4258C12.2954 13.4426 12.334 13.4679 12.3663 13.5002C12.3986 13.5325 12.4239 13.5711 12.4406 13.6136C12.4574 13.656 12.4652 13.7015 12.4637 13.7472V15.7916C12.4637 15.883 12.4274 15.9706 12.3628 16.0352C12.2982 16.0998 12.2106 16.1361 12.1193 16.1361H10.0637C9.87481 16.1361 9.71925 15.9805 9.71925 15.7916V13.7472C9.71925 13.6558 9.75554 13.5682 9.82014 13.5036C9.88473 13.439 9.97234 13.4027 10.0637 13.4027ZM3.90814 12.0361C3.34147 12.0361 2.88592 12.4916 2.88592 13.0583V16.4805C2.88592 17.0472 3.34147 17.5027 3.90814 17.5027H7.67481V16.1361H4.59703C4.40814 16.1361 4.25258 15.9805 4.25258 15.7916V13.7472C4.25258 13.5583 4.40814 13.4027 4.59703 13.4027H7.67481V12.0361H3.90814ZM15.5304 12.0361C14.9637 12.0361 14.5081 12.4916 14.5081 13.0583V17.5027H15.8748V13.7472C15.8748 13.6558 15.9111 13.5682 15.9757 13.5036C16.0403 13.439 16.1279 13.4027 16.2193 13.4027H16.9081V17.5027H18.2748V13.4027H19.297V17.5027H20.6637V12.0361H15.5304Z" fill="white"/>
</g>
<defs>
<clipPath id="clip0_306_6208">
<rect width="22.2222" height="20" fill="white" transform="translate(0.663696 0.324951)"/>
</clipPath>
</defs>
</svg>
