<svg width="21" height="20" viewBox="0 0 21 20" fill="none" xmlns="http://www.w3.org/2000/svg">
<path d="M10.7748 0C16.2978 0 20.7748 4.477 20.7748 10C20.7748 15.523 16.2978 20 10.7748 20C5.25178 20 0.77478 15.523 0.77478 10C0.77478 4.477 5.25178 0 10.7748 0ZM7.59778 13.343C7.20378 12.8657 6.71078 12.696 6.11878 12.834L5.96878 12.875L5.37878 13.891C5.26751 14.0721 5.23065 14.2893 5.27593 14.497C5.32121 14.7048 5.44512 14.8869 5.62169 15.0053C5.79825 15.1237 6.01379 15.1692 6.22315 15.1322C6.4325 15.0953 6.61943 14.9787 6.74478 14.807L6.80678 14.714L7.59778 13.343ZM11.9848 6.66C11.4968 7.064 11.0048 8.257 11.6948 9.447L14.7348 14.713C14.8401 14.8919 15.009 15.0245 15.2078 15.0842C15.4065 15.144 15.6206 15.1265 15.807 15.0353C15.9935 14.9441 16.1387 14.7859 16.2135 14.5923C16.2884 14.3986 16.2874 14.1839 16.2108 13.991L16.1618 13.891L15.3598 12.499H16.5498C16.6579 12.4993 16.765 12.4781 16.8649 12.4369C16.9648 12.3956 17.0556 12.335 17.132 12.2585C17.2084 12.182 17.2689 12.0911 17.31 11.9912C17.3512 11.8912 17.3722 11.7841 17.3718 11.676C17.3723 11.4755 17.2993 11.2817 17.1667 11.1314C17.034 10.981 16.8508 10.8845 16.6518 10.86L16.5488 10.854H14.4088L12.2148 7.057L11.9848 6.66ZM12.2628 3.616C12.0901 3.51681 11.8873 3.48343 11.692 3.52203C11.4966 3.56062 11.3218 3.66859 11.1998 3.826L11.1378 3.918L10.7708 4.551L10.4118 3.918C10.3065 3.7391 10.1376 3.60652 9.93881 3.54677C9.74002 3.48702 9.526 3.50449 9.33954 3.5957C9.15308 3.68691 9.00791 3.84514 8.93305 4.03874C8.8582 4.23235 8.85917 4.44708 8.93578 4.64L8.98478 4.74L9.82278 6.197L7.13778 10.85H5.04078C4.93276 10.8497 4.82575 10.8708 4.7259 10.912C4.62605 10.9532 4.53533 11.0138 4.45895 11.0902C4.38257 11.1666 4.32203 11.2573 4.28081 11.3571C4.2396 11.457 4.21852 11.564 4.21878 11.672C4.21878 12.093 4.53078 12.438 4.93778 12.489L5.04078 12.495H12.5208C12.8608 11.855 12.4608 10.946 11.7108 10.857L11.5898 10.85H9.03678L12.5648 4.74C12.6738 4.5509 12.7032 4.32625 12.6466 4.11546C12.5899 3.90467 12.4519 3.72501 12.2628 3.616Z" fill="white"/>
</svg>
