<svg width="21" height="26" viewBox="0 0 21 26" fill="none" xmlns="http://www.w3.org/2000/svg">
<path fill-rule="evenodd" clip-rule="evenodd" d="M11.2842 0.773193C11.1274 0.773193 10.9656 0.781295 10.7997 0.794436C6.52404 1.13127 7.65795 5.65674 7.59319 7.1649C7.51532 8.27049 7.28977 9.14141 6.53011 10.2207C5.63494 11.2838 4.37864 13.0023 3.78286 14.7937C3.50166 15.6353 3.36816 16.4971 3.49255 17.3113C3.44604 17.3485 3.40781 17.3951 3.38029 17.4479C3.1173 17.719 2.92611 18.0558 2.71067 18.2965C2.50938 18.4979 2.22008 18.5666 1.90449 18.7012C1.58793 18.8387 1.23893 18.9732 1.03057 19.39C0.939524 19.5801 0.893 19.7875 0.897037 19.9979C0.897037 20.1992 0.92435 20.4035 0.952665 20.5401C1.01133 20.9436 1.06999 21.2774 0.992117 21.5212C0.741263 22.209 0.709913 22.6804 0.885901 23.0233C1.06192 23.3611 1.42706 23.4977 1.83572 23.6312C2.65605 23.8335 3.76768 23.7678 4.64264 24.2371C5.57932 24.7095 6.53014 24.9158 7.28874 24.7125C7.55111 24.6552 7.7972 24.5394 8.00873 24.374C8.22027 24.2085 8.39182 23.9975 8.51066 23.7566C9.10441 23.7536 9.75482 23.4845 10.7967 23.4188C11.5037 23.3601 12.3888 23.6889 13.4043 23.6201C13.4296 23.7567 13.468 23.8214 13.5196 23.9579L13.5227 23.961C13.9182 24.7479 14.6485 25.106 15.4283 25.0443C16.2082 24.9836 17.0387 24.5021 17.7113 23.7233C18.3496 22.9494 19.4137 22.6268 20.1167 22.203C20.4687 22.0017 20.7529 21.7286 20.7731 21.3401C20.7964 20.9355 20.5719 20.5188 20.0509 19.9473V19.8492L20.0479 19.8462C19.8759 19.6439 19.795 19.305 19.706 18.9095C19.62 18.5039 19.5219 18.1145 19.2084 17.8515H19.2053C19.1456 17.7968 19.0809 17.7837 19.0152 17.7149C18.9586 17.6754 18.8919 17.6529 18.823 17.6502C19.2589 16.3575 19.09 15.0708 18.648 13.9136C18.1088 12.4874 17.1661 11.2453 16.4479 10.3906C15.6428 9.37403 14.8538 8.41106 14.869 6.98281C14.8963 4.80606 15.1087 0.779263 11.2842 0.773193ZM11.8193 4.21735H11.8324C12.0479 4.21735 12.233 4.28008 12.4231 4.41764C12.6164 4.55421 12.757 4.75347 12.8672 4.9568C12.9734 5.21876 13.027 5.42106 13.0351 5.68912C13.0351 5.66888 13.0412 5.64867 13.0412 5.62943V5.73464C13.039 5.72776 13.0376 5.72062 13.0371 5.7134L13.0331 5.68912C13.031 5.93494 12.9794 6.17781 12.8814 6.40323C12.8341 6.53005 12.7607 6.6455 12.6659 6.74209C12.6373 6.72591 12.6075 6.71171 12.5769 6.69961C12.4707 6.65409 12.3756 6.63487 12.2886 6.56508C12.2169 6.53643 12.1427 6.5141 12.0671 6.49834C12.1167 6.43865 12.2138 6.36381 12.2512 6.29805C12.3048 6.16858 12.3341 6.03102 12.3402 5.89142V5.87218C12.3425 5.73482 12.3216 5.59805 12.2785 5.46761C12.233 5.33105 12.1764 5.26428 12.0934 5.12975C12.0084 5.06299 11.9245 4.99622 11.8233 4.99622H11.8071C11.7131 4.99622 11.6291 5.02657 11.5421 5.12975C11.4461 5.22346 11.3749 5.33956 11.3348 5.46761C11.281 5.59612 11.2502 5.73306 11.2437 5.87221V5.89144C11.2458 5.98146 11.2518 6.07247 11.264 6.16148C11.0688 6.09374 10.8209 6.02492 10.65 5.95718C10.6398 5.89052 10.6337 5.82327 10.6318 5.75586V5.73564C10.6237 5.46829 10.6755 5.20251 10.7835 4.9578C10.8664 4.73581 11.019 4.54665 11.2185 4.41867C11.3915 4.28797 11.6024 4.21729 11.8193 4.21735ZM8.82321 4.27704H8.85962C9.00323 4.27704 9.13275 4.3256 9.26322 4.41361C9.41089 4.5441 9.53025 4.70492 9.61118 4.88397C9.70223 5.08526 9.75379 5.28959 9.76593 5.55865V5.56269C9.773 5.69822 9.772 5.76599 9.76392 5.83175V5.91266C9.73358 5.91973 9.70727 5.93087 9.67995 5.93694C9.52621 5.99257 9.40279 6.0735 9.28246 6.13924C9.29457 6.04922 9.29557 5.95818 9.28546 5.86917V5.854C9.27332 5.71947 9.24601 5.6527 9.20252 5.51717C9.17097 5.41408 9.1131 5.32099 9.03461 5.24708C9.00968 5.22441 8.98045 5.207 8.94865 5.19588C8.91685 5.18476 8.88314 5.18016 8.84952 5.18235H8.82828C8.75647 5.18841 8.69678 5.2238 8.64012 5.31587C8.57558 5.39419 8.53361 5.48862 8.51873 5.589C8.49125 5.69835 8.48338 5.8117 8.49548 5.9238V5.93794C8.50762 6.0745 8.5329 6.14127 8.57742 6.2758C8.62294 6.41133 8.67551 6.4781 8.74433 6.54687C8.75544 6.55597 8.76555 6.56508 8.77869 6.57115C8.70789 6.62881 8.66036 6.64195 8.60067 6.70871C8.56279 6.74213 8.5173 6.76575 8.46817 6.77751C8.36305 6.65088 8.26993 6.51475 8.19 6.37088C8.09441 6.15831 8.04116 5.92914 8.03323 5.69619C8.0165 5.46785 8.04397 5.23843 8.11414 5.0205C8.16987 4.82177 8.26748 4.63726 8.4004 4.47937C8.52987 4.34484 8.6634 4.27704 8.82321 4.27704ZM10.21 6.0027C10.5448 6.0027 10.9504 6.06846 11.439 6.40629C11.7353 6.60862 11.968 6.67839 12.5041 6.87969H12.5071C12.7651 7.01725 12.9168 7.14875 12.9906 7.28328V7.15078C13.0269 7.22433 13.0471 7.30477 13.0499 7.38673C13.0527 7.4687 13.038 7.55033 13.0068 7.62618C12.8824 7.94076 12.4849 8.27759 11.9306 8.47889V8.48092C11.6595 8.61748 11.4238 8.81772 11.1467 8.95125C10.8675 9.08781 10.5519 9.24659 10.123 9.22134C9.96891 9.22932 9.81482 9.20627 9.66985 9.15355C9.55781 9.0926 9.4491 9.02575 9.34415 8.95328C9.1469 8.81672 8.97695 8.61745 8.72509 8.48292V8.47788H8.72003C8.31543 8.22903 8.09696 7.95997 8.02613 7.7587C7.95636 7.48761 8.02109 7.28428 8.22135 7.15178C8.44793 7.01522 8.60574 6.87768 8.70992 6.81192C8.81511 6.73708 8.85456 6.70874 8.88794 6.67942H8.88997V6.67639C9.06092 6.47206 9.33099 6.20199 9.73862 6.06846C9.87924 6.03205 10.036 6.0027 10.21 6.0027ZM13.0412 8.17037C13.4043 9.60369 14.252 11.6854 14.7972 12.6948C15.0865 13.235 15.662 14.3729 15.9118 15.7536C16.0697 15.7486 16.2446 15.7719 16.4307 15.8184C17.0842 14.1282 15.8785 12.3115 15.3292 11.8067C15.1057 11.6034 15.0946 11.4679 15.2048 11.4679C15.8006 12.008 16.5855 13.058 16.8697 14.2566C17.0002 14.7978 17.0306 15.3733 16.891 15.9458C16.9587 15.9742 17.0275 16.0075 17.0983 16.0136C18.1422 16.5538 18.5276 16.9624 18.3425 17.5683V17.5248C18.2808 17.5218 18.2211 17.5248 18.1594 17.5248H18.1442C18.297 17.0524 17.9602 16.6903 17.067 16.2867C16.1415 15.8821 15.4021 15.9468 15.2756 16.7571C15.2685 16.8005 15.2635 16.8238 15.2584 16.8936C15.1896 16.9169 15.1178 16.9472 15.047 16.9584C14.6121 17.2294 14.3774 17.635 14.2449 18.159C14.1134 18.6982 14.0729 19.3283 14.0375 20.0495V20.0525C14.0163 20.3904 13.8646 20.9002 13.7149 21.4191C12.1976 22.5034 10.0937 22.9748 8.30429 21.7569C8.19208 21.5608 8.05544 21.3796 7.89767 21.2178C7.82238 21.0919 7.72862 20.978 7.61953 20.88C7.80362 20.88 7.9614 20.8506 8.08986 20.8122C8.23531 20.7447 8.3491 20.6237 8.40748 20.4743C8.51673 20.2043 8.40748 19.7693 8.05851 19.298C7.70954 18.8256 7.11679 18.2915 6.24994 17.7595C5.6127 17.3559 5.25259 16.8795 5.08671 16.3474C4.9198 15.8073 4.94205 15.2499 5.07154 14.6835C5.31936 13.6011 5.95459 12.5492 6.36019 11.8887C6.46841 11.8229 6.39761 12.0253 5.94749 12.8739C5.54694 13.6335 4.79337 15.3996 5.8241 16.7722C5.86303 15.7707 6.08483 14.7848 6.47855 13.8631C7.04902 12.5704 8.2416 10.3188 8.33567 8.53451C8.3842 8.57093 8.55515 8.67108 8.62798 8.73882C8.84849 8.87337 9.01236 9.07567 9.22477 9.2092C9.4382 9.4125 9.70727 9.54803 10.1109 9.54803C10.1503 9.55107 10.1867 9.5541 10.2231 9.5541C10.6389 9.5541 10.9605 9.41857 11.2306 9.28304C11.5239 9.1475 11.7576 8.94518 11.9791 8.87844H11.9842C12.4565 8.74188 12.8298 8.47181 13.0412 8.17037M15.2523 17.2315C15.2897 17.8394 15.5993 18.4908 16.1445 18.6243C16.7392 18.7599 17.595 18.2875 17.9561 17.8505L18.1695 17.8414C18.4881 17.8333 18.7531 17.8515 19.0263 18.1115L19.0293 18.1145C19.2397 18.3158 19.3378 18.6516 19.4248 19.0006C19.5108 19.4062 19.5806 19.7896 19.8385 20.0789C20.3301 20.6119 20.4909 20.9953 20.4818 21.232L20.4848 21.2259V21.2441L20.4818 21.232C20.4666 21.497 20.2947 21.6325 19.9781 21.8338C19.3408 22.2395 18.212 22.554 17.4928 23.4219C16.8677 24.1674 16.106 24.574 15.4334 24.6266C14.7617 24.6802 14.1822 24.4243 13.8413 23.7183L13.8362 23.7152C13.6238 23.3096 13.7148 22.6784 13.8928 22.0058C14.0709 21.3301 14.3258 20.6453 14.3612 20.0859C14.3986 19.3637 14.438 18.7356 14.5584 18.251C14.6798 17.7807 14.87 17.4449 15.2068 17.2557L15.2523 17.2335V17.2315ZM4.31288 17.281H4.32299C4.37658 17.281 4.4292 17.2861 4.48177 17.2952C4.86211 17.3508 5.19591 17.632 5.51656 18.0558L6.43704 19.739L6.44007 19.742C6.68586 20.2812 7.20274 20.8183 7.64275 21.3989C8.08176 22.0037 8.42162 22.5429 8.38014 22.9869V22.993C8.32248 23.7456 7.89563 24.1542 7.24219 24.3019C6.58978 24.4384 5.70472 24.3039 4.81963 23.8326C3.84049 23.2904 2.67726 23.3582 1.92977 23.2236C1.55652 23.1569 1.31171 23.0203 1.19845 22.818C1.08617 22.6167 1.08413 22.2101 1.32285 21.5739V21.5708L1.32488 21.5678C1.44324 21.2299 1.35523 20.8061 1.29757 20.4359C1.24194 20.0303 1.2136 19.7187 1.34106 19.4851C1.5029 19.1472 1.74162 19.0815 2.03799 18.946C2.3364 18.8094 2.68637 18.7416 2.96453 18.4716H2.96657V18.4685C3.2255 18.1975 3.41668 17.8606 3.64223 17.6209C3.83442 17.4176 4.02661 17.281 4.31285 17.281M11.5542 8.10255C11.1142 8.30588 10.5983 8.64374 10.0491 8.64374C9.50088 8.64374 9.06794 8.37367 8.75539 8.17238C8.59861 8.03682 8.47215 7.90128 8.37707 7.83352C8.21119 7.69798 8.23143 7.49568 8.30224 7.49568C8.41249 7.51186 8.4327 7.63225 8.50353 7.69898C8.60062 7.76575 8.721 7.90028 8.86868 8.03581C9.16302 8.23811 9.5565 8.5082 10.0481 8.5082C10.5387 8.5082 11.1132 8.23811 11.4622 8.03682C11.6594 7.90025 11.9123 7.69898 12.1176 7.56445C12.2754 7.42589 12.2683 7.29336 12.3998 7.29336C12.5303 7.30956 12.4342 7.42892 12.2512 7.63022C12.0268 7.7999 11.7938 7.95789 11.5532 8.10358V8.10258L11.5542 8.10255ZM10.4598 6.50037V6.4781C10.4537 6.45886 10.4729 6.43561 10.4891 6.42751C10.564 6.38402 10.6712 6.4002 10.7521 6.43157C10.8158 6.43157 10.9139 6.49931 10.9038 6.56814C10.8978 6.6177 10.8178 6.63487 10.7673 6.63487C10.7116 6.63487 10.6742 6.59139 10.6247 6.56611C10.5721 6.5479 10.477 6.558 10.4598 6.50034M9.90241 6.50034C9.8822 6.55898 9.78812 6.54988 9.73452 6.56708C9.68697 6.59236 9.64755 6.63585 9.59392 6.63585C9.54233 6.63585 9.46142 6.61664 9.45536 6.56708C9.44625 6.50032 9.54437 6.43255 9.60709 6.43255C9.689 6.4012 9.79319 6.385 9.86906 6.42748C9.88829 6.43659 9.90547 6.45783 9.8994 6.47807V6.49931H9.90244L9.90241 6.50034Z" fill="white"/>
</svg>
