<svg width="26" height="21" viewBox="0 0 26 21" fill="none" xmlns="http://www.w3.org/2000/svg">
<g clip-path="url(#clip0_306_6206)">
<path fill-rule="evenodd" clip-rule="evenodd" d="M10.2748 0.0510864H15.2748C20.7978 0.0510864 25.2748 4.52809 25.2748 10.0511C25.2748 15.5741 20.7978 20.0511 15.2748 20.0511H10.2748C4.75178 20.0511 0.27478 15.5741 0.27478 10.0511C0.27478 4.52809 4.75178 0.0510864 10.2748 0.0510864ZM9.77478 2.05109C7.78566 2.05109 5.878 2.84126 4.47148 4.24779C3.06496 5.65431 2.27478 7.56196 2.27478 9.55109C2.27478 11.5402 3.06496 13.4479 4.47148 14.8544C5.878 16.2609 7.78566 17.0511 9.77478 17.0511H15.7748C17.7639 17.0511 19.6716 16.2609 21.0781 14.8544C22.4846 13.4479 23.2748 11.5402 23.2748 9.55109C23.2748 7.56196 22.4846 5.65431 21.0781 4.24779C19.6716 2.84126 17.7639 2.05109 15.7748 2.05109H9.77478ZM8.27978 5.05109H10.9988L14.6188 11.2611V5.05109H17.2748V14.0461H14.6698L10.9158 7.80809V14.0511H8.27478L8.27978 5.05109Z" fill="white"/>
</g>
<defs>
<clipPath id="clip0_306_6206">
<rect width="25" height="20" fill="white" transform="translate(0.27478 0.0510864)"/>
</clipPath>
</defs>
</svg>
