<svg width="21" height="23" viewBox="0 0 21 23" fill="none" xmlns="http://www.w3.org/2000/svg">
<g clip-path="url(#clip0_306_6207)">
<path d="M20.0726 12.3926L16.4354 14.4512L13.1732 11.2093L16.4614 7.94152L20.0726 9.98518C20.2857 10.1057 20.463 10.2806 20.5864 10.4921C20.7098 10.7036 20.7748 10.9441 20.7748 11.1889C20.7748 11.4338 20.7098 11.6742 20.5864 11.8857C20.463 12.0972 20.2857 12.2721 20.0726 12.3926ZM0.878727 0.908436C0.810175 1.07574 0.774869 1.25479 0.77478 1.43559V20.9413C0.77478 21.1427 0.816544 21.3302 0.889864 21.4982L11.2427 11.2084L0.878727 0.908436ZM12.2079 10.2497L15.2317 7.24452L2.83978 0.231857C2.57407 0.0794939 2.26482 0.0209777 1.96181 0.0657281L12.2079 10.2497ZM12.2079 12.168L1.99893 22.3149C2.2755 22.3483 2.56693 22.3 2.83978 22.145L15.2057 15.1472L12.2079 12.168Z" fill="white"/>
</g>
<defs>
<clipPath id="clip0_306_6207">
<rect width="20" height="22.2738" fill="white" transform="translate(0.77478 0.0510864)"/>
</clipPath>
</defs>
</svg>
