<svg width="21" height="25" viewBox="0 0 21 25" fill="none" xmlns="http://www.w3.org/2000/svg">
<path d="M10.9305 7.27551C9.96072 7.27551 8.45951 6.17285 6.87859 6.2127C4.79283 6.23927 2.87978 7.42164 1.80369 9.29484C-0.361783 13.0545 1.24571 18.6077 3.35804 21.6633C4.39428 23.1512 5.6165 24.8251 7.23728 24.772C8.79164 24.7055 9.37618 23.7623 11.2627 23.7623C13.1359 23.7623 13.6673 24.772 15.3146 24.7321C16.9885 24.7055 18.0513 23.2176 19.0743 21.7164C20.2567 19.9893 20.7482 18.3154 20.7748 18.2224C20.7349 18.2091 17.5199 16.9736 17.4801 13.2538C17.4535 10.1451 20.0175 8.65716 20.1371 8.59073C18.6757 6.45183 16.4306 6.2127 15.6467 6.15956C13.6008 6.00014 11.8871 7.27551 10.9305 7.27551ZM14.3847 4.14023C15.2482 3.10399 15.8194 1.65592 15.66 0.22113C14.4245 0.274271 12.9366 1.04481 12.0465 2.08104C11.2494 2.99771 10.5586 4.47236 10.7445 5.88058C12.1129 5.98686 13.5211 5.17647 14.3847 4.14023Z" fill="white"/>
</svg>
