<svg width="21" height="21" viewBox="0 0 21 21" fill="none" xmlns="http://www.w3.org/2000/svg">
<path d="M12.5741 20.2211C12.4797 20.2211 12.4175 20.1578 12.433 20.08V0.363332C12.433 0.301114 12.4797 0.237784 12.5586 0.237784H15.6528C17.0113 0.237784 18.3141 0.777415 19.2746 1.73796C20.2351 2.69851 20.7748 4.0013 20.7748 5.35972V15.0992C20.7748 16.4576 20.2351 17.7604 19.2746 18.7209C18.3141 19.6815 17.0113 20.2211 15.6528 20.2211H12.5741ZM16.3761 9.19284C15.2606 9.19284 14.3496 10.1039 14.3496 11.2194C14.3496 12.3349 15.2606 13.246 16.3761 13.246C17.4916 13.246 18.4027 12.3349 18.4027 11.2194C18.4027 10.1039 17.4916 9.19284 16.3761 9.19284ZM3.88572 6.2219C3.88689 5.7225 4.0858 5.24389 4.43893 4.89076C4.79205 4.53763 5.27066 4.33873 5.77006 4.33756C6.26965 4.33844 6.74854 4.53721 7.10191 4.89037C7.45528 5.24353 7.65433 5.72231 7.65551 6.2219C7.65551 7.25962 6.80778 8.10735 5.77006 8.10735C5.27047 8.10617 4.79169 7.90711 4.43853 7.55375C4.08537 7.20038 3.8866 6.72149 3.88572 6.2219ZM10.2631 0.222229C10.3576 0.222229 10.4209 0.285559 10.4054 0.363332V20.0656C10.4054 20.1433 10.342 20.2067 10.2631 20.2067H5.89672C5.224 20.2067 4.55787 20.0742 3.93638 19.8167C3.31489 19.5592 2.7502 19.1818 2.27457 18.7061C1.79894 18.2304 1.42168 17.6656 1.16435 17.044C0.90701 16.4225 0.774634 15.7563 0.77478 15.0836V5.34417C0.77478 4.67145 0.9073 4.00532 1.16477 3.38383C1.42224 2.76233 1.79962 2.19765 2.27535 1.72202C2.75109 1.24639 3.31586 0.869131 3.93741 0.611795C4.55896 0.354458 5.22511 0.222083 5.89783 0.222229H10.2631ZM8.80211 18.6034V1.82436H5.89783C4.95455 1.82436 4.07571 2.20212 3.41463 2.86097C3.08404 3.18413 2.82188 3.57053 2.64379 3.99715C2.4657 4.42377 2.37532 4.88187 2.37802 5.34417V15.0836C2.37802 16.0269 2.75578 16.9057 3.41463 17.5657C3.73769 17.8965 4.12405 18.1589 4.55068 18.3372C4.9773 18.5154 5.43546 18.606 5.89783 18.6034H8.80211Z" fill="white"/>
</svg>
