<svg width="21" height="21" viewBox="0 0 21 21" fill="none" xmlns="http://www.w3.org/2000/svg">
<path d="M4.19479 17.7491C6.01482 19.3454 8.35392 20.2242 10.7748 20.2211C13.1972 20.2245 15.538 19.3458 17.3598 17.7491C18.9238 16.1551 13.7628 10.4911 10.7748 8.23413C7.78979 10.4911 2.62479 16.1551 4.19279 17.7491M13.4928 5.74413C15.5758 8.21113 19.7288 14.3381 18.5558 16.5041C19.9952 14.7276 20.7788 12.5096 20.7748 10.2231C20.7765 8.8993 20.5143 7.5884 20.0035 6.36709C19.4927 5.14577 18.7435 4.03854 17.7998 3.11013C17.7998 3.11013 17.7768 3.09213 17.7318 3.07513C17.6565 3.04925 17.5774 3.0364 17.4978 3.03713C17.0038 3.03713 15.8428 3.40013 13.4928 5.74413ZM3.81979 3.07613C3.77179 3.09313 3.75179 3.11013 3.74779 3.11113C2.80444 4.03971 2.05565 5.14701 1.54518 6.36832C1.03472 7.58963 0.772816 8.90044 0.774791 10.2241C0.774791 12.6031 1.60679 14.7851 2.99179 16.5021C1.82579 14.3311 5.97579 8.20913 8.05979 5.74413C5.70979 3.39913 4.54679 3.03913 4.05479 3.03913C3.97497 3.03643 3.89542 3.04969 3.82079 3.07813L3.81979 3.07613ZM10.7748 3.18013C10.7748 3.18013 8.32079 1.74413 6.40479 1.67613C5.65179 1.64913 5.19179 1.92213 5.13679 1.95813C6.92479 0.76013 8.82479 0.22113 10.7628 0.22113H10.7748C12.7198 0.22113 14.6128 0.75913 16.4128 1.95813C16.3568 1.92013 15.9008 1.64813 15.1468 1.67613C13.2298 1.74413 10.7748 3.17613 10.7748 3.17613V3.18013Z" fill="white"/>
</svg>
