<svg width="21" height="21" viewBox="0 0 21 21" fill="none" xmlns="http://www.w3.org/2000/svg">
<g clip-path="url(#clip0_306_6209)">
<path d="M10.7748 0.324951C12.088 0.324951 13.3884 0.583609 14.6016 1.08616C15.8149 1.5887 16.9173 2.3253 17.8458 3.25388C18.7744 4.18247 19.511 5.28486 20.0136 6.49812C20.5161 7.71137 20.7748 9.01173 20.7748 10.325C20.7748 12.9771 19.7212 15.5207 17.8458 17.396C15.9705 19.2714 13.4269 20.325 10.7748 20.325C6.17478 20.325 2.32478 17.245 1.13478 13.055L4.96478 14.635C5.09602 15.2755 5.44427 15.8512 5.95075 16.2648C6.45723 16.6783 7.0909 16.9044 7.74478 16.905C9.30478 16.905 10.5748 15.635 10.5748 14.075V13.945L13.9748 11.515H14.0548C16.1348 11.515 17.8248 9.82495 17.8248 7.74495C17.8248 5.66495 16.1348 3.97495 14.0548 3.97495C11.9748 3.97495 10.2748 5.66495 10.2748 7.74495V7.79495L7.90478 11.255L7.74478 11.245C7.15478 11.245 6.60478 11.425 6.15478 11.735L0.77478 9.52495C1.20478 4.37495 5.50478 0.324951 10.7748 0.324951ZM7.05478 15.495C7.85478 15.825 8.77478 15.455 9.10478 14.655C9.43478 13.855 9.05478 12.945 8.27478 12.615L6.99478 12.085C7.48478 11.905 8.03478 11.895 8.55478 12.115C9.08478 12.325 9.49478 12.735 9.70478 13.265C9.92478 13.785 9.92478 14.365 9.70478 14.885C9.27478 15.965 8.00478 16.485 6.92478 16.035C6.42478 15.825 6.04478 15.445 5.83478 14.995L7.05478 15.495ZM16.5748 7.74495C16.5748 9.13495 15.4448 10.265 14.0548 10.265C13.3882 10.2623 12.7498 9.99564 12.2793 9.52333C11.8089 9.05103 11.5448 8.41157 11.5448 7.74495C11.5435 7.41496 11.6075 7.08798 11.7331 6.78285C11.8588 6.47773 12.0437 6.2005 12.277 5.96716C12.5103 5.73383 12.7876 5.54899 13.0927 5.42332C13.3978 5.29765 13.7248 5.23363 14.0548 5.23495C14.7214 5.23495 15.3609 5.49907 15.8332 5.9695C16.3055 6.43993 16.5721 7.07834 16.5748 7.74495ZM12.1748 7.74495C12.1748 8.78495 13.0148 9.63495 14.0648 9.63495C15.1048 9.63495 15.9448 8.78495 15.9448 7.74495C15.9448 6.70495 15.1048 5.85495 14.0648 5.85495C13.0148 5.85495 12.1748 6.70495 12.1748 7.74495Z" fill="white"/>
</g>
<defs>
<clipPath id="clip0_306_6209">
<rect width="20" height="20" fill="white" transform="translate(0.77478 0.324951)"/>
</clipPath>
</defs>
</svg>
