<svg width="21" height="21" viewBox="0 0 21 21" fill="none" xmlns="http://www.w3.org/2000/svg">
<path d="M10.7748 0.324951C11.6914 0.324951 12.5769 0.443007 13.431 0.679118C14.2852 0.915229 15.0803 1.25203 15.8164 1.68953C16.5526 2.12703 17.2262 2.64787 17.8373 3.25203C18.4484 3.8562 18.9692 4.52981 19.3998 5.27287C19.8303 6.01592 20.1671 6.81453 20.4102 7.6687C20.6533 8.52287 20.7748 9.40828 20.7748 10.325C20.7748 11.2416 20.6567 12.127 20.4206 12.9812C20.1845 13.8354 19.8477 14.6305 19.4102 15.3666C18.9727 16.1027 18.4519 16.7763 17.8477 17.3875C17.2435 17.9986 16.5699 18.5194 15.8269 18.95C15.0838 19.3805 14.2852 19.7173 13.431 19.9604C12.5769 20.2034 11.6914 20.325 10.7748 20.325C9.85811 20.325 8.9727 20.2069 8.11853 19.9708C7.26436 19.7347 6.46922 19.3979 5.73311 18.9604C4.997 18.5229 4.32339 18.002 3.71228 17.3979C3.10117 16.7937 2.58034 16.1201 2.14978 15.377C1.71922 14.634 1.38242 13.8388 1.13936 12.9916C0.896308 12.1444 0.77478 11.2555 0.77478 10.325C0.77478 9.40828 0.892836 8.52287 1.12895 7.6687C1.36506 6.81453 1.70186 6.0194 2.13936 5.28328C2.57686 4.54717 3.0977 3.87356 3.70186 3.26245C4.30603 2.65134 4.97964 2.13051 5.7227 1.69995C6.46575 1.2694 7.26089 0.93259 8.10811 0.689535C8.95534 0.446479 9.84422 0.324951 10.7748 0.324951ZM11.4414 14.9916H10.1081V16.325H11.4414V14.9916ZM11.5248 13.2312C11.5248 12.9743 11.5491 12.7312 11.5977 12.502C11.6463 12.2729 11.7713 12.0576 11.9727 11.8562C12.2435 11.5854 12.5109 11.3284 12.7748 11.0854C13.0387 10.8423 13.2748 10.5819 13.4831 10.3041C13.6914 10.0263 13.8616 9.7312 13.9935 9.4187C14.1255 9.1062 14.1914 8.74162 14.1914 8.32495C14.1914 7.85273 14.1012 7.41176 13.9206 7.00203C13.7401 6.59231 13.497 6.2312 13.1914 5.9187C12.8859 5.6062 12.5248 5.35967 12.1081 5.17912C11.6914 4.99856 11.247 4.90828 10.7748 4.90828C10.3026 4.90828 9.86159 4.99856 9.45186 5.17912C9.04214 5.35967 8.68103 5.60273 8.36853 5.90828C8.05603 6.21384 7.8095 6.57495 7.62895 6.99162C7.44839 7.40828 7.35811 7.85273 7.35811 8.32495H8.85811C8.85811 8.06106 8.90672 7.81453 9.00395 7.58537C9.10117 7.3562 9.24006 7.15134 9.42061 6.97078C9.60117 6.79023 9.80256 6.65481 10.0248 6.56453C10.247 6.47426 10.497 6.42217 10.7748 6.40828C11.0387 6.40828 11.2852 6.4569 11.5144 6.55412C11.7435 6.65134 11.9484 6.79023 12.1289 6.97078C12.3095 7.15134 12.4449 7.35273 12.5352 7.57495C12.6255 7.79717 12.6776 8.04717 12.6914 8.32495C12.6914 8.60967 12.6255 8.86315 12.4935 9.08537C12.3616 9.30759 12.1984 9.5194 12.0039 9.72078C11.8095 9.92217 11.5942 10.1305 11.3581 10.3458C11.122 10.5611 10.9102 10.7902 10.7227 11.0333C10.5352 11.2763 10.3685 11.5576 10.2227 11.877C10.0769 12.1965 10.0109 12.568 10.0248 12.9916V13.6583H11.5248V13.2312Z" fill="white"/>
</svg>
