<svg width="32" height="31" viewBox="0 0 32 31" fill="none" xmlns="http://www.w3.org/2000/svg">
<rect y="0.939941" width="31.2" height="29.38" rx="5" fill="white"/>
<path d="M9.51701 24.3199C9.2708 24.3199 9.06455 24.2365 8.89829 24.0697C8.73202 23.9028 8.64859 23.6966 8.64801 23.4509C8.64743 23.2053 8.73086 22.9991 8.89829 22.8322C9.06571 22.6654 9.27195 22.5819 9.51701 22.5819H10.386V19.9749C10.386 19.0914 10.5925 18.2621 11.0056 17.487C11.4187 16.7118 11.9942 16.0928 12.7323 15.6299C11.9937 15.1665 11.4181 14.5475 11.0056 13.7729C10.5931 12.9983 10.3866 12.169 10.386 11.2849V8.67794H9.51701C9.2708 8.67794 9.06455 8.59452 8.89829 8.42767C8.73202 8.26082 8.64859 8.05458 8.64801 7.80894C8.64743 7.5633 8.73086 7.35706 8.89829 7.19021C9.06571 7.02337 9.27195 6.93994 9.51701 6.93994H21.683C21.9292 6.93994 22.1358 7.02337 22.3026 7.19021C22.4694 7.35706 22.5526 7.5633 22.552 7.80894C22.5514 8.05458 22.468 8.26111 22.3017 8.42854C22.1355 8.59596 21.9292 8.6791 21.683 8.67794H20.814V11.2849C20.814 12.1684 20.6078 12.9977 20.1953 13.7729C19.7828 14.548 19.2069 15.167 18.4677 15.6299C19.2064 16.0934 19.7822 16.7127 20.1953 17.4879C20.6083 18.263 20.8146 19.092 20.814 19.9749V22.5819H21.683C21.9292 22.5819 22.1358 22.6654 22.3026 22.8322C22.4694 22.9991 22.5526 23.2053 22.552 23.4509C22.5514 23.6966 22.468 23.9031 22.3017 24.0705C22.1355 24.238 21.9292 24.3211 21.683 24.3199H9.51701Z" fill="#1E222B"/>
</svg>
