<svg width="32" height="30" viewBox="0 0 32 30" fill="none" xmlns="http://www.w3.org/2000/svg">
<rect y="0.560059" width="31.2" height="29.38" rx="5" fill="#1E222B"/>
<path d="M9.51701 23.94C9.2708 23.94 9.06455 23.8566 8.89829 23.6898C8.73202 23.5229 8.64859 23.3167 8.64801 23.071C8.64743 22.8254 8.73086 22.6192 8.89829 22.4523C9.06571 22.2855 9.27195 22.202 9.51701 22.202H10.386V19.595C10.386 18.7116 10.5925 17.8823 11.0056 17.1071C11.4187 16.332 11.9942 15.7129 12.7323 15.2501C11.9937 14.7866 11.4181 14.1676 11.0056 13.393C10.5931 12.6184 10.3866 11.7891 10.386 10.9051V8.29806H9.51701C9.2708 8.29806 9.06455 8.21463 8.89829 8.04779C8.73202 7.88094 8.64859 7.6747 8.64801 7.42906C8.64743 7.18342 8.73086 6.97718 8.89829 6.81033C9.06571 6.64348 9.27195 6.56006 9.51701 6.56006H21.683C21.9292 6.56006 22.1358 6.64348 22.3026 6.81033C22.4694 6.97718 22.5526 7.18342 22.552 7.42906C22.5514 7.6747 22.468 7.88123 22.3017 8.04865C22.1355 8.21608 21.9292 8.29922 21.683 8.29806H20.814V10.9051C20.814 11.7885 20.6078 12.6179 20.1953 13.393C19.7828 14.1681 19.2069 14.7872 18.4677 15.2501C19.2064 15.7135 19.7822 16.3328 20.1953 17.108C20.6083 17.8831 20.8146 18.7121 20.814 19.595V22.202H21.683C21.9292 22.202 22.1358 22.2855 22.3026 22.4523C22.4694 22.6192 22.5526 22.8254 22.552 23.071C22.5514 23.3167 22.468 23.5232 22.3017 23.6906C22.1355 23.8581 21.9292 23.9412 21.683 23.94H9.51701Z" fill="white"/>
</svg>
