<svg width="32" height="30" viewBox="0 0 32 30" fill="none" xmlns="http://www.w3.org/2000/svg">
<rect y="0.120117" width="31.2" height="29.38" rx="5" fill="#1E222B"/>
<path fill-rule="evenodd" clip-rule="evenodd" d="M17.351 6.50066C17.4127 6.35224 17.5309 6.23443 17.6794 6.17313C17.828 6.11183 17.9949 6.11206 18.1433 6.17379C18.2917 6.23551 18.4095 6.35366 18.4708 6.50225C18.5321 6.65084 18.5319 6.8177 18.4702 6.96612L17.6298 8.98633C17.568 9.13475 17.4499 9.25257 17.3013 9.31387C17.1527 9.37517 16.9859 9.37493 16.8374 9.31321C16.689 9.25148 16.5712 9.13333 16.5099 8.98474C16.4486 8.83615 16.4488 8.66929 16.5106 8.52088L17.351 6.50066ZM20.2981 6.48854C20.3295 6.41471 20.3754 6.34787 20.4329 6.29189C20.4904 6.23592 20.5584 6.19192 20.6331 6.16245C20.7077 6.13298 20.7875 6.11864 20.8677 6.12024C20.9479 6.12184 21.0271 6.13936 21.1005 6.17179C21.1739 6.20421 21.2401 6.25089 21.2954 6.30912C21.3506 6.36735 21.3937 6.43597 21.4222 6.51099C21.4507 6.58602 21.464 6.66595 21.4613 6.74616C21.4587 6.82637 21.4401 6.90525 21.4068 6.97824L18.631 13.2652C19.6771 13.84 20.5057 14.7421 20.9899 15.8331C21.474 16.9241 21.5869 18.1439 21.3112 19.3052C21.0356 20.4666 20.3866 21.5054 19.4638 22.2625C18.541 23.0196 17.3953 23.4531 16.2025 23.4965C15.0097 23.5399 13.8355 23.1909 12.8601 22.5029C11.8847 21.8149 11.1619 20.826 10.8026 19.6877C10.4432 18.5495 10.4671 17.3248 10.8707 16.2015C11.2742 15.0781 12.0351 14.1182 13.0366 13.4688L9.80426 7.0041C9.76797 6.93281 9.74616 6.85505 9.74007 6.7753C9.73398 6.69554 9.74374 6.61537 9.76879 6.53941C9.79383 6.46345 9.83366 6.39319 9.88599 6.33269C9.93831 6.2722 10.0021 6.22266 10.0737 6.18693C10.1452 6.1512 10.2232 6.12999 10.3029 6.12452C10.3827 6.11906 10.4628 6.12944 10.5386 6.15507C10.6144 6.18071 10.6843 6.22108 10.7444 6.27388C10.8045 6.32667 10.8535 6.39084 10.8887 6.46268L14.1211 12.9258C14.6081 12.7465 15.1184 12.6382 15.6362 12.6041L12.9008 7.00006C12.8303 6.85561 12.8201 6.68906 12.8724 6.53706C12.9247 6.38506 13.0352 6.26006 13.1796 6.18954C13.3241 6.11903 13.4906 6.10879 13.6426 6.16108C13.7946 6.21336 13.9196 6.32388 13.9901 6.46833L17.0245 12.6882C17.1894 12.72 17.351 12.7585 17.5094 12.8037L20.2981 6.48854ZM16.0443 15.5415C16.1343 15.474 16.2414 15.4329 16.3535 15.4228C16.4656 15.4127 16.5783 15.434 16.679 15.4843C16.7797 15.5346 16.8643 15.612 16.9235 15.7078C16.9827 15.8035 17.014 15.9138 17.014 16.0264V20.0668C17.014 20.2276 16.9502 20.3817 16.8365 20.4954C16.7228 20.609 16.5687 20.6729 16.4079 20.6729C16.2472 20.6729 16.093 20.609 15.9794 20.4954C15.8657 20.3817 15.8019 20.2276 15.8019 20.0668V17.2385L15.1554 17.7234C15.0268 17.8198 14.8652 17.8612 14.7061 17.8385C14.5469 17.8158 14.4034 17.7307 14.3069 17.6022C14.2105 17.4736 14.1691 17.3119 14.1918 17.1528C14.2145 16.9937 14.2995 16.8501 14.4281 16.7537L16.0443 15.5415Z" fill="white"/>
</svg>
