<svg width="32" height="30" viewBox="0 0 32 30" fill="none" xmlns="http://www.w3.org/2000/svg">
<rect y="0.5" width="31.2" height="29.38" rx="5" fill="white"/>
<path fill-rule="evenodd" clip-rule="evenodd" d="M17.351 6.88054C17.4127 6.73213 17.5309 6.61431 17.6794 6.55301C17.828 6.49171 17.9949 6.49195 18.1433 6.55367C18.2917 6.61539 18.4095 6.73355 18.4708 6.88214C18.5321 7.03073 18.5319 7.19758 18.4702 7.346L17.6298 9.36622C17.568 9.51463 17.4499 9.63245 17.3013 9.69375C17.1527 9.75505 16.9859 9.75481 16.8374 9.69309C16.689 9.63136 16.5712 9.51321 16.5099 9.36462C16.4486 9.21603 16.4488 9.04917 16.5106 8.90076L17.351 6.88054ZM20.2981 6.86842C20.3295 6.79459 20.3754 6.72775 20.4329 6.67178C20.4904 6.6158 20.5584 6.5718 20.6331 6.54233C20.7077 6.51287 20.7875 6.49852 20.8677 6.50012C20.9479 6.50172 21.0271 6.51925 21.1005 6.55167C21.1739 6.5841 21.2401 6.63078 21.2954 6.68901C21.3506 6.74724 21.3937 6.81585 21.4222 6.89088C21.4507 6.9659 21.464 7.04584 21.4613 7.12604C21.4587 7.20625 21.4401 7.28514 21.4068 7.35812L18.631 13.645C19.6771 14.2199 20.5057 15.122 20.9899 16.213C21.474 17.304 21.5869 18.5237 21.3112 19.6851C21.0356 20.8464 20.3866 21.8853 19.4638 22.6424C18.541 23.3995 17.3953 23.833 16.2025 23.8764C15.0097 23.9198 13.8355 23.5708 12.8601 22.8828C11.8847 22.1948 11.1619 21.2058 10.8026 20.0676C10.4432 18.9294 10.4671 17.7047 10.8707 16.5813C11.2742 15.458 12.0351 14.498 13.0366 13.8487L9.80426 7.38398C9.76797 7.3127 9.74616 7.23494 9.74007 7.15518C9.73398 7.07543 9.74374 6.99526 9.76879 6.91929C9.79383 6.84333 9.83366 6.77307 9.88599 6.71258C9.93831 6.65208 10.0021 6.60254 10.0737 6.56681C10.1452 6.53108 10.2232 6.50987 10.3029 6.50441C10.3827 6.49894 10.4628 6.50932 10.5386 6.53496C10.6144 6.56059 10.6843 6.60097 10.7444 6.65376C10.8045 6.70656 10.8535 6.77072 10.8887 6.84256L14.1211 13.3056C14.6081 13.1264 15.1184 13.0181 15.6362 12.984L12.9008 7.37994C12.8303 7.23549 12.8201 7.06894 12.8724 6.91694C12.9247 6.76494 13.0352 6.63994 13.1796 6.56943C13.3241 6.49892 13.4906 6.48868 13.6426 6.54096C13.7946 6.59324 13.9196 6.70377 13.9901 6.84822L17.0245 13.0681C17.1894 13.0998 17.351 13.1384 17.5094 13.1836L20.2981 6.86842ZM16.0443 15.9214C16.1343 15.8539 16.2414 15.8128 16.3535 15.8027C16.4656 15.7925 16.5783 15.8139 16.679 15.8642C16.7797 15.9145 16.8643 15.9919 16.9235 16.0876C16.9827 16.1834 17.014 16.2937 17.014 16.4063V20.4467C17.014 20.6074 16.9502 20.7616 16.8365 20.8753C16.7228 20.9889 16.5687 21.0528 16.4079 21.0528C16.2472 21.0528 16.093 20.9889 15.9794 20.8753C15.8657 20.7616 15.8019 20.6074 15.8019 20.4467V17.6184L15.1554 18.1033C15.0268 18.1997 14.8652 18.2411 14.7061 18.2184C14.5469 18.1956 14.4034 18.1106 14.3069 17.982C14.2105 17.8534 14.1691 17.6918 14.1918 17.5327C14.2145 17.3736 14.2995 17.23 14.4281 17.1335L16.0443 15.9214Z" fill="#1E222B"/>
</svg>
