<svg width="32" height="31" viewBox="0 0 32 31" fill="none" xmlns="http://www.w3.org/2000/svg">
<rect y="0.700195" width="31.2" height="29.38" rx="5" fill="white"/>
<path fill-rule="evenodd" clip-rule="evenodd" d="M9.28012 13.5472V20.9204C9.28012 21.1997 9.3911 21.4676 9.58863 21.6652C9.78616 21.8627 10.0541 21.9737 10.3334 21.9737H20.8666C21.1459 21.9737 21.4139 21.8627 21.6114 21.6652C21.8089 21.4676 21.9199 21.1997 21.9199 20.9204V13.5472C21.9199 13.2678 21.8089 12.9999 21.6114 12.8023C21.4139 12.6048 21.1459 12.4938 20.8666 12.4938H10.3334C10.0541 12.4938 9.78616 12.6048 9.58863 12.8023C9.3911 12.9999 9.28012 13.2678 9.28012 13.5472ZM7.17349 20.9204C7.17349 21.7584 7.50641 22.5622 8.09902 23.1548C8.69162 23.7474 9.49537 24.0803 10.3334 24.0803H20.8666C21.7046 24.0803 22.5084 23.7474 23.101 23.1548C23.6936 22.5622 24.0265 21.7584 24.0265 20.9204V13.5472C24.0265 12.7091 23.6936 11.9053 23.101 11.3127C22.5084 10.7201 21.7046 10.3872 20.8666 10.3872H10.3334C9.49537 10.3872 8.69162 10.7201 8.09902 11.3127C7.50641 11.9053 7.17349 12.7091 7.17349 13.5472V20.9204Z" fill="#1E222B"/>
<path fill-rule="evenodd" clip-rule="evenodd" d="M15.4683 11.2087C15.2504 11.0342 15.1106 10.7803 15.0798 10.5028C15.049 10.2252 15.1296 9.94687 15.304 9.72879L17.4106 7.0955C17.5852 6.87732 17.8393 6.73744 18.1171 6.70663C18.3948 6.67581 18.6734 6.75659 18.8916 6.93118C19.1098 7.10578 19.2496 7.3599 19.2805 7.63763C19.3113 7.91537 19.2305 8.19397 19.0559 8.41214L16.9493 11.0454C16.8628 11.1535 16.756 11.2435 16.6348 11.3102C16.5135 11.377 16.3804 11.4192 16.2428 11.4344C16.1053 11.4497 15.9661 11.4377 15.8332 11.3992C15.7003 11.3606 15.5763 11.2952 15.4683 11.2087Z" fill="#1E222B"/>
<path fill-rule="evenodd" clip-rule="evenodd" d="M15.7317 11.2087C15.9496 11.0342 16.0894 10.7803 16.1202 10.5028C16.151 10.2252 16.0704 9.94687 15.896 9.72879L13.7894 7.0955C13.7029 6.98747 13.596 6.89753 13.4748 6.8308C13.3536 6.76408 13.2205 6.72188 13.0829 6.70663C12.8052 6.67581 12.5266 6.75659 12.3084 6.93118C12.0902 7.10578 11.9504 7.3599 11.9195 7.63763C11.8887 7.91537 11.9695 8.19397 12.1441 8.41214L14.2507 11.0454C14.3372 11.1535 14.444 11.2435 14.5652 11.3102C14.6865 11.377 14.8196 11.4192 14.9572 11.4344C15.0947 11.4497 15.2339 11.4377 15.3668 11.3992C15.4997 11.3606 15.6237 11.2952 15.7317 11.2087ZM17.7067 17.2337L14.2834 19.3403V15.127L17.7067 17.2337Z" fill="#1E222B"/>
<path fill-rule="evenodd" clip-rule="evenodd" d="M18.2333 17.2335C18.2333 17.3235 18.2103 17.412 18.1664 17.4905C18.1225 17.5691 18.0592 17.6351 17.9826 17.6822L14.5593 19.7889C14.4795 19.838 14.3881 19.8649 14.2944 19.8669C14.2007 19.8688 14.1082 19.8457 14.0264 19.8C13.9446 19.7543 13.8765 19.6876 13.8291 19.6067C13.7817 19.5259 13.7567 19.4339 13.7567 19.3402V15.1269C13.7567 15.0332 13.7817 14.9412 13.8291 14.8603C13.8765 14.7795 13.9446 14.7128 14.0264 14.6671C14.1082 14.6213 14.2007 14.5983 14.2944 14.6002C14.3881 14.6022 14.4795 14.6291 14.5593 14.6782L17.9826 16.7848C18.0592 16.832 18.1225 16.898 18.1664 16.9765C18.2103 17.0551 18.2333 17.1436 18.2333 17.2335ZM14.81 16.0696V18.3974L16.7018 17.2335L14.81 16.0696Z" fill="#1E222B"/>
</svg>
