<svg width="32" height="30" viewBox="0 0 32 30" fill="none" xmlns="http://www.w3.org/2000/svg">
<rect y="0.320312" width="31.2" height="29.38" rx="5" fill="#1E222B"/>
<path fill-rule="evenodd" clip-rule="evenodd" d="M9.28012 13.1673V20.5405C9.28012 20.8198 9.3911 21.0877 9.58863 21.2853C9.78616 21.4828 10.0541 21.5938 10.3334 21.5938H20.8666C21.1459 21.5938 21.4139 21.4828 21.6114 21.2853C21.8089 21.0877 21.9199 20.8198 21.9199 20.5405V13.1673C21.9199 12.8879 21.8089 12.62 21.6114 12.4225C21.4139 12.2249 21.1459 12.114 20.8666 12.114H10.3334C10.0541 12.114 9.78616 12.2249 9.58863 12.4225C9.3911 12.62 9.28012 12.8879 9.28012 13.1673ZM7.17349 20.5405C7.17349 21.3785 7.50641 22.1823 8.09902 22.7749C8.69162 23.3675 9.49537 23.7004 10.3334 23.7004H20.8666C21.7046 23.7004 22.5084 23.3675 23.101 22.7749C23.6936 22.1823 24.0265 21.3785 24.0265 20.5405V13.1673C24.0265 12.3292 23.6936 11.5255 23.101 10.9329C22.5084 10.3402 21.7046 10.0073 20.8666 10.0073H10.3334C9.49537 10.0073 8.69162 10.3402 8.09902 10.9329C7.50641 11.5255 7.17349 12.3292 7.17349 13.1673V20.5405Z" fill="white"/>
<path fill-rule="evenodd" clip-rule="evenodd" d="M15.4683 10.8288C15.2504 10.6543 15.1106 10.4004 15.0798 10.1229C15.049 9.84537 15.1296 9.56699 15.304 9.3489L17.4106 6.71562C17.5852 6.49744 17.8393 6.35756 18.1171 6.32674C18.3948 6.29593 18.6734 6.3767 18.8916 6.5513C19.1098 6.7259 19.2496 6.98002 19.2805 7.25775C19.3113 7.53548 19.2305 7.81408 19.0559 8.03226L16.9493 10.6655C16.8628 10.7736 16.756 10.8636 16.6348 10.9303C16.5135 10.9971 16.3804 11.0393 16.2428 11.0545C16.1053 11.0698 15.9661 11.0578 15.8332 11.0193C15.7003 10.9807 15.5763 10.9153 15.4683 10.8288Z" fill="white"/>
<path fill-rule="evenodd" clip-rule="evenodd" d="M15.7317 10.8288C15.9496 10.6543 16.0894 10.4004 16.1202 10.1229C16.151 9.84537 16.0704 9.56699 15.896 9.3489L13.7894 6.71562C13.7029 6.60759 13.596 6.51764 13.4748 6.45092C13.3536 6.3842 13.2205 6.342 13.0829 6.32674C12.8052 6.29593 12.5266 6.3767 12.3084 6.5513C12.0902 6.7259 11.9504 6.98002 11.9195 7.25775C11.8887 7.53548 11.9695 7.81408 12.1441 8.03226L14.2507 10.6655C14.3372 10.7736 14.444 10.8636 14.5652 10.9303C14.6865 10.9971 14.8196 11.0393 14.9572 11.0545C15.0947 11.0698 15.2339 11.0578 15.3668 11.0193C15.4997 10.9807 15.6237 10.9153 15.7317 10.8288ZM17.7067 16.8538L14.2834 18.9604V14.7471L17.7067 16.8538Z" fill="white"/>
<path fill-rule="evenodd" clip-rule="evenodd" d="M18.2333 16.8536C18.2333 16.9436 18.2103 17.0321 18.1664 17.1107C18.1225 17.1892 18.0592 17.2552 17.9826 17.3024L14.5593 19.409C14.4795 19.4581 14.3881 19.485 14.2944 19.487C14.2007 19.4889 14.1082 19.4658 14.0264 19.4201C13.9446 19.3744 13.8765 19.3077 13.8291 19.2268C13.7817 19.146 13.7567 19.054 13.7567 18.9603V14.747C13.7567 14.6533 13.7817 14.5613 13.8291 14.4805C13.8765 14.3996 13.9446 14.3329 14.0264 14.2872C14.1082 14.2414 14.2007 14.2184 14.2944 14.2203C14.3881 14.2223 14.4795 14.2492 14.5593 14.2983L17.9826 16.4049C18.0592 16.4521 18.1225 16.5181 18.1664 16.5966C18.2103 16.6752 18.2333 16.7637 18.2333 16.8536ZM14.81 15.6897V18.0176L16.7018 16.8536L14.81 15.6897Z" fill="white"/>
</svg>
