<svg width="32" height="31" viewBox="0 0 32 31" fill="none" xmlns="http://www.w3.org/2000/svg">
<rect y="0.839844" width="31.2" height="29.38" rx="5" fill="#1E222B"/>
<path fill-rule="evenodd" clip-rule="evenodd" d="M14.5139 7.76622C12.13 6.65627 8.51889 6.06654 5.13799 8.82948C5.01344 8.93132 4.91307 9.05956 4.84414 9.20494C4.77521 9.35032 4.73943 9.50919 4.73941 9.67008V23.1339C4.73944 23.3395 4.7978 23.5408 4.90771 23.7145C5.01762 23.8882 5.17457 24.0271 5.36031 24.1152C5.54605 24.2032 5.75296 24.2367 5.957 24.2118C6.16103 24.187 6.35382 24.1047 6.51294 23.9746C9.4844 21.5461 12.7404 22.5518 14.5139 23.6976V7.76622ZM16.6861 7.76622V23.6976C18.4596 22.5507 21.7145 21.5461 24.687 23.9746C24.8462 24.1047 25.039 24.187 25.243 24.2118C25.447 24.2367 25.6539 24.2032 25.8397 24.1152C26.0254 24.0271 26.1824 23.8882 26.2923 23.7145C26.4022 23.5408 26.4605 23.3395 26.4606 23.1339V9.67008C26.4606 9.50919 26.4248 9.35032 26.3559 9.20494C26.2869 9.05956 26.1865 8.93132 26.062 8.82948C22.6811 6.06654 19.07 6.65736 16.6861 7.76622Z" fill="white"/>
</svg>
