<svg width="32" height="30" viewBox="0 0 32 30" fill="none" xmlns="http://www.w3.org/2000/svg">
<rect y="0.219727" width="31.2" height="29.38" rx="5" fill="white"/>
<path fill-rule="evenodd" clip-rule="evenodd" d="M14.5139 7.14611C12.13 6.03616 8.51889 5.44643 5.13799 8.20936C5.01344 8.3112 4.91307 8.43945 4.84414 8.58482C4.77521 8.7302 4.73943 8.88908 4.73941 9.04997V22.5138C4.73944 22.7194 4.7978 22.9207 4.90771 23.0944C5.01762 23.2681 5.17457 23.407 5.36031 23.4951C5.54605 23.5831 5.75296 23.6166 5.957 23.5917C6.16103 23.5668 6.35382 23.4846 6.51294 23.3544C9.4844 20.926 12.7404 21.9317 14.5139 23.0775V7.14611ZM16.6861 7.14611V23.0775C18.4596 21.9306 21.7145 20.926 24.687 23.3544C24.8462 23.4846 25.039 23.5668 25.243 23.5917C25.447 23.6166 25.6539 23.5831 25.8397 23.4951C26.0254 23.407 26.1824 23.2681 26.2923 23.0944C26.4022 22.9207 26.4605 22.7194 26.4606 22.5138V9.04997C26.4606 8.88908 26.4248 8.7302 26.3559 8.58482C26.2869 8.43945 26.1865 8.3112 26.062 8.20936C22.6811 5.44643 19.07 6.03724 16.6861 7.14611Z" fill="#1E222B"/>
</svg>
