<svg width="32" height="30" viewBox="0 0 32 30" fill="none" xmlns="http://www.w3.org/2000/svg">
<rect y="0.219727" width="31.2" height="29.38" rx="5" fill="white"/>
<path d="M21.0758 14.1375C20.8537 13.8478 20.5834 13.5968 20.3323 13.3457C19.6854 12.7664 18.9515 12.3512 18.3336 11.7429C16.8948 10.3331 16.5762 8.00606 17.4935 6.21973C16.5762 6.44181 15.7748 6.94391 15.0892 7.4943C12.5883 9.50271 11.6034 13.0464 12.7814 16.088C12.8201 16.1845 12.8587 16.2811 12.8587 16.4066C12.8587 16.6191 12.7139 16.8122 12.5207 16.8894C12.2987 16.986 12.0669 16.928 11.8835 16.7735C11.8287 16.7276 11.7828 16.672 11.7483 16.6094C10.6572 15.2286 10.4834 13.2492 11.2172 11.6656C9.60468 12.9788 8.726 15.1996 8.85153 17.295C8.90946 17.7778 8.9674 18.2605 9.13155 18.7433C9.26673 19.3227 9.52743 19.902 9.81711 20.4138C10.8599 22.0843 12.6656 23.2816 14.6064 23.523C16.6727 23.7837 18.8839 23.4071 20.4675 21.978C22.2345 20.3752 22.8525 17.8067 21.9448 15.6052L21.8193 15.3541C21.6165 14.91 21.0758 14.1375 21.0758 14.1375ZM18.0246 20.2207C17.7542 20.4524 17.31 20.7035 16.9624 20.8C15.881 21.1863 14.7995 20.6455 14.1622 20.0083C15.3113 19.7379 15.9968 18.8882 16.1996 18.0288C16.3638 17.2563 16.0548 16.6191 15.9292 15.8756C15.8134 15.161 15.8327 14.5527 16.0934 13.8865C16.2769 14.2534 16.47 14.6203 16.7017 14.91C17.4452 15.8756 18.6136 16.3004 18.8646 17.6136C18.9032 17.7488 18.9226 17.884 18.9226 18.0288C18.9515 18.8206 18.6039 19.6896 18.0246 20.2207Z" fill="#1E222B"/>
</svg>
