<svg width="32" height="31" viewBox="0 0 32 31" fill="none" xmlns="http://www.w3.org/2000/svg">
<rect y="0.839844" width="31.2" height="29.38" rx="5" fill="#1E222B"/>
<path d="M21.0758 14.7576C20.8537 14.4679 20.5834 14.2169 20.3323 13.9658C19.6854 13.3865 18.9515 12.9713 18.3336 12.363C16.8948 10.9532 16.5762 8.62617 17.4935 6.83984C16.5762 7.06193 15.7748 7.56403 15.0892 8.11441C12.5883 10.1228 11.6034 13.6665 12.7814 16.7081C12.8201 16.8047 12.8587 16.9012 12.8587 17.0267C12.8587 17.2392 12.7139 17.4323 12.5207 17.5095C12.2987 17.6061 12.0669 17.5482 11.8835 17.3937C11.8287 17.3478 11.7828 17.2921 11.7483 17.2295C10.6572 15.8487 10.4834 13.8693 11.2172 12.2857C9.60468 13.5989 8.726 15.8198 8.85153 17.9151C8.90946 18.3979 8.9674 18.8807 9.13155 19.3635C9.26673 19.9428 9.52743 20.5222 9.81711 21.0339C10.8599 22.7044 12.6656 23.9017 14.6064 24.1431C16.6727 24.4038 18.8839 24.0272 20.4675 22.5982C22.2345 20.9953 22.8525 18.4268 21.9448 16.2253L21.8193 15.9743C21.6165 15.5301 21.0758 14.7576 21.0758 14.7576ZM18.0246 20.8408C17.7542 21.0725 17.31 21.3236 16.9624 21.4201C15.881 21.8064 14.7995 21.2657 14.1622 20.6284C15.3113 20.358 15.9968 19.5083 16.1996 18.6489C16.3638 17.8765 16.0548 17.2392 15.9292 16.4957C15.8134 15.7811 15.8327 15.1728 16.0934 14.5066C16.2769 14.8735 16.47 15.2404 16.7017 15.5301C17.4452 16.4957 18.6136 16.9205 18.8646 18.2337C18.9032 18.3689 18.9226 18.5041 18.9226 18.6489C18.9515 19.4407 18.6039 20.3097 18.0246 20.8408Z" fill="white"/>
</svg>
