<svg width="32" height="30" viewBox="0 0 32 30" fill="none" xmlns="http://www.w3.org/2000/svg">
<rect y="0.380005" width="31.2" height="29.38" rx="5" fill="white"/>
<path d="M7.88871 23.76C6.83056 23.76 5.92689 23.3708 5.17772 22.5923C4.42855 21.8138 4.03598 20.8724 4 19.768C4 19.6051 4.00882 19.4422 4.02645 19.2792C4.04409 19.1163 4.07054 18.9533 4.10582 18.7904L6.32793 9.66591C6.57484 8.68829 7.07746 7.89641 7.8358 7.29028C8.59414 6.68415 9.4583 6.38073 10.4283 6.38H20.7452C21.7152 6.38 22.5794 6.68343 23.3377 7.29028C24.0961 7.89713 24.5987 8.68901 24.8456 9.66591L27.0677 18.7904C27.103 18.9533 27.134 19.121 27.1608 19.2933C27.1876 19.4657 27.2007 19.633 27.2 19.7952C27.2 20.8995 26.8162 21.8366 26.0487 22.6064C25.2812 23.3762 24.3602 23.7607 23.2859 23.76C22.5452 23.76 21.8574 23.5609 21.2225 23.1626C20.5876 22.7643 20.1114 22.2212 19.794 21.5332L19.0533 19.9581C18.9651 19.7771 18.8328 19.6413 18.6565 19.5508C18.4801 19.4603 18.2946 19.415 18.0999 19.415H13.0736C12.8797 19.415 12.6945 19.4603 12.5181 19.5508C12.3418 19.6413 12.2095 19.7771 12.1213 19.9581L11.3806 21.5332C11.0632 22.2212 10.587 22.7643 9.9521 23.1626C9.31721 23.5609 8.62941 23.76 7.88871 23.76ZM17.174 13.9838C17.4738 13.9838 17.7253 13.8795 17.9284 13.6709C18.1316 13.4624 18.2328 13.2046 18.2321 12.8975C18.2314 12.5905 18.1299 12.3327 17.9274 12.1241C17.7249 11.9155 17.4738 11.8113 17.174 11.8113C16.8742 11.8113 16.623 11.9155 16.4206 12.1241C16.2181 12.3327 16.1165 12.5905 16.1158 12.8975C16.1151 13.2046 16.2167 13.4627 16.4206 13.672C16.6245 13.8813 16.8756 13.9852 17.174 13.9838ZM19.2903 11.8113C19.5901 11.8113 19.8416 11.707 20.0448 11.4984C20.2479 11.2899 20.3491 11.0321 20.3484 10.725C20.3477 10.418 20.2462 10.1602 20.0437 9.95159C19.8412 9.74303 19.5901 9.63875 19.2903 9.63875C18.9905 9.63875 18.7393 9.74303 18.5369 9.95159C18.3344 10.1602 18.2328 10.418 18.2321 10.725C18.2314 11.0321 18.333 11.2902 18.5369 11.4995C18.7408 11.7088 18.9919 11.8127 19.2903 11.8113ZM19.2903 16.1563C19.5901 16.1563 19.8416 16.052 20.0448 15.8434C20.2479 15.6349 20.3491 15.3771 20.3484 15.07C20.3477 14.763 20.2462 14.5052 20.0437 14.2966C19.8412 14.088 19.5901 13.9838 19.2903 13.9838C18.9905 13.9838 18.7393 14.088 18.5369 14.2966C18.3344 14.5052 18.2328 14.763 18.2321 15.07C18.2314 15.3771 18.333 15.6352 18.5369 15.8445C18.7408 16.0538 18.9919 16.1577 19.2903 16.1563ZM21.4066 13.9838C21.7064 13.9838 21.9579 13.8795 22.1611 13.6709C22.3642 13.4624 22.4655 13.2046 22.4647 12.8975C22.464 12.5905 22.3625 12.3327 22.16 12.1241C21.9575 11.9155 21.7064 11.8113 21.4066 11.8113C21.1068 11.8113 20.8556 11.9155 20.6532 12.1241C20.4507 12.3327 20.3491 12.5905 20.3484 12.8975C20.3477 13.2046 20.4493 13.4627 20.6532 13.672C20.8571 13.8813 21.1082 13.9852 21.4066 13.9838ZM11.8832 15.6131C12.1125 15.6131 12.3023 15.536 12.4525 15.3818C12.6028 15.2275 12.6775 15.0331 12.6768 14.7984V13.7122H13.735C13.9643 13.7122 14.154 13.6351 14.3043 13.4808C14.4545 13.3266 14.5293 13.1321 14.5286 12.8975C14.5279 12.6629 14.4528 12.4684 14.3032 12.3142C14.1537 12.1599 13.9643 12.0828 13.735 12.0828H12.6768V10.9966C12.6768 10.7612 12.6017 10.5668 12.4515 10.4133C12.3012 10.2597 12.1118 10.1826 11.8832 10.1819C11.6547 10.1812 11.4653 10.2583 11.315 10.4133C11.1647 10.5682 11.0896 10.7627 11.0896 10.9966V12.0828H10.0315C9.8022 12.0828 9.61279 12.1599 9.46324 12.3142C9.31368 12.4684 9.23856 12.6629 9.23785 12.8975C9.23714 13.1321 9.31227 13.3269 9.46324 13.4819C9.6142 13.6369 9.80361 13.7136 10.0315 13.7122H11.0896V14.7984C11.0896 15.0338 11.1647 15.2286 11.315 15.3828C11.4653 15.5371 11.6547 15.6139 11.8832 15.6131Z" fill="#1E222B"/>
</svg>
