<svg width="32" height="30" viewBox="0 0 32 30" fill="none" xmlns="http://www.w3.org/2000/svg">
<rect width="31.2" height="29.38" rx="5" fill="#1E222B"/>
<path d="M7.88871 23.38C6.83056 23.38 5.92689 22.9908 5.17772 22.2123C4.42855 21.4338 4.03598 20.4924 4 19.388C4 19.2251 4.00882 19.0622 4.02645 18.8992C4.04409 18.7363 4.07054 18.5733 4.10582 18.4104L6.32793 9.28591C6.57484 8.30828 7.07746 7.5164 7.8358 6.91028C8.59414 6.30415 9.4583 6.00072 10.4283 6H20.7452C21.7152 6 22.5794 6.30343 23.3377 6.91028C24.0961 7.51713 24.5987 8.30901 24.8456 9.28591L27.0677 18.4104C27.103 18.5733 27.134 18.741 27.1608 18.9133C27.1876 19.0857 27.2007 19.253 27.2 19.4152C27.2 20.5195 26.8162 21.4566 26.0487 22.2264C25.2812 22.9962 24.3602 23.3807 23.2859 23.38C22.5452 23.38 21.8574 23.1809 21.2225 22.7826C20.5876 22.3843 20.1114 21.8411 19.794 21.1532L19.0533 19.5781C18.9651 19.3971 18.8328 19.2613 18.6565 19.1708C18.4801 19.0803 18.2946 19.035 18.0999 19.035H13.0736C12.8797 19.035 12.6945 19.0803 12.5181 19.1708C12.3418 19.2613 12.2095 19.3971 12.1213 19.5781L11.3806 21.1532C11.0632 21.8411 10.587 22.3843 9.9521 22.7826C9.31721 23.1809 8.62941 23.38 7.88871 23.38ZM17.174 13.6037C17.4738 13.6037 17.7253 13.4995 17.9284 13.2909C18.1316 13.0823 18.2328 12.8245 18.2321 12.5175C18.2314 12.2105 18.1299 11.9526 17.9274 11.7441C17.7249 11.5355 17.4738 11.4312 17.174 11.4312C16.8742 11.4312 16.623 11.5355 16.4206 11.7441C16.2181 11.9526 16.1165 12.2105 16.1158 12.5175C16.1151 12.8245 16.2167 13.0827 16.4206 13.292C16.6245 13.5013 16.8756 13.6052 17.174 13.6037ZM19.2903 11.4312C19.5901 11.4312 19.8416 11.327 20.0448 11.1184C20.2479 10.9098 20.3491 10.652 20.3484 10.345C20.3477 10.038 20.2462 9.78015 20.0437 9.57159C19.8412 9.36303 19.5901 9.25875 19.2903 9.25875C18.9905 9.25875 18.7393 9.36303 18.5369 9.57159C18.3344 9.78015 18.2328 10.038 18.2321 10.345C18.2314 10.652 18.333 10.9102 18.5369 11.1195C18.7408 11.3288 18.9919 11.4327 19.2903 11.4312ZM19.2903 15.7762C19.5901 15.7762 19.8416 15.672 20.0448 15.4634C20.2479 15.2548 20.3491 14.997 20.3484 14.69C20.3477 14.383 20.2462 14.1251 20.0437 13.9166C19.8412 13.708 19.5901 13.6037 19.2903 13.6037C18.9905 13.6037 18.7393 13.708 18.5369 13.9166C18.3344 14.1251 18.2328 14.383 18.2321 14.69C18.2314 14.997 18.333 15.2552 18.5369 15.4645C18.7408 15.6738 18.9919 15.7777 19.2903 15.7762ZM21.4066 13.6037C21.7064 13.6037 21.9579 13.4995 22.1611 13.2909C22.3642 13.0823 22.4655 12.8245 22.4647 12.5175C22.464 12.2105 22.3625 11.9526 22.16 11.7441C21.9575 11.5355 21.7064 11.4312 21.4066 11.4312C21.1068 11.4312 20.8556 11.5355 20.6532 11.7441C20.4507 11.9526 20.3491 12.2105 20.3484 12.5175C20.3477 12.8245 20.4493 13.0827 20.6532 13.292C20.8571 13.5013 21.1082 13.6052 21.4066 13.6037ZM11.8832 15.2331C12.1125 15.2331 12.3023 15.156 12.4525 15.0018C12.6028 14.8475 12.6775 14.6531 12.6768 14.4184V13.3322H13.735C13.9643 13.3322 14.154 13.2551 14.3043 13.1008C14.4545 12.9466 14.5293 12.7521 14.5286 12.5175C14.5279 12.2829 14.4528 12.0884 14.3032 11.9342C14.1537 11.7799 13.9643 11.7028 13.735 11.7028H12.6768V10.6166C12.6768 10.3812 12.6017 10.1868 12.4515 10.0332C12.3012 9.87972 12.1118 9.8026 11.8832 9.80187C11.6547 9.80115 11.4653 9.87827 11.315 10.0332C11.1647 10.1882 11.0896 10.3827 11.0896 10.6166V11.7028H10.0315C9.8022 11.7028 9.61279 11.7799 9.46324 11.9342C9.31368 12.0884 9.23856 12.2829 9.23785 12.5175C9.23714 12.7521 9.31227 12.9469 9.46324 13.1019C9.6142 13.2569 9.80361 13.3336 10.0315 13.3322H11.0896V14.4184C11.0896 14.6538 11.1647 14.8486 11.315 15.0028C11.4653 15.1571 11.6547 15.2338 11.8832 15.2331Z" fill="white"/>
</svg>
