<svg width="27" height="21" viewBox="0 0 27 21" fill="none" xmlns="http://www.w3.org/2000/svg">
<path d="M26.4866 15.3581C25.9807 15.997 24.7419 16.4523 24.7419 16.4523L15.5278 19.7664V17.3217L22.3089 14.9017C23.0784 14.6264 23.196 14.2358 22.5713 14.0311C21.9466 13.8264 20.816 13.884 20.0454 14.1617L15.5278 15.7546V13.2193L15.7878 13.1299C15.7878 13.1299 17.0937 12.6676 18.9289 12.464C20.7654 12.2617 23.0137 12.4923 24.7784 13.1617C26.7666 13.7911 26.9901 14.7193 26.4866 15.3581ZM16.4042 11.1958V4.94756C16.4042 4.21344 16.2689 3.53815 15.5807 3.34756C15.0548 3.17815 14.7278 3.66756 14.7278 4.4005V20.0511L10.5125 18.7111V0.0510864C12.3042 0.384028 14.916 1.17226 16.3195 1.6452C19.8901 2.87226 21.1007 4.4005 21.1007 7.84167C21.1007 11.1958 19.0325 12.4676 16.4042 11.197M2.77718 17.0676C0.734828 16.4911 0.394828 15.2911 1.32542 14.6005C2.18542 13.9629 3.64895 13.4829 3.64895 13.4829L9.69365 11.3299V13.784L5.34306 15.3429C4.57483 15.6181 4.45718 16.0087 5.08071 16.2134C5.70659 16.4193 6.83718 16.3605 7.60659 16.084L9.69365 15.3264V17.5205L9.27718 17.5911C7.19012 17.9323 4.96777 17.7899 2.77718 17.0676Z" fill="white"/>
</svg>
