<svg width="18" height="19" viewBox="0 0 18 19" fill="none" xmlns="http://www.w3.org/2000/svg">
<g clip-path="url(#clip0_322_7016)">
<path d="M14.2425 0.75H3.74252C1.67177 0.75 -0.00747681 2.42925 -0.00747681 4.5V15C-0.00747681 17.0707 1.67177 18.75 3.74252 18.75H14.2425C16.314 18.75 17.9925 17.0707 17.9925 15V4.5C17.9925 2.42925 16.314 0.75 14.2425 0.75ZM5.99252 15H3.74252V6.75H5.99252V15ZM4.86752 5.799C4.14302 5.799 3.55502 5.2065 3.55502 4.476C3.55502 3.7455 4.14302 3.153 4.86752 3.153C5.59202 3.153 6.18002 3.7455 6.18002 4.476C6.18002 5.2065 5.59277 5.799 4.86752 5.799ZM14.9925 15H12.7425V10.797C12.7425 8.271 9.74252 8.46225 9.74252 10.797V15H7.49252V6.75H9.74252V8.07375C10.7895 6.13425 14.9925 5.991 14.9925 9.93075V15Z" fill="white"/>
</g>
<defs>
<clipPath id="clip0_322_7016">
<rect width="18" height="18" fill="white" transform="translate(-0.00747681 0.75)"/>
</clipPath>
</defs>
</svg>
