<svg width="18" height="19" viewBox="0 0 18 19" fill="none" xmlns="http://www.w3.org/2000/svg">
<g clip-path="url(#clip0_322_7012)">
<path d="M8.99252 2.37225C11.3955 2.37225 11.6805 2.38125 12.63 2.42475C15.069 2.53575 16.2083 3.693 16.3193 6.114C16.3628 7.06275 16.371 7.34775 16.371 9.75075C16.371 12.1545 16.362 12.4388 16.3193 13.3875C16.2075 15.8063 15.0713 16.9657 12.63 17.0767C11.6805 17.1202 11.397 17.1292 8.99252 17.1292C6.58952 17.1292 6.30452 17.1202 5.35577 17.0767C2.91077 16.965 1.77752 15.8025 1.66652 13.3868C1.62302 12.438 1.61402 12.1537 1.61402 9.75C1.61402 7.347 1.62377 7.06275 1.66652 6.11325C1.77827 3.693 2.91452 2.535 5.35577 2.424C6.30527 2.38125 6.58952 2.37225 8.99252 2.37225ZM8.99252 0.75C6.54827 0.75 6.24227 0.7605 5.28227 0.804C2.01377 0.954 0.197273 2.7675 0.0472732 6.039C0.00302319 6.99975 -0.00747681 7.30575 -0.00747681 9.75C-0.00747681 12.1943 0.00302319 12.501 0.0465232 13.461C0.196523 16.7295 2.01002 18.546 5.28152 18.696C6.24227 18.7395 6.54827 18.75 8.99252 18.75C11.4368 18.75 11.7435 18.7395 12.7035 18.696C15.969 18.546 17.79 16.7325 17.9378 13.461C17.982 12.501 17.9925 12.1943 17.9925 9.75C17.9925 7.30575 17.982 6.99975 17.9385 6.03975C17.7915 2.77425 15.9758 0.95475 12.7043 0.80475C11.7435 0.7605 11.4368 0.75 8.99252 0.75ZM8.99252 5.1285C6.44027 5.1285 4.37102 7.19775 4.37102 9.75C4.37102 12.3022 6.44027 14.3722 8.99252 14.3722C11.5448 14.3722 13.614 12.303 13.614 9.75C13.614 7.19775 11.5448 5.1285 8.99252 5.1285ZM8.99252 12.75C7.33577 12.75 5.99252 11.4075 5.99252 9.75C5.99252 8.09325 7.33577 6.75 8.99252 6.75C10.6493 6.75 11.9925 8.09325 11.9925 9.75C11.9925 11.4075 10.6493 12.75 8.99252 12.75ZM13.797 3.86625C13.2 3.86625 12.7163 4.35 12.7163 4.94625C12.7163 5.5425 13.2 6.02625 13.797 6.02625C14.3933 6.02625 14.8763 5.5425 14.8763 4.94625C14.8763 4.35 14.3933 3.86625 13.797 3.86625Z" fill="white"/>
</g>
<defs>
<clipPath id="clip0_322_7012">
<rect width="18" height="18" fill="white" transform="translate(-0.00747681 0.75)"/>
</clipPath>
</defs>
</svg>
