<svg width="32" height="30" viewBox="0 0 32 30" fill="none" xmlns="http://www.w3.org/2000/svg">
<rect y="0.339844" width="31.2" height="29.38" rx="5" fill="white"/>
<path d="M12.132 23.7198C11.6541 23.7198 11.2451 23.5498 10.905 23.2097C10.5649 22.8696 10.3946 22.4604 10.394 21.9818C10.3934 21.5033 10.5638 21.0943 10.905 20.7548C11.2462 20.4153 11.6552 20.245 12.132 20.2438C12.6088 20.2427 13.0181 20.413 13.3599 20.7548C13.7017 21.0966 13.8718 21.5056 13.87 21.9818C13.8683 22.458 13.6982 22.8673 13.3599 23.2097C13.0216 23.5521 12.6123 23.7221 12.132 23.7198ZM20.822 23.7198C20.3441 23.7198 19.9351 23.5498 19.595 23.2097C19.2549 22.8696 19.0846 22.4604 19.084 21.9818C19.0834 21.5033 19.2538 21.0943 19.595 20.7548C19.9362 20.4153 20.3452 20.245 20.822 20.2438C21.2988 20.2427 21.7081 20.413 22.0499 20.7548C22.3917 21.0966 22.5617 21.5056 22.56 21.9818C22.5583 22.458 22.3882 22.8673 22.0499 23.2097C21.7116 23.5521 21.3023 23.7221 20.822 23.7198ZM10.5678 8.07784H23.3856C23.7187 8.07784 23.9721 8.22644 24.1459 8.52364C24.3197 8.82084 24.327 9.12122 24.1677 9.42479L21.0827 14.9864C20.9234 15.276 20.7099 15.5005 20.4423 15.6599C20.1746 15.8192 19.8812 15.8988 19.562 15.8988H13.0879L12.132 17.6368H22.56V19.3748H12.132C11.4803 19.3748 10.9878 19.0889 10.6547 18.5171C10.3216 17.9453 10.3071 17.3767 10.6113 16.8113L11.7844 14.6822L8.65603 8.07784H6.91803V6.33984H9.74228L10.5678 8.07784Z" fill="#1E222B"/>
</svg>
