<svg width="32" height="31" viewBox="0 0 32 31" fill="none" xmlns="http://www.w3.org/2000/svg">
<rect y="0.959961" width="31.2" height="29.38" rx="5" fill="#1E222B"/>
<path d="M12.132 24.3399C11.6541 24.3399 11.2451 24.1699 10.905 23.8298C10.5649 23.4898 10.3946 23.0805 10.394 22.6019C10.3934 22.1234 10.5638 21.7144 10.905 21.3749C11.2462 21.0354 11.6552 20.8651 12.132 20.8639C12.6088 20.8628 13.0181 21.0331 13.3599 21.3749C13.7017 21.7167 13.8718 22.1257 13.87 22.6019C13.8683 23.0782 13.6982 23.4874 13.3599 23.8298C13.0216 24.1722 12.6123 24.3423 12.132 24.3399ZM20.822 24.3399C20.3441 24.3399 19.9351 24.1699 19.595 23.8298C19.2549 23.4898 19.0846 23.0805 19.084 22.6019C19.0834 22.1234 19.2538 21.7144 19.595 21.3749C19.9362 21.0354 20.3452 20.8651 20.822 20.8639C21.2988 20.8628 21.7081 21.0331 22.0499 21.3749C22.3917 21.7167 22.5617 22.1257 22.56 22.6019C22.5583 23.0782 22.3882 23.4874 22.0499 23.8298C21.7116 24.1722 21.3023 24.3423 20.822 24.3399ZM10.5678 8.69796H23.3856C23.7187 8.69796 23.9721 8.84656 24.1459 9.14375C24.3197 9.44095 24.327 9.74134 24.1677 10.0449L21.0827 15.6065C20.9234 15.8962 20.7099 16.1207 20.4423 16.28C20.1746 16.4393 19.8812 16.5189 19.562 16.5189H13.0879L12.132 18.2569H22.56V19.9949H12.132C11.4803 19.9949 10.9878 19.709 10.6547 19.1372C10.3216 18.5654 10.3071 17.9968 10.6113 17.4314L11.7844 15.3024L8.65603 8.69796H6.91803V6.95996H9.74228L10.5678 8.69796Z" fill="white"/>
</svg>
