<svg width="32" height="30" viewBox="0 0 32 30" fill="none" xmlns="http://www.w3.org/2000/svg">
<rect y="0.0400391" width="31.2" height="29.38" rx="5" fill="#1E222B"/>
<path d="M7.87557 7.97115H10.7722L12.7033 6.04004H18.4967L20.4278 7.97115H23.3245C23.8366 7.97115 24.3278 8.17461 24.69 8.53676C25.0521 8.89891 25.2556 9.3901 25.2556 9.90226V21.4889C25.2556 22.0011 25.0521 22.4923 24.69 22.8544C24.3278 23.2166 23.8366 23.42 23.3245 23.42H7.87557C7.36341 23.42 6.87222 23.2166 6.51007 22.8544C6.14791 22.4923 5.94446 22.0011 5.94446 21.4889V9.90226C5.94446 9.3901 6.14791 8.89891 6.51007 8.53676C6.87222 8.17461 7.36341 7.97115 7.87557 7.97115ZM15.6 10.8678C14.3196 10.8678 13.0916 11.3765 12.1863 12.2818C11.2809 13.1872 10.7722 14.4152 10.7722 15.6956C10.7722 16.976 11.2809 18.204 12.1863 19.1093C13.0916 20.0147 14.3196 20.5234 15.6 20.5234C16.8804 20.5234 18.1084 20.0147 19.0138 19.1093C19.9192 18.204 20.4278 16.976 20.4278 15.6956C20.4278 14.4152 19.9192 13.1872 19.0138 12.2818C18.1084 11.3765 16.8804 10.8678 15.6 10.8678ZM15.6 12.7989C16.3683 12.7989 17.105 13.1041 17.6483 13.6473C18.1915 14.1906 18.4967 14.9274 18.4967 15.6956C18.4967 16.4638 18.1915 17.2006 17.6483 17.7438C17.105 18.2871 16.3683 18.5923 15.6 18.5923C14.8318 18.5923 14.095 18.2871 13.5518 17.7438C13.0085 17.2006 12.7033 16.4638 12.7033 15.6956C12.7033 14.9274 13.0085 14.1906 13.5518 13.6473C14.095 13.1041 14.8318 12.7989 15.6 12.7989Z" fill="white"/>
</svg>
