<svg width="32" height="30" viewBox="0 0 32 30" fill="none" xmlns="http://www.w3.org/2000/svg">
<rect y="0.419922" width="31.2" height="29.38" rx="5" fill="white"/>
<path d="M7.87557 8.35103H10.7722L12.7033 6.41992H18.4967L20.4278 8.35103H23.3245C23.8366 8.35103 24.3278 8.55449 24.69 8.91664C25.0521 9.2788 25.2556 9.76998 25.2556 10.2821V21.8688C25.2556 22.381 25.0521 22.8722 24.69 23.2343C24.3278 23.5965 23.8366 23.7999 23.3245 23.7999H7.87557C7.36341 23.7999 6.87222 23.5965 6.51007 23.2343C6.14791 22.8722 5.94446 22.381 5.94446 21.8688V10.2821C5.94446 9.76998 6.14791 9.2788 6.51007 8.91664C6.87222 8.55449 7.36341 8.35103 7.87557 8.35103ZM15.6 11.2477C14.3196 11.2477 13.0916 11.7563 12.1863 12.6617C11.2809 13.5671 10.7722 14.7951 10.7722 16.0755C10.7722 17.3559 11.2809 18.5838 12.1863 19.4892C13.0916 20.3946 14.3196 20.9033 15.6 20.9033C16.8804 20.9033 18.1084 20.3946 19.0138 19.4892C19.9192 18.5838 20.4278 17.3559 20.4278 16.0755C20.4278 14.7951 19.9192 13.5671 19.0138 12.6617C18.1084 11.7563 16.8804 11.2477 15.6 11.2477ZM15.6 13.1788C16.3683 13.1788 17.105 13.484 17.6483 14.0272C18.1915 14.5705 18.4967 15.3072 18.4967 16.0755C18.4967 16.8437 18.1915 17.5805 17.6483 18.1237C17.105 18.667 16.3683 18.9721 15.6 18.9721C14.8318 18.9721 14.095 18.667 13.5518 18.1237C13.0085 17.5805 12.7033 16.8437 12.7033 16.0755C12.7033 15.3072 13.0085 14.5705 13.5518 14.0272C14.095 13.484 14.8318 13.1788 15.6 13.1788Z" fill="#1E222B"/>
</svg>
