<svg width="32" height="30" viewBox="0 0 32 30" fill="none" xmlns="http://www.w3.org/2000/svg">
<rect y="0.0998535" width="31.2" height="29.38" rx="5" fill="white"/>
<path d="M9.80668 23.4799V21.5487L10.7722 20.5832H7.87557C7.34451 20.5832 6.89006 20.3943 6.5122 20.0164C6.13435 19.6386 5.9451 19.1838 5.94446 18.6521V8.03096C5.94446 7.49991 6.13371 7.04545 6.5122 6.6676C6.8907 6.28975 7.34516 6.1005 7.87557 6.09985H23.3245C23.8555 6.09985 24.3103 6.2891 24.6888 6.6676C25.0673 7.0461 25.2562 7.50055 25.2556 8.03096V18.6521C25.2556 19.1831 25.0666 19.6379 24.6888 20.0164C24.3109 20.3949 23.8562 20.5838 23.3245 20.5832H20.4278L21.3933 21.5487V23.4799H9.80668ZM7.87557 18.6521H23.3245V8.03096H7.87557V18.6521Z" fill="#1E222B"/>
</svg>
