<svg width="32" height="31" viewBox="0 0 32 31" fill="none" xmlns="http://www.w3.org/2000/svg">
<rect y="0.719971" width="31.2" height="29.38" rx="5" fill="#1E222B"/>
<path d="M9.80668 24.1V22.1689L10.7722 21.2033H7.87557C7.34451 21.2033 6.89006 21.0144 6.5122 20.6365C6.13435 20.2587 5.9451 19.8039 5.94446 19.2722V8.65108C5.94446 8.12003 6.13371 7.66557 6.5122 7.28772C6.8907 6.90986 7.34516 6.72061 7.87557 6.71997H23.3245C23.8555 6.71997 24.3103 6.90922 24.6888 7.28772C25.0673 7.66622 25.2562 8.12067 25.2556 8.65108V19.2722C25.2556 19.8032 25.0666 20.258 24.6888 20.6365C24.3109 21.015 23.8562 21.2039 23.3245 21.2033H20.4278L21.3933 22.1689V24.1H9.80668ZM7.87557 19.2722H23.3245V8.65108H7.87557V19.2722Z" fill="white"/>
</svg>
