<svg width="32" height="30" viewBox="0 0 32 30" fill="none" xmlns="http://www.w3.org/2000/svg">
<rect y="0.399902" width="31.2" height="29.38" rx="5" fill="#1E222B"/>
<path d="M6.90999 6.3999L9.08249 10.7449H12.3412L10.1687 6.3999H12.3412L14.5137 10.7449H17.7725L15.6 6.3999H17.7725L19.945 10.7449H23.2037L21.0312 6.3999H24.29C24.8874 6.3999 25.399 6.61281 25.8249 7.03862C26.2507 7.46443 26.4632 7.97569 26.4625 8.5724V21.6074C26.4625 22.2048 26.2499 22.7165 25.8249 23.1423C25.3998 23.5681 24.8881 23.7806 24.29 23.7799H6.90999C6.31255 23.7799 5.80129 23.5674 5.3762 23.1423C4.95112 22.7172 4.73821 22.2056 4.73749 21.6074V8.5724C4.73749 7.97496 4.95039 7.4637 5.3762 7.03862C5.80201 6.61353 6.31327 6.40063 6.90999 6.3999Z" fill="white"/>
</svg>
