<svg width="32" height="31" viewBox="0 0 32 31" fill="none" xmlns="http://www.w3.org/2000/svg">
<rect y="0.779785" width="31.2" height="29.38" rx="5" fill="white"/>
<path d="M6.90999 6.77979L9.08249 11.1248H12.3412L10.1687 6.77979H12.3412L14.5137 11.1248H17.7725L15.6 6.77979H17.7725L19.945 11.1248H23.2037L21.0312 6.77979H24.29C24.8874 6.77979 25.399 6.99269 25.8249 7.4185C26.2507 7.84431 26.4632 8.35557 26.4625 8.95228V21.9873C26.4625 22.5847 26.2499 23.0963 25.8249 23.5222C25.3998 23.948 24.8881 24.1605 24.29 24.1598H6.90999C6.31255 24.1598 5.80129 23.9472 5.3762 23.5222C4.95112 23.0971 4.73821 22.5854 4.73749 21.9873V8.95228C4.73749 8.35485 4.95039 7.84359 5.3762 7.4185C5.80201 6.99341 6.31327 6.78051 6.90999 6.77979Z" fill="#1E222B"/>
</svg>
