<svg width="32" height="30" viewBox="0 0 32 30" fill="none" xmlns="http://www.w3.org/2000/svg">
<rect y="0.0800781" width="31.2" height="29.38" rx="5" fill="#1E222B"/>
<path d="M9.51699 23.4601C9.03904 23.4601 8.63003 23.29 8.28996 22.95C7.9499 22.6099 7.77957 22.2006 7.77899 21.7221V9.55608C7.77899 9.07813 7.94932 8.66912 8.28996 8.32905C8.63061 7.98898 9.03962 7.81866 9.51699 7.81808H10.386V6.94908C10.386 6.70286 10.4694 6.49662 10.6363 6.33035C10.8031 6.16408 11.0094 6.08066 11.255 6.08008C11.5006 6.0795 11.7072 6.16293 11.8746 6.33035C12.042 6.49778 12.1251 6.70402 12.124 6.94908V7.81808H19.076V6.94908C19.076 6.70286 19.1594 6.49662 19.3263 6.33035C19.4931 6.16408 19.6994 6.08066 19.945 6.08008C20.1906 6.0795 20.3972 6.16293 20.5646 6.33035C20.732 6.49778 20.8151 6.70402 20.814 6.94908V7.81808H21.683C22.1609 7.81808 22.5702 7.9884 22.9109 8.32905C23.2515 8.6697 23.4216 9.07871 23.421 9.55608V21.7221C23.421 22.2 23.251 22.6093 22.9109 22.95C22.5708 23.2906 22.1615 23.4607 21.683 23.4601H9.51699ZM9.51699 21.7221H21.683V13.0321H9.51699V21.7221ZM15.6 16.5081C15.3538 16.5081 15.1475 16.4247 14.9813 16.2578C14.815 16.091 14.7316 15.8847 14.731 15.6391C14.7304 15.3934 14.8138 15.1872 14.9813 15.0204C15.1487 14.8535 15.3549 14.7701 15.6 14.7701C15.845 14.7701 16.0516 14.8535 16.2196 15.0204C16.3876 15.1872 16.4707 15.3934 16.469 15.6391C16.4673 15.8847 16.3838 16.0912 16.2187 16.2587C16.0536 16.4261 15.8474 16.5092 15.6 16.5081ZM12.124 16.5081C11.8778 16.5081 11.6715 16.4247 11.5053 16.2578C11.339 16.091 11.2556 15.8847 11.255 15.6391C11.2544 15.3934 11.3378 15.1872 11.5053 15.0204C11.6727 14.8535 11.8789 14.7701 12.124 14.7701C12.369 14.7701 12.5756 14.8535 12.7436 15.0204C12.9116 15.1872 12.9947 15.3934 12.993 15.6391C12.9913 15.8847 12.9078 16.0912 12.7427 16.2587C12.5776 16.4261 12.3714 16.5092 12.124 16.5081ZM19.076 16.5081C18.8298 16.5081 18.6235 16.4247 18.4573 16.2578C18.291 16.091 18.2076 15.8847 18.207 15.6391C18.2064 15.3934 18.2898 15.1872 18.4573 15.0204C18.6247 14.8535 18.8309 14.7701 19.076 14.7701C19.321 14.7701 19.5276 14.8535 19.6956 15.0204C19.8636 15.1872 19.9467 15.3934 19.945 15.6391C19.9433 15.8847 19.8598 16.0912 19.6947 16.2587C19.5296 16.4261 19.3234 16.5092 19.076 16.5081ZM15.6 19.9841C15.3538 19.9841 15.1475 19.9007 14.9813 19.7338C14.815 19.567 14.7316 19.3607 14.731 19.1151C14.7304 18.8694 14.8138 18.6632 14.9813 18.4963C15.1487 18.3295 15.3549 18.2461 15.6 18.2461C15.845 18.2461 16.0516 18.3295 16.2196 18.4963C16.3876 18.6632 16.4707 18.8694 16.469 19.1151C16.4673 19.3607 16.3838 19.5672 16.2187 19.7347C16.0536 19.9021 15.8474 19.9852 15.6 19.9841ZM12.124 19.9841C11.8778 19.9841 11.6715 19.9007 11.5053 19.7338C11.339 19.567 11.2556 19.3607 11.255 19.1151C11.2544 18.8694 11.3378 18.6632 11.5053 18.4963C11.6727 18.3295 11.8789 18.2461 12.124 18.2461C12.369 18.2461 12.5756 18.3295 12.7436 18.4963C12.9116 18.6632 12.9947 18.8694 12.993 19.1151C12.9913 19.3607 12.9078 19.5672 12.7427 19.7347C12.5776 19.9021 12.3714 19.9852 12.124 19.9841ZM19.076 19.9841C18.8298 19.9841 18.6235 19.9007 18.4573 19.7338C18.291 19.567 18.2076 19.3607 18.207 19.1151C18.2064 18.8694 18.2898 18.6632 18.4573 18.4963C18.6247 18.3295 18.8309 18.2461 19.076 18.2461C19.321 18.2461 19.5276 18.3295 19.6956 18.4963C19.8636 18.6632 19.9467 18.8694 19.945 19.1151C19.9433 19.3607 19.8598 19.5672 19.6947 19.7347C19.5296 19.9021 19.3234 19.9852 19.076 19.9841Z" fill="white"/>
</svg>
