<svg width="32" height="30" viewBox="0 0 32 30" fill="none" xmlns="http://www.w3.org/2000/svg">
<rect y="0.459961" width="31.2" height="29.38" rx="5" fill="white"/>
<path d="M9.51699 23.84C9.03904 23.84 8.63003 23.6699 8.28996 23.3299C7.9499 22.9898 7.77957 22.5805 7.77899 22.102V9.93596C7.77899 9.45801 7.94932 9.049 8.28996 8.70894C8.63061 8.36887 9.03962 8.19854 9.51699 8.19796H10.386V7.32896C10.386 7.08275 10.4694 6.8765 10.6363 6.71024C10.8031 6.54397 11.0094 6.46054 11.255 6.45996C11.5006 6.45938 11.7072 6.54281 11.8746 6.71024C12.042 6.87766 12.1251 7.08391 12.124 7.32896V8.19796H19.076V7.32896C19.076 7.08275 19.1594 6.8765 19.3263 6.71024C19.4931 6.54397 19.6994 6.46054 19.945 6.45996C20.1906 6.45938 20.3972 6.54281 20.5646 6.71024C20.732 6.87766 20.8151 7.08391 20.814 7.32896V8.19796H21.683C22.1609 8.19796 22.5702 8.36829 22.9109 8.70894C23.2515 9.04958 23.4216 9.45859 23.421 9.93596V22.102C23.421 22.5799 23.251 22.9892 22.9109 23.3299C22.5708 23.6705 22.1615 23.8405 21.683 23.84H9.51699ZM9.51699 22.102H21.683V13.412H9.51699V22.102ZM15.6 16.888C15.3538 16.888 15.1475 16.8045 14.9813 16.6377C14.815 16.4708 14.7316 16.2646 14.731 16.019C14.7304 15.7733 14.8138 15.5671 14.9813 15.4002C15.1487 15.2334 15.3549 15.15 15.6 15.15C15.845 15.15 16.0516 15.2334 16.2196 15.4002C16.3876 15.5671 16.4707 15.7733 16.469 16.019C16.4673 16.2646 16.3838 16.4711 16.2187 16.6386C16.0536 16.806 15.8474 16.8891 15.6 16.888ZM12.124 16.888C11.8778 16.888 11.6715 16.8045 11.5053 16.6377C11.339 16.4708 11.2556 16.2646 11.255 16.019C11.2544 15.7733 11.3378 15.5671 11.5053 15.4002C11.6727 15.2334 11.8789 15.15 12.124 15.15C12.369 15.15 12.5756 15.2334 12.7436 15.4002C12.9116 15.5671 12.9947 15.7733 12.993 16.019C12.9913 16.2646 12.9078 16.4711 12.7427 16.6386C12.5776 16.806 12.3714 16.8891 12.124 16.888ZM19.076 16.888C18.8298 16.888 18.6235 16.8045 18.4573 16.6377C18.291 16.4708 18.2076 16.2646 18.207 16.019C18.2064 15.7733 18.2898 15.5671 18.4573 15.4002C18.6247 15.2334 18.8309 15.15 19.076 15.15C19.321 15.15 19.5276 15.2334 19.6956 15.4002C19.8636 15.5671 19.9467 15.7733 19.945 16.019C19.9433 16.2646 19.8598 16.4711 19.6947 16.6386C19.5296 16.806 19.3234 16.8891 19.076 16.888ZM15.6 20.364C15.3538 20.364 15.1475 20.2805 14.9813 20.1137C14.815 19.9468 14.7316 19.7406 14.731 19.495C14.7304 19.2493 14.8138 19.0431 14.9813 18.8762C15.1487 18.7094 15.3549 18.626 15.6 18.626C15.845 18.626 16.0516 18.7094 16.2196 18.8762C16.3876 19.0431 16.4707 19.2493 16.469 19.495C16.4673 19.7406 16.3838 19.9471 16.2187 20.1146C16.0536 20.282 15.8474 20.3651 15.6 20.364ZM12.124 20.364C11.8778 20.364 11.6715 20.2805 11.5053 20.1137C11.339 19.9468 11.2556 19.7406 11.255 19.495C11.2544 19.2493 11.3378 19.0431 11.5053 18.8762C11.6727 18.7094 11.8789 18.626 12.124 18.626C12.369 18.626 12.5756 18.7094 12.7436 18.8762C12.9116 19.0431 12.9947 19.2493 12.993 19.495C12.9913 19.7406 12.9078 19.9471 12.7427 20.1146C12.5776 20.282 12.3714 20.3651 12.124 20.364ZM19.076 20.364C18.8298 20.364 18.6235 20.2805 18.4573 20.1137C18.291 19.9468 18.2076 19.7406 18.207 19.495C18.2064 19.2493 18.2898 19.0431 18.4573 18.8762C18.6247 18.7094 18.8309 18.626 19.076 18.626C19.321 18.626 19.5276 18.7094 19.6956 18.8762C19.8636 19.0431 19.9467 19.2493 19.945 19.495C19.9433 19.7406 19.8598 19.9471 19.6947 20.1146C19.5296 20.282 19.3234 20.3651 19.076 20.364Z" fill="#1E222B"/>
</svg>
