<svg width="32" height="30" viewBox="0 0 32 30" fill="none" xmlns="http://www.w3.org/2000/svg">
<rect y="0.459961" width="31.2" height="29.38" rx="5" fill="white"/>
<path d="M25.6844 20.418L12.4153 11.3384C12.5232 10.9816 12.5779 10.6108 12.5778 10.2381C12.5779 9.38347 12.2882 8.55405 11.756 7.88532C11.2239 7.2166 10.4806 6.74808 9.64781 6.5563C8.81496 6.36453 7.9417 6.46082 7.17065 6.82946C6.39961 7.1981 5.77635 7.81729 5.40267 8.58591C5.02899 9.35453 4.92698 10.2271 5.1133 11.0612C5.29963 11.8953 5.76327 12.6416 6.4285 13.1781C7.09373 13.7146 7.92123 14.0098 8.77586 14.0152C9.63048 14.0207 10.4617 13.7363 11.1338 13.2083L13.967 15.15L11.1338 17.0918C10.5614 16.642 9.87123 16.3673 9.14636 16.3005C8.42149 16.2338 7.69277 16.3779 7.04787 16.7155C6.40296 17.0531 5.86932 17.5698 5.51116 18.2036C5.15299 18.8373 4.98555 19.561 5.02898 20.2876C5.0724 21.0143 5.32484 21.7129 5.75593 22.2994C6.18701 22.886 6.77839 23.3355 7.45891 23.5939C8.13944 23.8523 8.88013 23.9086 9.59189 23.756C10.3036 23.6034 10.9562 23.2484 11.4709 22.7337C11.8232 22.3835 12.1025 21.9669 12.2925 21.5079C12.4825 21.0489 12.5795 20.5568 12.5778 20.0601C12.578 19.687 12.5233 19.316 12.4153 18.9589L15.9777 16.5223L24.4038 22.2889C24.5266 22.373 24.6649 22.4321 24.8105 22.4627C24.9562 22.4934 25.1065 22.4951 25.2528 22.4677C25.3991 22.4403 25.5386 22.3843 25.6633 22.303C25.788 22.2217 25.8955 22.1166 25.9796 21.9938C26.0637 21.8709 26.1227 21.7327 26.1534 21.587C26.1841 21.4414 26.1858 21.2911 26.1584 21.1448C26.1309 20.9984 26.075 20.8589 25.9937 20.7342C25.9124 20.6096 25.8073 20.5021 25.6844 20.418ZM9.86825 21.1301C9.62102 21.3772 9.29578 21.5309 8.94794 21.5651C8.60009 21.5993 8.25115 21.5118 7.96054 21.3176C7.66994 21.1234 7.45564 20.8345 7.35415 20.5C7.25266 20.1656 7.27025 19.8063 7.40393 19.4833C7.53761 19.1604 7.77912 18.8938 8.08731 18.7289C8.3955 18.564 8.75131 18.5111 9.09415 18.5791C9.437 18.6471 9.74566 18.8318 9.96756 19.1019C10.1895 19.3719 10.3109 19.7105 10.3112 20.0601C10.3113 20.2588 10.2723 20.4556 10.1963 20.6392C10.1203 20.8228 10.0088 20.9896 9.86825 21.1301ZM7.73197 11.3053C7.52055 11.094 7.37653 10.8248 7.31815 10.5316C7.25976 10.2385 7.28963 9.9346 7.40397 9.65843C7.51831 9.38226 7.71199 9.14621 7.9605 8.98013C8.20902 8.81404 8.50121 8.7254 8.80011 8.7254C9.09901 8.7254 9.3912 8.81404 9.63972 8.98013C9.88824 9.14621 10.0819 9.38226 10.1963 9.65843C10.3106 9.9346 10.3405 10.2385 10.2821 10.5316C10.2237 10.8248 10.0797 11.094 9.86825 11.3053C9.5849 11.5885 9.2007 11.7475 8.80011 11.7475C8.39952 11.7475 8.01533 11.5885 7.73197 11.3053ZM18.3869 13.5001C18.3029 13.3773 18.2439 13.2391 18.2132 13.0935C18.1826 12.9478 18.181 12.7975 18.2084 12.6513C18.2359 12.505 18.2919 12.3655 18.3732 12.2409C18.4546 12.1163 18.5597 12.0089 18.6825 11.9248L24.4038 8.00928C24.6519 7.83946 24.9573 7.77515 25.2528 7.8305C25.5483 7.88584 25.8097 8.05632 25.9796 8.30441C26.1494 8.55251 26.2137 8.85791 26.1584 9.15342C26.103 9.44893 25.9325 9.71035 25.6844 9.88018L19.9622 13.7957C19.8394 13.8798 19.7012 13.9388 19.5555 13.9694C19.4099 14 19.2596 14.0017 19.1133 13.9742C18.967 13.9468 18.8276 13.8908 18.703 13.8094C18.5783 13.7281 18.4709 13.623 18.3869 13.5001Z" fill="#1E222B"/>
</svg>
