<svg width="32" height="30" viewBox="0 0 32 30" fill="none" xmlns="http://www.w3.org/2000/svg">
<rect y="0.0800781" width="31.2" height="29.38" rx="5" fill="#1E222B"/>
<path d="M25.6844 20.0381L12.4153 10.9585C12.5232 10.6017 12.5779 10.231 12.5778 9.85823C12.5779 9.00359 12.2882 8.17417 11.756 7.50544C11.2239 6.83671 10.4806 6.3682 9.64781 6.17642C8.81496 5.98464 7.9417 6.08094 7.17065 6.44958C6.39961 6.81821 5.77635 7.43741 5.40267 8.20603C5.02899 8.97464 4.92698 9.84726 5.1133 10.6813C5.29963 11.5154 5.76327 12.2617 6.4285 12.7982C7.09373 13.3348 7.92123 13.6299 8.77586 13.6354C9.63048 13.6408 10.4617 13.3564 11.1338 12.8284L13.967 14.7702L11.1338 16.7119C10.5614 16.2622 9.87123 15.9874 9.14636 15.9206C8.42149 15.8539 7.69277 15.998 7.04787 16.3356C6.40296 16.6732 5.86932 17.1899 5.51116 17.8237C5.15299 18.4574 4.98555 19.1811 5.02898 19.9077C5.0724 20.6344 5.32484 21.333 5.75593 21.9196C6.18701 22.5061 6.77839 22.9556 7.45891 23.214C8.13944 23.4725 8.88013 23.5287 9.59189 23.3761C10.3036 23.2235 10.9562 22.8685 11.4709 22.3538C11.8232 22.0036 12.1025 21.587 12.2925 21.128C12.4825 20.669 12.5795 20.1769 12.5778 19.6802C12.578 19.3071 12.5233 18.9361 12.4153 18.579L15.9777 16.1424L24.4038 21.909C24.5266 21.9931 24.6649 22.0522 24.8105 22.0828C24.9562 22.1135 25.1065 22.1152 25.2528 22.0878C25.3991 22.0604 25.5386 22.0044 25.6633 21.9231C25.788 21.8418 25.8955 21.7367 25.9796 21.6139C26.0637 21.491 26.1227 21.3528 26.1534 21.2072C26.1841 21.0615 26.1858 20.9112 26.1584 20.7649C26.1309 20.6186 26.075 20.4791 25.9937 20.3544C25.9124 20.2297 25.8073 20.1222 25.6844 20.0381ZM9.86825 20.7502C9.62102 20.9973 9.29578 21.151 8.94794 21.1852C8.60009 21.2194 8.25115 21.1319 7.96054 20.9377C7.66994 20.7435 7.45564 20.4546 7.35415 20.1201C7.25266 19.7857 7.27025 19.4264 7.40393 19.1034C7.53761 18.7805 7.77912 18.5139 8.08731 18.349C8.3955 18.1841 8.75131 18.1312 9.09415 18.1992C9.437 18.2672 9.74566 18.452 9.96756 18.722C10.1895 18.992 10.3109 19.3307 10.3112 19.6802C10.3113 19.8789 10.2723 20.0757 10.1963 20.2593C10.1203 20.4429 10.0088 20.6097 9.86825 20.7502ZM7.73197 10.9254C7.52055 10.7141 7.37653 10.4449 7.31815 10.1517C7.25976 9.8586 7.28963 9.55472 7.40397 9.27855C7.51831 9.00238 7.71199 8.76633 7.9605 8.60024C8.20902 8.43416 8.50121 8.34551 8.80011 8.34551C9.09901 8.34551 9.3912 8.43416 9.63972 8.60024C9.88824 8.76633 10.0819 9.00238 10.1963 9.27855C10.3106 9.55472 10.3405 9.8586 10.2821 10.1517C10.2237 10.4449 10.0797 10.7141 9.86825 10.9254C9.5849 11.2086 9.2007 11.3677 8.80011 11.3677C8.39952 11.3677 8.01533 11.2086 7.73197 10.9254ZM18.3869 13.1203C18.3029 12.9974 18.2439 12.8592 18.2132 12.7136C18.1826 12.5679 18.181 12.4177 18.2084 12.2714C18.2359 12.1251 18.2919 11.9857 18.3732 11.861C18.4546 11.7364 18.5597 11.629 18.6825 11.545L24.4038 7.6294C24.6519 7.45958 24.9573 7.39527 25.2528 7.45061C25.5483 7.50596 25.8097 7.67643 25.9796 7.92453C26.1494 8.17263 26.2137 8.47802 26.1584 8.77354C26.103 9.06905 25.9325 9.33047 25.6844 9.50029L19.9622 13.4159C19.8394 13.4999 19.7012 13.5589 19.5555 13.5895C19.4099 13.6201 19.2596 13.6218 19.1133 13.5943C18.967 13.5669 18.8276 13.5109 18.703 13.4295C18.5783 13.3482 18.4709 13.2431 18.3869 13.1203Z" fill="white"/>
</svg>
