<svg width="32" height="30" viewBox="0 0 32 30" fill="none" xmlns="http://www.w3.org/2000/svg">
<rect y="0.620117" width="31.2" height="29.38" rx="5" fill="white"/>
<path d="M9.9515 10.9651C9.60579 10.9651 9.27424 10.8278 9.02979 10.5833C8.78534 10.3389 8.648 10.0073 8.648 9.66162C8.648 9.31591 8.78534 8.98436 9.02979 8.7399C9.27424 8.49545 9.60579 8.35812 9.9515 8.35812C10.2972 8.35812 10.6288 8.49545 10.8732 8.7399C11.1177 8.98436 11.255 9.31591 11.255 9.66162C11.255 10.0073 11.1177 10.3389 10.8732 10.5833C10.6288 10.8278 10.2972 10.9651 9.9515 10.9651ZM23.7773 14.9451L15.9563 7.12414C15.6435 6.8113 15.209 6.62012 14.731 6.62012H8.648C7.68341 6.62012 6.91 7.39353 6.91 8.35812V14.4411C6.91 14.9191 7.10118 15.3536 7.42271 15.6664L15.235 23.4874C15.5566 23.8002 15.9911 24.0001 16.469 24.0001C16.947 24.0001 17.3815 23.8002 17.6943 23.4874L23.7773 17.4044C24.0988 17.0916 24.29 16.6571 24.29 16.1791C24.29 15.6925 24.0901 15.258 23.7773 14.9451Z" fill="#1E222B"/>
</svg>
