<svg width="32" height="30" viewBox="0 0 32 30" fill="none" xmlns="http://www.w3.org/2000/svg">
<rect y="0.240234" width="31.2" height="29.38" rx="5" fill="#1E222B"/>
<path d="M9.9515 10.5852C9.60579 10.5852 9.27424 10.4479 9.02979 10.2034C8.78534 9.95899 8.648 9.62744 8.648 9.28173C8.648 8.93602 8.78534 8.60447 9.02979 8.36002C9.27424 8.11557 9.60579 7.97823 9.9515 7.97823C10.2972 7.97823 10.6288 8.11557 10.8732 8.36002C11.1177 8.60447 11.255 8.93602 11.255 9.28173C11.255 9.62744 11.1177 9.95899 10.8732 10.2034C10.6288 10.4479 10.2972 10.5852 9.9515 10.5852ZM23.7773 14.5653L15.9563 6.74425C15.6435 6.43141 15.209 6.24023 14.731 6.24023H8.648C7.68341 6.24023 6.91 7.01364 6.91 7.97823V14.0612C6.91 14.5392 7.10118 14.9737 7.42271 15.2865L15.235 23.1075C15.5566 23.4204 15.9911 23.6202 16.469 23.6202C16.947 23.6202 17.3815 23.4204 17.6943 23.1075L23.7773 17.0245C24.0988 16.7117 24.29 16.2772 24.29 15.7992C24.29 15.3126 24.0901 14.8781 23.7773 14.5653Z" fill="white"/>
</svg>
