<svg width="32" height="30" viewBox="0 0 32 30" fill="none" xmlns="http://www.w3.org/2000/svg">
<rect y="0.379883" width="31.2" height="29.38" rx="5" fill="white"/>
<path d="M22.221 14.6561H20.9795V11.3456C20.9795 10.9066 20.8051 10.4856 20.4947 10.1752C20.1843 9.86475 19.7633 9.69036 19.3243 9.69036H16.0138V8.44893C16.0138 7.90018 15.7958 7.37391 15.4078 6.98589C15.0198 6.59787 14.4935 6.37988 13.9448 6.37988C13.396 6.37988 12.8697 6.59787 12.4817 6.98589C12.0937 7.37391 11.8757 7.90018 11.8757 8.44893V9.69036H8.56524C8.12625 9.69036 7.70523 9.86475 7.39481 10.1752C7.08439 10.4856 6.91 10.9066 6.91 11.3456V14.4905H8.15143C9.39286 14.4905 10.386 15.4837 10.386 16.7251C10.386 17.9665 9.39286 18.9597 8.15143 18.9597H6.91V22.1046C6.91 22.5436 7.08439 22.9647 7.39481 23.2751C7.70523 23.5855 8.12625 23.7599 8.56524 23.7599H11.7102V22.5185C11.7102 21.277 12.7033 20.2839 13.9448 20.2839C15.1862 20.2839 16.1793 21.277 16.1793 22.5185V23.7599H19.3243C19.7633 23.7599 20.1843 23.5855 20.4947 23.2751C20.8051 22.9647 20.9795 22.5436 20.9795 22.1046V18.7942H22.221C22.7697 18.7942 23.296 18.5762 23.684 18.1882C24.072 17.8001 24.29 17.2739 24.29 16.7251C24.29 16.1764 24.072 15.6501 23.684 15.2621C23.296 14.8741 22.7697 14.6561 22.221 14.6561Z" fill="#1E222B"/>
</svg>
