<svg width="32" height="30" viewBox="0 0 32 30" fill="none" xmlns="http://www.w3.org/2000/svg">
<rect width="31.2" height="29.38" rx="5" fill="#1E222B"/>
<path d="M22.221 14.2762H20.9795V10.9657C20.9795 10.5267 20.8051 10.1057 20.4947 9.79528C20.1843 9.48487 19.7633 9.31048 19.3243 9.31048H16.0138V8.06905C16.0138 7.5203 15.7958 6.99403 15.4078 6.60601C15.0198 6.21799 14.4935 6 13.9448 6C13.396 6 12.8697 6.21799 12.4817 6.60601C12.0937 6.99403 11.8757 7.5203 11.8757 8.06905V9.31048H8.56524C8.12625 9.31048 7.70523 9.48487 7.39481 9.79528C7.08439 10.1057 6.91 10.5267 6.91 10.9657V14.1107H8.15143C9.39286 14.1107 10.386 15.1038 10.386 16.3452C10.386 17.5867 9.39286 18.5798 8.15143 18.5798H6.91V21.7248C6.91 22.1638 7.08439 22.5848 7.39481 22.8952C7.70523 23.2056 8.12625 23.38 8.56524 23.38H11.7102V22.1386C11.7102 20.8971 12.7033 19.904 13.9448 19.904C15.1862 19.904 16.1793 20.8971 16.1793 22.1386V23.38H19.3243C19.7633 23.38 20.1843 23.2056 20.4947 22.8952C20.8051 22.5848 20.9795 22.1638 20.9795 21.7248V18.4143H22.221C22.7697 18.4143 23.296 18.1963 23.684 17.8083C24.072 17.4203 24.29 16.894 24.29 16.3452C24.29 15.7965 24.072 15.2702 23.684 14.8822C23.296 14.4942 22.7697 14.2762 22.221 14.2762Z" fill="white"/>
</svg>
