<svg width="32" height="30" viewBox="0 0 32 30" fill="none" xmlns="http://www.w3.org/2000/svg">
<rect y="0.0598145" width="31.2" height="29.38" rx="5" fill="white"/>
<path d="M19.945 6.05981C18.0794 6.05981 16.4798 7.70367 15.6 10.2102C14.7201 7.70367 13.1206 6.05981 11.255 6.05981C8.41263 6.05981 6.18582 9.87708 6.18582 14.7498C6.18582 19.6226 8.41263 23.4398 11.255 23.4398C13.1206 23.4398 14.7201 21.796 15.6 19.2894C16.4798 21.796 18.0794 23.4398 19.945 23.4398C22.7873 23.4398 25.0142 19.6226 25.0142 14.7498C25.0142 9.87708 22.7873 6.05981 19.945 6.05981ZM13.6918 20.0353C13.0138 21.2782 12.1258 21.9915 11.255 21.9915C10.3842 21.9915 9.49617 21.2782 8.81817 20.0353C8.37985 19.2041 8.06746 18.3124 7.89123 17.3894C8.33242 17.5888 8.81654 17.6744 9.29936 17.6385C9.78217 17.6025 10.2483 17.4461 10.6551 17.1836C11.0618 16.921 11.3963 16.5607 11.6279 16.1356C11.8595 15.7104 11.9809 15.234 11.9809 14.7498C11.9809 14.2657 11.8595 13.7892 11.6279 13.3641C11.3963 12.9389 11.0618 12.5786 10.6551 12.3161C10.2483 12.0535 9.78217 11.8971 9.29936 11.8611C8.81654 11.8252 8.33242 11.9108 7.89123 12.1102C8.06746 11.1872 8.37985 10.2955 8.81817 9.4643C9.49617 8.22145 10.3842 7.50815 11.255 7.50815C12.1258 7.50815 13.0138 8.22145 13.6918 9.4643C14.4549 10.8638 14.8758 12.7412 14.8758 14.7498C14.8758 16.7585 14.4549 18.6359 13.6918 20.0353ZM22.3818 20.0353C21.7038 21.2782 20.8158 21.9915 19.945 21.9915C19.0742 21.9915 18.1862 21.2782 17.5082 20.0353C17.0698 19.2041 16.7575 18.3124 16.5812 17.3894C17.0224 17.5888 17.5065 17.6744 17.9894 17.6385C18.4722 17.6025 18.9383 17.4461 19.3451 17.1836C19.7518 16.921 20.0863 16.5607 20.3179 16.1356C20.5495 15.7104 20.6709 15.234 20.6709 14.7498C20.6709 14.2657 20.5495 13.7892 20.3179 13.3641C20.0863 12.9389 19.7518 12.5786 19.3451 12.3161C18.9383 12.0535 18.4722 11.8971 17.9894 11.8611C17.5065 11.8252 17.0224 11.9108 16.5812 12.1102C16.7575 11.1872 17.0698 10.2955 17.5082 9.4643C18.1862 8.22145 19.0742 7.50815 19.945 7.50815C20.8158 7.50815 21.7038 8.22145 22.3818 9.4643C23.1449 10.8638 23.5658 12.7412 23.5658 14.7498C23.5658 16.7585 23.1449 18.6359 22.3818 20.0353Z" fill="#1E222B"/>
</svg>
