<svg width="32" height="31" viewBox="0 0 32 31" fill="none" xmlns="http://www.w3.org/2000/svg">
<rect y="0.679932" width="31.2" height="29.38" rx="5" fill="#1E222B"/>
<path d="M19.945 6.67993C18.0794 6.67993 16.4798 8.32379 15.6 10.8303C14.7201 8.32379 13.1206 6.67993 11.255 6.67993C8.41263 6.67993 6.18582 10.4972 6.18582 15.3699C6.18582 20.2427 8.41263 24.0599 11.255 24.0599C13.1206 24.0599 14.7201 22.4161 15.6 19.9096C16.4798 22.4161 18.0794 24.0599 19.945 24.0599C22.7873 24.0599 25.0142 20.2427 25.0142 15.3699C25.0142 10.4972 22.7873 6.67993 19.945 6.67993ZM13.6918 20.6554C13.0138 21.8983 12.1258 22.6116 11.255 22.6116C10.3842 22.6116 9.49617 21.8983 8.81817 20.6554C8.37985 19.8242 8.06746 18.9325 7.89123 18.0095C8.33242 18.2089 8.81654 18.2946 9.29936 18.2586C9.78217 18.2226 10.2483 18.0662 10.6551 17.8037C11.0618 17.5411 11.3963 17.1808 11.6279 16.7557C11.8595 16.3305 11.9809 15.8541 11.9809 15.3699C11.9809 14.8858 11.8595 14.4093 11.6279 13.9842C11.3963 13.559 11.0618 13.1987 10.6551 12.9362C10.2483 12.6736 9.78217 12.5172 9.29936 12.4813C8.81654 12.4453 8.33242 12.5309 7.89123 12.7303C8.06746 11.8073 8.37985 10.9156 8.81817 10.0844C9.49617 8.84157 10.3842 8.12826 11.255 8.12826C12.1258 8.12826 13.0138 8.84157 13.6918 10.0844C14.4549 11.4839 14.8758 13.3613 14.8758 15.3699C14.8758 17.3786 14.4549 19.256 13.6918 20.6554ZM22.3818 20.6554C21.7038 21.8983 20.8158 22.6116 19.945 22.6116C19.0742 22.6116 18.1862 21.8983 17.5082 20.6554C17.0698 19.8242 16.7575 18.9325 16.5812 18.0095C17.0224 18.2089 17.5065 18.2946 17.9894 18.2586C18.4722 18.2226 18.9383 18.0662 19.3451 17.8037C19.7518 17.5411 20.0863 17.1808 20.3179 16.7557C20.5495 16.3305 20.6709 15.8541 20.6709 15.3699C20.6709 14.8858 20.5495 14.4093 20.3179 13.9842C20.0863 13.559 19.7518 13.1987 19.3451 12.9362C18.9383 12.6736 18.4722 12.5172 17.9894 12.4813C17.5065 12.4453 17.0224 12.5309 16.5812 12.7303C16.7575 11.8073 17.0698 10.9156 17.5082 10.0844C18.1862 8.84157 19.0742 8.12826 19.945 8.12826C20.8158 8.12826 21.7038 8.84157 22.3818 10.0844C23.1449 11.4839 23.5658 13.3613 23.5658 15.3699C23.5658 17.3786 23.1449 19.256 22.3818 20.6554Z" fill="white"/>
</svg>
