<svg width="32" height="31" viewBox="0 0 32 31" fill="none" xmlns="http://www.w3.org/2000/svg">
<rect y="0.76001" width="31.2" height="29.38" rx="5" fill="#1E222B"/>
<path d="M15.5886 19.5663C16.3204 19.5663 16.9723 19.3492 17.5443 18.915C18.1163 18.4808 18.5316 17.9204 18.7901 17.2337H12.387C12.6462 17.9198 13.0618 18.4802 13.6338 18.915C14.2058 19.3498 14.8574 19.5669 15.5886 19.5663ZM13.3017 15.9073C13.6829 15.9073 14.007 15.7741 14.2741 15.5076C14.5412 15.2411 14.6744 14.917 14.6738 14.5352C14.6732 14.1535 14.54 13.8297 14.2741 13.5638C14.0082 13.2979 13.6841 13.1644 13.3017 13.1631C12.9194 13.1619 12.5956 13.2955 12.3303 13.5638C12.065 13.8321 11.9315 14.1559 11.9296 14.5352C11.9278 14.9146 12.0614 15.2387 12.3303 15.5076C12.5992 15.7765 12.923 15.9098 13.3017 15.9073ZM17.8754 15.9073C18.2565 15.9073 18.5807 15.7741 18.8478 15.5076C19.1149 15.2411 19.2481 14.917 19.2475 14.5352C19.2469 14.1535 19.1136 13.8297 18.8478 13.5638C18.5819 13.2979 18.2578 13.1644 17.8754 13.1631C17.493 13.1619 17.1692 13.2955 16.904 13.5638C16.6387 13.8321 16.5051 14.1559 16.5033 14.5352C16.5015 14.9146 16.635 15.2387 16.904 15.5076C17.1729 15.7765 17.4967 15.9098 17.8754 15.9073ZM11.5866 10.7848L14.1479 7.46893C14.3308 7.225 14.5482 7.04602 14.8001 6.93198C15.0519 6.81795 15.3148 6.76062 15.5886 6.76001C15.8624 6.7594 16.1255 6.81673 16.378 6.93198C16.6304 7.04724 16.8475 7.22622 17.0293 7.46893L19.5905 10.7848L23.4781 12.0883C23.8745 12.2103 24.1871 12.4353 24.4157 12.7634C24.6444 13.0915 24.7588 13.4534 24.7588 13.8492C24.7588 14.0321 24.7319 14.2151 24.6783 14.398C24.6246 14.581 24.5371 14.7563 24.4157 14.924L21.9002 18.4915L21.9917 22.2419C22.0069 22.7755 21.8316 23.2252 21.4657 23.5911C21.0998 23.957 20.673 24.1399 20.1851 24.1399C20.1546 24.1399 19.9869 24.1171 19.682 24.0713L15.5886 22.9279L11.4951 24.0713C11.4189 24.1018 11.3351 24.121 11.2436 24.129C11.1521 24.1369 11.0683 24.1406 10.992 24.1399C10.5042 24.1399 10.0773 23.957 9.7114 23.5911C9.34551 23.2252 9.17019 22.7755 9.18543 22.2419L9.27691 18.4686L6.78426 14.924C6.66229 14.7563 6.57448 14.581 6.52082 14.398C6.46715 14.2151 6.44062 14.0321 6.44123 13.8492C6.44123 13.4681 6.55192 13.1138 6.77328 12.7863C6.99465 12.4588 7.30322 12.2262 7.69899 12.0883L11.5866 10.7848Z" fill="white"/>
</svg>
