<svg width="32" height="30" viewBox="0 0 32 30" fill="none" xmlns="http://www.w3.org/2000/svg">
<rect y="0.140015" width="31.2" height="29.38" rx="5" fill="white"/>
<path d="M15.5886 18.9463C16.3204 18.9463 16.9723 18.7292 17.5443 18.295C18.1163 17.8608 18.5316 17.3004 18.7901 16.6137H12.387C12.6462 17.2998 13.0618 17.8602 13.6338 18.295C14.2058 18.7298 14.8574 18.9469 15.5886 18.9463ZM13.3017 15.2874C13.6829 15.2874 14.007 15.1541 14.2741 14.8876C14.5412 14.6211 14.6744 14.297 14.6738 13.9153C14.6732 13.5335 14.54 13.2097 14.2741 12.9438C14.0082 12.6779 13.6841 12.5444 13.3017 12.5432C12.9194 12.5419 12.5956 12.6755 12.3303 12.9438C12.065 13.2121 11.9315 13.5359 11.9296 13.9153C11.9278 14.2946 12.0614 14.6187 12.3303 14.8876C12.5992 15.1565 12.923 15.2898 13.3017 15.2874ZM17.8754 15.2874C18.2565 15.2874 18.5807 15.1541 18.8478 14.8876C19.1149 14.6211 19.2481 14.297 19.2475 13.9153C19.2469 13.5335 19.1136 13.2097 18.8478 12.9438C18.5819 12.6779 18.2578 12.5444 17.8754 12.5432C17.493 12.5419 17.1692 12.6755 16.904 12.9438C16.6387 13.2121 16.5051 13.5359 16.5033 13.9153C16.5015 14.2946 16.635 14.6187 16.904 14.8876C17.1729 15.1565 17.4967 15.2898 17.8754 15.2874ZM11.5866 10.1648L14.1479 6.84894C14.3308 6.60501 14.5482 6.42603 14.8001 6.31199C15.0519 6.19795 15.3148 6.14063 15.5886 6.14002C15.8624 6.13941 16.1255 6.19673 16.378 6.31199C16.6304 6.42725 16.8475 6.60623 17.0293 6.84894L19.5905 10.1648L23.4781 11.4683C23.8745 11.5903 24.1871 11.8153 24.4157 12.1434C24.6444 12.4715 24.7588 12.8334 24.7588 13.2292C24.7588 13.4121 24.7319 13.5951 24.6783 13.778C24.6246 13.961 24.5371 14.1363 24.4157 14.304L21.9002 17.8715L21.9917 21.6219C22.0069 22.1555 21.8316 22.6052 21.4657 22.9711C21.0998 23.337 20.673 23.5199 20.1851 23.5199C20.1546 23.5199 19.9869 23.4971 19.682 23.4513L15.5886 22.3079L11.4951 23.4513C11.4189 23.4818 11.3351 23.501 11.2436 23.509C11.1521 23.5169 11.0683 23.5206 10.992 23.5199C10.5042 23.5199 10.0773 23.337 9.7114 22.9711C9.34551 22.6052 9.17019 22.1555 9.18543 21.6219L9.27691 17.8486L6.78426 14.304C6.66229 14.1363 6.57448 13.961 6.52082 13.778C6.46715 13.5951 6.44062 13.4121 6.44123 13.2292C6.44123 12.8481 6.55192 12.4938 6.77328 12.1663C6.99465 11.8388 7.30322 11.6062 7.69899 11.4683L11.5866 10.1648Z" fill="#1E222B"/>
</svg>
